<svg width="19" height="20" viewBox="0 0 19 20" fill="none" xmlns="http://www.w3.org/2000/svg">
<path fill-rule="evenodd" clip-rule="evenodd" d="M9.5 20C12.0196 20 14.4359 18.9464 16.2175 17.0711C17.9991 15.1957 19 12.6522 19 10C19 7.34784 17.9991 4.8043 16.2175 2.92893C14.4359 1.05357 12.0196 0 9.5 0C6.98044 0 4.56408 1.05357 2.78249 2.92893C1.00089 4.8043 0 7.34784 0 10C0 12.6522 1.00089 15.1957 2.78249 17.0711C4.56408 18.9464 6.98044 20 9.5 20ZM10.6875 6.25C10.6875 5.91848 10.5624 5.60054 10.3397 5.36612C10.117 5.1317 9.81495 5 9.5 5C9.18506 5 8.88301 5.1317 8.66031 5.36612C8.43761 5.60054 8.3125 5.91848 8.3125 6.25V10.7325L6.77706 9.11625C6.5531 8.88855 6.25313 8.76256 5.94177 8.76541C5.63041 8.76826 5.33258 8.89972 5.1124 9.13148C4.89223 9.36324 4.76734 9.67675 4.76464 10.0045C4.76193 10.3322 4.88163 10.648 5.09794 10.8837L8.66044 14.6337C8.88313 14.8681 9.18512 14.9997 9.5 14.9997C9.81488 14.9997 10.1169 14.8681 10.3396 14.6337L13.9021 10.8837C14.1184 10.648 14.2381 10.3322 14.2354 10.0045C14.2327 9.67675 14.1078 9.36324 13.8876 9.13148C13.6674 8.89972 13.3696 8.76826 13.0582 8.76541C12.7469 8.76256 12.4469 8.88855 12.2229 9.11625L10.6875 10.7325V6.25Z" fill="#FB3766"/>
</svg>
