<svg width="148" height="21" viewBox="0 0 148 21" fill="none" xmlns="http://www.w3.org/2000/svg">
<path d="M9.57324 2.6333C9.72152 2.22555 10.2237 2.20948 10.4023 2.57861L10.4346 2.65967L11.7295 6.8208L11.7305 6.82178C11.8394 7.1705 12.0393 7.48433 12.3115 7.72705L12.4326 7.82666C12.7254 8.04865 13.0736 8.18302 13.4385 8.21338L13.5957 8.22021H17.7871C17.9911 8.22021 18.1533 8.34375 18.2227 8.56689C18.2839 8.76406 18.2455 8.96216 18.1094 9.104L18.0449 9.16064L14.6562 11.731C14.3215 11.9845 14.0776 12.3385 13.9531 12.7378C13.8443 13.087 13.8307 13.459 13.9121 13.814L13.9521 13.9644V13.9653L15.248 18.1265C15.328 18.3829 15.2328 18.5967 15.0713 18.7192C14.9342 18.8232 14.7751 18.8475 14.6191 18.7622L14.5527 18.7192L11.1631 16.1479C10.8282 15.8941 10.4207 15.7545 9.99902 15.7544C9.62984 15.7544 9.27112 15.8612 8.96289 16.0581L8.83398 16.1479L5.44434 18.7192C5.26856 18.8527 5.08409 18.8379 4.92773 18.7192C4.78657 18.612 4.6955 18.4349 4.72852 18.2202L4.75098 18.1265L6.0459 13.9653V13.9644C6.16977 13.5654 6.17022 13.1366 6.0459 12.7378C5.93691 12.3883 5.73581 12.0736 5.46289 11.8306L5.3418 11.731L1.9541 9.16162H1.95312C1.76686 9.01926 1.7073 8.79296 1.77734 8.56787C1.84696 8.34438 2.00977 8.22119 2.21289 8.22119H6.40234C6.77129 8.22128 7.12936 8.11505 7.4375 7.91846L7.56641 7.82861C7.85914 7.60685 8.08306 7.3086 8.21777 6.97021L8.26953 6.82275L9.56543 2.66162L9.57324 2.6333Z" fill="#5235E8" stroke="#5235E8" stroke-width="1.5"/>
<path d="M41.5732 2.6333C41.7215 2.22555 42.2237 2.20948 42.4023 2.57861L42.4346 2.65967L43.7295 6.8208L43.7305 6.82178C43.8394 7.1705 44.0393 7.48433 44.3115 7.72705L44.4326 7.82666C44.7254 8.04865 45.0736 8.18302 45.4385 8.21338L45.5957 8.22021H49.7871C49.9911 8.22021 50.1533 8.34375 50.2227 8.56689C50.2839 8.76406 50.2455 8.96216 50.1094 9.104L50.0449 9.16064L46.6562 11.731C46.3215 11.9845 46.0776 12.3385 45.9531 12.7378C45.8443 13.087 45.8307 13.459 45.9121 13.814L45.9521 13.9644V13.9653L47.248 18.1265C47.328 18.3829 47.2328 18.5967 47.0713 18.7192C46.9342 18.8232 46.7751 18.8475 46.6191 18.7622L46.5527 18.7192L43.1631 16.1479C42.8282 15.8941 42.4207 15.7545 41.999 15.7544C41.6298 15.7544 41.2711 15.8612 40.9629 16.0581L40.834 16.1479L37.4443 18.7192C37.2686 18.8527 37.0841 18.8379 36.9277 18.7192C36.7866 18.612 36.6955 18.4349 36.7285 18.2202L36.751 18.1265L38.0459 13.9653V13.9644C38.1698 13.5654 38.1702 13.1366 38.0459 12.7378C37.9369 12.3883 37.7358 12.0736 37.4629 11.8306L37.3418 11.731L33.9541 9.16162H33.9531C33.7669 9.01926 33.7073 8.79296 33.7773 8.56787C33.847 8.34438 34.0098 8.22119 34.2129 8.22119H38.4023C38.7713 8.22128 39.1294 8.11505 39.4375 7.91846L39.5664 7.82861C39.8591 7.60685 40.0831 7.3086 40.2178 6.97021L40.2695 6.82275L41.5654 2.66162L41.5732 2.6333Z" fill="#5235E8" stroke="#5235E8" stroke-width="1.5"/>
<path d="M73.5732 2.6333C73.7215 2.22555 74.2237 2.20948 74.4023 2.57861L74.4346 2.65967L75.7295 6.8208L75.7305 6.82178C75.8394 7.1705 76.0393 7.48433 76.3115 7.72705L76.4326 7.82666C76.7254 8.04865 77.0736 8.18302 77.4385 8.21338L77.5957 8.22021H81.7871C81.9911 8.22021 82.1533 8.34375 82.2227 8.56689C82.2839 8.76406 82.2455 8.96216 82.1094 9.104L82.0449 9.16064L78.6562 11.731C78.3215 11.9845 78.0776 12.3385 77.9531 12.7378C77.8443 13.087 77.8307 13.459 77.9121 13.814L77.9521 13.9644V13.9653L79.248 18.1265C79.328 18.3829 79.2328 18.5967 79.0713 18.7192C78.9342 18.8232 78.7751 18.8475 78.6191 18.7622L78.5527 18.7192L75.1631 16.1479C74.8282 15.8941 74.4207 15.7545 73.999 15.7544C73.6298 15.7544 73.2711 15.8612 72.9629 16.0581L72.834 16.1479L69.4443 18.7192C69.2686 18.8527 69.0841 18.8379 68.9277 18.7192C68.7866 18.612 68.6955 18.4349 68.7285 18.2202L68.751 18.1265L70.0459 13.9653V13.9644C70.1698 13.5654 70.1702 13.1366 70.0459 12.7378C69.9369 12.3883 69.7358 12.0736 69.4629 11.8306L69.3418 11.731L65.9541 9.16162H65.9531C65.7669 9.01926 65.7073 8.79296 65.7773 8.56787C65.847 8.34438 66.0098 8.22119 66.2129 8.22119H70.4023C70.7713 8.22128 71.1294 8.11505 71.4375 7.91846L71.5664 7.82861C71.8591 7.60685 72.0831 7.3086 72.2178 6.97021L72.2695 6.82275L73.5654 2.66162L73.5732 2.6333Z" fill="#5235E8" stroke="#5235E8" stroke-width="1.5"/>
<path d="M105.573 2.6333C105.722 2.22555 106.224 2.20948 106.402 2.57861L106.435 2.65967L107.729 6.8208L107.73 6.82178C107.839 7.1705 108.039 7.48433 108.312 7.72705L108.433 7.82666C108.725 8.04865 109.074 8.18302 109.438 8.21338L109.596 8.22021H113.787C113.991 8.22021 114.153 8.34375 114.223 8.56689C114.284 8.76406 114.245 8.96216 114.109 9.104L114.045 9.16064L110.656 11.731C110.321 11.9845 110.078 12.3385 109.953 12.7378C109.844 13.087 109.831 13.459 109.912 13.814L109.952 13.9644V13.9653L111.248 18.1265C111.328 18.3829 111.233 18.5967 111.071 18.7192C110.934 18.8232 110.775 18.8475 110.619 18.7622L110.553 18.7192L107.163 16.1479C106.828 15.8941 106.421 15.7545 105.999 15.7544C105.63 15.7544 105.271 15.8612 104.963 16.0581L104.834 16.1479L101.444 18.7192C101.269 18.8527 101.084 18.8379 100.928 18.7192C100.787 18.612 100.696 18.4349 100.729 18.2202L100.751 18.1265L102.046 13.9653V13.9644C102.17 13.5654 102.17 13.1366 102.046 12.7378C101.937 12.3883 101.736 12.0736 101.463 11.8306L101.342 11.731L97.9541 9.16162H97.9531C97.7669 9.01926 97.7073 8.79296 97.7773 8.56787C97.847 8.34438 98.0098 8.22119 98.2129 8.22119H102.402C102.771 8.22128 103.129 8.11505 103.438 7.91846L103.566 7.82861C103.859 7.60685 104.083 7.3086 104.218 6.97021L104.27 6.82275L105.565 2.66162L105.573 2.6333Z" fill="#5235E8" stroke="#5235E8" stroke-width="1.5"/>
<path d="M137.573 2.6333C137.722 2.22555 138.224 2.20948 138.402 2.57861L138.435 2.65967L139.729 6.8208L139.73 6.82178C139.839 7.1705 140.039 7.48433 140.312 7.72705L140.433 7.82666C140.725 8.04865 141.074 8.18302 141.438 8.21338L141.596 8.22021H145.787C145.991 8.22021 146.153 8.34375 146.223 8.56689C146.284 8.76406 146.245 8.96216 146.109 9.104L146.045 9.16064L142.656 11.731C142.321 11.9845 142.078 12.3385 141.953 12.7378C141.844 13.087 141.831 13.459 141.912 13.814L141.952 13.9644V13.9653L143.248 18.1265C143.328 18.3829 143.233 18.5967 143.071 18.7192C142.934 18.8232 142.775 18.8475 142.619 18.7622L142.553 18.7192L139.163 16.1479C138.828 15.8941 138.421 15.7545 137.999 15.7544C137.63 15.7544 137.271 15.8612 136.963 16.0581L136.834 16.1479L133.444 18.7192C133.269 18.8527 133.084 18.8379 132.928 18.7192C132.787 18.612 132.696 18.4349 132.729 18.2202L132.751 18.1265L134.046 13.9653V13.9644C134.17 13.5654 134.17 13.1366 134.046 12.7378C133.937 12.3883 133.736 12.0736 133.463 11.8306L133.342 11.731L129.954 9.16162H129.953C129.767 9.01926 129.707 8.79296 129.777 8.56787C129.847 8.34438 130.01 8.22119 130.213 8.22119H134.402C134.771 8.22128 135.129 8.11505 135.438 7.91846L135.566 7.82861C135.859 7.60685 136.083 7.3086 136.218 6.97021L136.27 6.82275L137.565 2.66162L137.573 2.6333Z" fill="#5235E8" stroke="#5235E8" stroke-width="1.5"/>
</svg>
