<svg width="14" height="14" viewBox="0 0 14 14" fill="none" xmlns="http://www.w3.org/2000/svg">
<path fill-rule="evenodd" clip-rule="evenodd" d="M7.0001 13.3996C8.69748 13.3996 10.3253 12.7253 11.5256 11.5251C12.7258 10.3249 13.4001 8.697 13.4001 6.99961C13.4001 5.30222 12.7258 3.67436 11.5256 2.47413C10.3253 1.27389 8.69748 0.599609 7.0001 0.599609C5.30271 0.599609 3.67485 1.27389 2.47461 2.47413C1.27438 3.67436 0.600098 5.30222 0.600098 6.99961C0.600098 8.697 1.27438 10.3249 2.47461 11.5251C3.67485 12.7253 5.30271 13.3996 7.0001 13.3996V13.3996ZM9.9657 6.43401L7.5657 4.03401C7.41568 3.88403 7.21223 3.79978 7.0001 3.79978C6.78797 3.79978 6.58452 3.88403 6.4345 4.03401L4.0345 6.43401C3.88877 6.58489 3.80814 6.78697 3.80996 6.99673C3.81178 7.20649 3.89592 7.40714 4.04424 7.55546C4.19257 7.70379 4.39322 7.78793 4.60298 7.78975C4.81273 7.79157 5.01482 7.71094 5.1657 7.56521L6.2001 6.53081V9.39961C6.2001 9.61178 6.28438 9.81527 6.43441 9.96529C6.58444 10.1153 6.78792 10.1996 7.0001 10.1996C7.21227 10.1996 7.41575 10.1153 7.56578 9.96529C7.71581 9.81527 7.8001 9.61178 7.8001 9.39961V6.53081L8.8345 7.56521C8.98538 7.71094 9.18746 7.79157 9.39722 7.78975C9.60698 7.78793 9.80763 7.70379 9.95595 7.55546C10.1043 7.40714 10.1884 7.20649 10.1902 6.99673C10.1921 6.78697 10.1114 6.58489 9.9657 6.43401V6.43401Z" fill="#11CABE"/>
</svg>
