<svg width="21" height="20" viewBox="0 0 21 20" fill="none" xmlns="http://www.w3.org/2000/svg">
<g clip-path="url(#clip0_6022_5601)">
<path d="M5.5 3.33334V5" stroke="#DAF727" stroke-width="1.5" stroke-linecap="round" stroke-linejoin="round"/>
<path d="M5.5 9.16666V16.6667" stroke="#DAF727" stroke-width="1.5" stroke-linecap="round" stroke-linejoin="round"/>
<path d="M6.3335 5H4.66683C4.20659 5 3.8335 5.3731 3.8335 5.83333V8.33333C3.8335 8.79357 4.20659 9.16667 4.66683 9.16667H6.3335C6.79373 9.16667 7.16683 8.79357 7.16683 8.33333V5.83333C7.16683 5.3731 6.79373 5 6.3335 5Z" fill="#5235E8" stroke="#5235E8" stroke-width="1.5" stroke-linecap="round" stroke-linejoin="round"/>
<path d="M10.5 3.33334V11.6667" stroke="#D6D1FA" stroke-width="1.5" stroke-linecap="round" stroke-linejoin="round"/>
<path d="M10.5 15.8333V16.6667" stroke="#D6D1FA" stroke-width="1.5" stroke-linecap="round" stroke-linejoin="round"/>
<path d="M11.3335 11.6667H9.66683C9.20659 11.6667 8.8335 12.0398 8.8335 12.5V15C8.8335 15.4602 9.20659 15.8333 9.66683 15.8333H11.3335C11.7937 15.8333 12.1668 15.4602 12.1668 15V12.5C12.1668 12.0398 11.7937 11.6667 11.3335 11.6667Z" fill="#5235E8" stroke="#5235E8" stroke-width="1.5" stroke-linecap="round" stroke-linejoin="round"/>
<path d="M15.5 3.33334V4.16667" stroke="#5235E8" stroke-width="1.5" stroke-linecap="round" stroke-linejoin="round"/>
<path d="M15.5 9.16666V16.6667" stroke="#5235E8" stroke-width="1.5" stroke-linecap="round" stroke-linejoin="round"/>
<path d="M16.3335 4.16666H14.6668C14.2066 4.16666 13.8335 4.53976 13.8335 5V8.33333C13.8335 8.79357 14.2066 9.16666 14.6668 9.16666H16.3335C16.7937 9.16666 17.1668 8.79357 17.1668 8.33333V5C17.1668 4.53976 16.7937 4.16666 16.3335 4.16666Z" fill="#DAF727" stroke="#DAF727" stroke-width="1.5" stroke-linecap="round" stroke-linejoin="round"/>
</g>
<defs>
<clipPath id="clip0_6022_5601">
<rect width="20" height="20" fill="white" transform="translate(0.5)"/>
</clipPath>
</defs>
</svg>
