<svg width="1120" height="401" viewBox="0 0 1120 401" fill="none" xmlns="http://www.w3.org/2000/svg">
<g clip-path="url(#clip0_5862_37)">
<rect y="0.192627" width="1120" height="400" rx="24" fill="#5235E8"/>
<g filter="url(#filter0_f_5862_37)">
<path d="M1056.98 1134.41L216.11 -19.0379L934.683 -287.754L1056.98 1134.41Z" fill="url(#paint0_linear_5862_37)" fill-opacity="0.7"/>
</g>
<g filter="url(#filter1_f_5862_37)">
<path d="M581.337 704.09L137.42 154.84L254.925 63.183L677.893 642.232L581.337 704.09Z" fill="url(#paint1_linear_5862_37)" fill-opacity="0.7"/>
</g>
<path d="M82.7891 102.103L83.0039 110.931H82.2031C81.8255 108.717 80.8945 106.94 79.4102 105.599C77.9388 104.245 76.3438 103.568 74.625 103.568C73.2969 103.568 72.2422 103.926 71.4609 104.642C70.6927 105.345 70.3086 106.159 70.3086 107.083C70.3086 107.669 70.4453 108.19 70.7188 108.646C71.0964 109.258 71.7018 109.863 72.5352 110.462C73.1471 110.892 74.5599 111.654 76.7734 112.747C79.8724 114.271 81.9622 115.71 83.043 117.064C84.1107 118.418 84.6445 119.967 84.6445 121.712C84.6445 123.926 83.7786 125.833 82.0469 127.435C80.3281 129.023 78.1406 129.818 75.4844 129.818C74.651 129.818 73.8633 129.733 73.1211 129.564C72.3789 129.394 71.4479 129.075 70.3281 128.607C69.7031 128.346 69.1888 128.216 68.7852 128.216C68.4466 128.216 68.0885 128.346 67.7109 128.607C67.3333 128.867 67.0273 129.264 66.793 129.798H66.0703V119.798H66.793C67.3659 122.611 68.4661 124.759 70.0938 126.243C71.7344 127.715 73.4987 128.45 75.3867 128.45C76.8451 128.45 78.0039 128.053 78.8633 127.259C79.7357 126.465 80.1719 125.54 80.1719 124.486C80.1719 123.861 80.0026 123.255 79.6641 122.669C79.3385 122.083 78.8372 121.53 78.1602 121.009C77.4831 120.475 76.2852 119.785 74.5664 118.939C72.1576 117.754 70.4258 116.745 69.3711 115.911C68.3164 115.078 67.5026 114.147 66.9297 113.118C66.3698 112.09 66.0898 110.957 66.0898 109.72C66.0898 107.611 66.8646 105.814 68.4141 104.329C69.9635 102.845 71.9167 102.103 74.2734 102.103C75.1328 102.103 75.9661 102.207 76.7734 102.415C77.3854 102.572 78.1276 102.865 79 103.294C79.8854 103.711 80.5039 103.919 80.8555 103.919C81.194 103.919 81.4609 103.815 81.6562 103.607C81.8516 103.398 82.0339 102.897 82.2031 102.103H82.7891ZM91.6078 102.083C92.4542 102.083 93.1703 102.383 93.7563 102.982C94.3422 103.568 94.6352 104.277 94.6352 105.111C94.6352 105.944 94.3357 106.654 93.7367 107.24C93.1508 107.825 92.4411 108.118 91.6078 108.118C90.7745 108.118 90.0648 107.825 89.4789 107.24C88.893 106.654 88.6 105.944 88.6 105.111C88.6 104.277 88.893 103.568 89.4789 102.982C90.0648 102.383 90.7745 102.083 91.6078 102.083ZM94.3422 110.931V125.404C94.3422 126.693 94.4919 127.519 94.7914 127.884C95.0909 128.236 95.6768 128.437 96.5492 128.49V129.193H86.6859V128.49C87.4932 128.463 88.0922 128.229 88.4828 127.786C88.7432 127.487 88.8734 126.693 88.8734 125.404V114.74C88.8734 113.45 88.7237 112.63 88.4242 112.279C88.1247 111.914 87.5453 111.706 86.6859 111.654V110.931H94.3422ZM109.665 111.146H115.817V113.294H112.321C112.959 113.932 113.402 114.512 113.649 115.032C113.962 115.736 114.118 116.471 114.118 117.24C114.118 118.542 113.753 119.674 113.024 120.638C112.308 121.588 111.325 122.337 110.075 122.884C108.838 123.418 107.738 123.685 106.774 123.685C106.696 123.685 105.915 123.652 104.43 123.587C103.845 123.587 103.35 123.782 102.946 124.173C102.555 124.551 102.36 125.006 102.36 125.54C102.36 126.009 102.536 126.393 102.888 126.693C103.252 126.992 103.838 127.142 104.645 127.142L108.024 127.103C110.759 127.103 112.64 127.402 113.669 128.001C115.14 128.835 115.876 130.117 115.876 131.849C115.876 132.956 115.537 133.958 114.86 134.857C114.183 135.768 113.291 136.439 112.184 136.868C110.505 137.506 108.571 137.825 106.384 137.825C104.743 137.825 103.246 137.663 101.891 137.337C100.537 137.025 99.5672 136.582 98.9813 136.009C98.3953 135.449 98.1023 134.857 98.1023 134.232C98.1023 133.633 98.3237 133.092 98.7664 132.611C99.2221 132.142 100.062 131.745 101.286 131.419C99.5932 130.586 98.7469 129.427 98.7469 127.943C98.7469 127.044 99.0919 126.172 99.782 125.325C100.472 124.479 101.566 123.743 103.063 123.118C101.318 122.48 100.055 121.641 99.2742 120.599C98.493 119.557 98.1023 118.353 98.1023 116.986C98.1023 115.202 98.8315 113.659 100.29 112.357C101.748 111.042 103.623 110.384 105.915 110.384C107.126 110.384 108.376 110.638 109.665 111.146ZM106.286 111.595C105.531 111.595 104.893 111.979 104.372 112.747C103.851 113.503 103.591 115.078 103.591 117.474C103.591 119.414 103.845 120.749 104.352 121.478C104.873 122.194 105.485 122.552 106.188 122.552C106.97 122.552 107.621 122.194 108.141 121.478C108.662 120.762 108.923 119.368 108.923 117.298C108.923 114.967 108.63 113.379 108.044 112.532C107.627 111.907 107.041 111.595 106.286 111.595ZM105.134 131.888C103.805 131.888 102.927 131.999 102.497 132.22C101.755 132.624 101.384 133.17 101.384 133.861C101.384 134.525 101.768 135.124 102.536 135.657C103.304 136.204 104.749 136.478 106.872 136.478C108.682 136.478 110.101 136.237 111.13 135.755C112.171 135.273 112.692 134.596 112.692 133.724C112.692 133.398 112.595 133.125 112.399 132.904C112.048 132.513 111.514 132.246 110.798 132.103C110.095 131.96 108.207 131.888 105.134 131.888ZM125.007 110.931V113.294C125.945 112.279 126.843 111.543 127.702 111.087C128.562 110.618 129.486 110.384 130.476 110.384C131.661 110.384 132.644 110.716 133.425 111.38C134.206 112.031 134.727 112.845 134.987 113.822C135.196 114.564 135.3 115.99 135.3 118.099V125.208C135.3 126.615 135.424 127.493 135.671 127.845C135.932 128.184 136.465 128.398 137.273 128.49V129.193H128.034V128.49C128.724 128.398 129.219 128.112 129.519 127.63C129.727 127.305 129.831 126.497 129.831 125.208V117.083C129.831 115.586 129.773 114.642 129.655 114.251C129.538 113.861 129.336 113.561 129.05 113.353C128.777 113.131 128.471 113.021 128.132 113.021C127.012 113.021 125.971 113.822 125.007 115.423V125.208C125.007 126.575 125.131 127.441 125.378 127.806C125.639 128.17 126.114 128.398 126.804 128.49V129.193H117.566V128.49C118.334 128.411 118.881 128.164 119.206 127.747C119.428 127.461 119.538 126.615 119.538 125.208V114.896C119.538 113.516 119.408 112.656 119.148 112.318C118.9 111.979 118.373 111.758 117.566 111.654V110.931H125.007ZM153.406 102.083C154.253 102.083 154.969 102.383 155.555 102.982C156.141 103.568 156.434 104.277 156.434 105.111C156.434 105.944 156.134 106.654 155.535 107.24C154.949 107.825 154.24 108.118 153.406 108.118C152.573 108.118 151.863 107.825 151.277 107.24C150.691 106.654 150.398 105.944 150.398 105.111C150.398 104.277 150.691 103.568 151.277 102.982C151.863 102.383 152.573 102.083 153.406 102.083ZM156.141 110.931V125.404C156.141 126.693 156.29 127.519 156.59 127.884C156.889 128.236 157.475 128.437 158.348 128.49V129.193H148.484V128.49C149.292 128.463 149.891 128.229 150.281 127.786C150.542 127.487 150.672 126.693 150.672 125.404V114.74C150.672 113.45 150.522 112.63 150.223 112.279C149.923 111.914 149.344 111.706 148.484 111.654V110.931H156.141ZM167.205 110.931V113.294C168.143 112.279 169.041 111.543 169.901 111.087C170.76 110.618 171.685 110.384 172.674 110.384C173.859 110.384 174.842 110.716 175.623 111.38C176.405 112.031 176.926 112.845 177.186 113.822C177.394 114.564 177.498 115.99 177.498 118.099V125.208C177.498 126.615 177.622 127.493 177.87 127.845C178.13 128.184 178.664 128.398 179.471 128.49V129.193H170.233V128.49C170.923 128.398 171.418 128.112 171.717 127.63C171.926 127.305 172.03 126.497 172.03 125.208V117.083C172.03 115.586 171.971 114.642 171.854 114.251C171.737 113.861 171.535 113.561 171.248 113.353C170.975 113.131 170.669 113.021 170.33 113.021C169.211 113.021 168.169 113.822 167.205 115.423V125.208C167.205 126.575 167.329 127.441 167.577 127.806C167.837 128.17 168.312 128.398 169.002 128.49V129.193H159.764V128.49C160.532 128.411 161.079 128.164 161.405 127.747C161.626 127.461 161.737 126.615 161.737 125.208V114.896C161.737 113.516 161.607 112.656 161.346 112.318C161.099 111.979 160.571 111.758 159.764 111.654V110.931H167.205ZM198.671 110.931V113.294C199.609 112.279 200.507 111.543 201.366 111.087C202.226 110.618 203.15 110.384 204.14 110.384C205.325 110.384 206.308 110.716 207.089 111.38C207.87 112.031 208.391 112.845 208.652 113.822C208.86 114.564 208.964 115.99 208.964 118.099V125.208C208.964 126.615 209.088 127.493 209.335 127.845C209.596 128.184 210.129 128.398 210.937 128.49V129.193H201.698V128.49C202.389 128.398 202.883 128.112 203.183 127.63C203.391 127.305 203.495 126.497 203.495 125.208V117.083C203.495 115.586 203.437 114.642 203.32 114.251C203.202 113.861 203.001 113.561 202.714 113.353C202.441 113.131 202.135 113.021 201.796 113.021C200.676 113.021 199.635 113.822 198.671 115.423V125.208C198.671 126.575 198.795 127.441 199.042 127.806C199.303 128.17 199.778 128.398 200.468 128.49V129.193H191.23V128.49C191.998 128.411 192.545 128.164 192.87 127.747C193.092 127.461 193.202 126.615 193.202 125.208V114.896C193.202 113.516 193.072 112.656 192.812 112.318C192.564 111.979 192.037 111.758 191.23 111.654V110.931H198.671ZM221.689 110.384C223.278 110.384 224.755 110.794 226.123 111.615C227.49 112.435 228.525 113.6 229.228 115.111C229.944 116.621 230.302 118.275 230.302 120.072C230.302 122.663 229.645 124.831 228.33 126.575C226.741 128.685 224.547 129.74 221.748 129.74C219 129.74 216.884 128.776 215.4 126.849C213.916 124.922 213.173 122.689 213.173 120.15C213.173 117.532 213.929 115.254 215.439 113.314C216.962 111.361 219.046 110.384 221.689 110.384ZM221.767 111.771C221.103 111.771 220.53 112.025 220.048 112.532C219.58 113.027 219.267 114.017 219.111 115.501C218.968 116.973 218.896 119.023 218.896 121.654C218.896 123.047 218.987 124.349 219.17 125.56C219.313 126.484 219.619 127.187 220.087 127.669C220.556 128.151 221.09 128.392 221.689 128.392C222.275 128.392 222.763 128.229 223.154 127.904C223.662 127.461 224 126.842 224.17 126.048C224.43 124.811 224.56 122.311 224.56 118.548C224.56 116.335 224.436 114.818 224.189 113.997C223.942 113.164 223.577 112.559 223.095 112.181C222.757 111.907 222.314 111.771 221.767 111.771ZM250.781 129.74L245.781 116.341L240.879 129.74H239.863L235 116.497C234.271 114.479 233.652 113.164 233.145 112.552C232.819 112.135 232.324 111.836 231.66 111.654V110.931H240.879V111.654C240.254 111.654 239.824 111.745 239.59 111.927C239.355 112.109 239.238 112.318 239.238 112.552C239.238 112.773 239.447 113.437 239.863 114.544L242.539 121.673L245.117 114.544L244.922 114.075C244.531 113.099 244.186 112.48 243.887 112.22C243.6 111.947 243.151 111.758 242.539 111.654V110.931H251.895V111.654C251.165 111.693 250.703 111.797 250.508 111.966C250.312 112.122 250.215 112.35 250.215 112.65C250.215 112.936 250.404 113.568 250.781 114.544L253.359 121.673L255.703 115.111C256.042 114.173 256.211 113.535 256.211 113.197C256.211 112.689 256.087 112.318 255.84 112.083C255.592 111.849 255.111 111.706 254.395 111.654V110.931H259.805V111.654C259.206 111.732 258.73 111.947 258.379 112.298C258.027 112.637 257.572 113.613 257.012 115.228L251.895 129.74H250.781Z" fill="white"/>
<g clip-path="url(#clip1_5862_37)">
<g clip-path="url(#clip2_5862_37)">
<rect x="516" y="64.1926" width="320" height="692.907" rx="40" fill="white"/>
<rect x="57" y="91.1926" width="904" height="382" rx="8" fill="white"/>
<path d="M565.27 122.079C567.801 121.986 569.855 122.724 571.434 124.294C573.02 125.865 573.812 127.829 573.812 130.189C573.812 132.204 573.223 133.978 572.043 135.509C570.48 137.54 568.273 138.556 565.422 138.556C562.562 138.556 560.352 137.587 558.789 135.65C557.555 134.118 556.938 132.302 556.938 130.2C556.938 127.841 557.738 125.876 559.34 124.306C560.949 122.728 562.926 121.986 565.27 122.079ZM565.41 122.829C563.957 122.829 562.852 123.572 562.094 125.056C561.477 126.275 561.168 128.025 561.168 130.306C561.168 133.017 561.645 135.021 562.598 136.318C563.262 137.224 564.191 137.677 565.387 137.677C566.191 137.677 566.863 137.482 567.402 137.091C568.09 136.591 568.625 135.794 569.008 134.7C569.391 133.599 569.582 132.165 569.582 130.4C569.582 128.298 569.387 126.728 568.996 125.689C568.605 124.642 568.105 123.904 567.496 123.474C566.895 123.044 566.199 122.829 565.41 122.829ZM580.194 138.521L576.502 130.025C576.057 129.001 575.709 128.353 575.459 128.079C575.28 127.876 575.014 127.74 574.662 127.669V127.236H580.487V127.669C580.119 127.669 579.869 127.736 579.737 127.868C579.549 128.04 579.455 128.243 579.455 128.478C579.455 128.767 579.627 129.31 579.971 130.107L581.776 134.22L583.217 130.669C583.631 129.654 583.838 128.935 583.838 128.513C583.838 128.271 583.748 128.075 583.569 127.927C583.397 127.771 583.088 127.685 582.643 127.669V127.236H586.229V127.669C585.885 127.716 585.604 127.845 585.385 128.056C585.166 128.267 584.838 128.888 584.401 129.919L580.744 138.521H580.194ZM596.29 132.322H590.278C590.348 133.775 590.735 134.923 591.438 135.767C591.977 136.415 592.625 136.74 593.383 136.74C593.852 136.74 594.278 136.611 594.661 136.353C595.043 136.087 595.454 135.615 595.891 134.935L596.29 135.193C595.696 136.404 595.04 137.263 594.321 137.771C593.602 138.271 592.77 138.521 591.825 138.521C590.2 138.521 588.969 137.896 588.133 136.646C587.461 135.638 587.125 134.388 587.125 132.896C587.125 131.068 587.618 129.615 588.602 128.536C589.594 127.45 590.754 126.907 592.083 126.907C593.192 126.907 594.153 127.365 594.965 128.279C595.786 129.185 596.227 130.532 596.29 132.322ZM593.407 131.536C593.407 130.279 593.336 129.415 593.196 128.947C593.063 128.478 592.852 128.122 592.563 127.88C592.399 127.74 592.18 127.669 591.907 127.669C591.5 127.669 591.168 127.868 590.911 128.267C590.45 128.962 590.219 129.915 590.219 131.126V131.536H593.407ZM601.979 127.236V129.72C602.706 128.587 603.342 127.837 603.889 127.47C604.436 127.095 604.964 126.907 605.471 126.907C605.909 126.907 606.257 127.044 606.514 127.318C606.78 127.583 606.913 127.962 606.913 128.454C606.913 128.978 606.784 129.384 606.526 129.673C606.276 129.962 605.971 130.107 605.612 130.107C605.198 130.107 604.839 129.974 604.534 129.708C604.229 129.443 604.05 129.294 603.995 129.263C603.917 129.216 603.827 129.193 603.725 129.193C603.499 129.193 603.284 129.279 603.081 129.45C602.76 129.716 602.518 130.095 602.354 130.587C602.104 131.345 601.979 132.181 601.979 133.095V135.615L601.991 136.271C601.991 136.716 602.018 137.001 602.073 137.126C602.167 137.337 602.303 137.493 602.483 137.595C602.671 137.689 602.983 137.747 603.421 137.771V138.193H597.503V137.771C597.979 137.732 598.3 137.603 598.464 137.384C598.635 137.157 598.721 136.568 598.721 135.615V129.556C598.721 128.931 598.69 128.532 598.628 128.361C598.55 128.142 598.436 127.982 598.288 127.88C598.139 127.779 597.878 127.708 597.503 127.669V127.236H601.979ZM613.903 136.575C612.567 137.755 611.368 138.345 610.306 138.345C609.681 138.345 609.161 138.142 608.747 137.736C608.333 137.322 608.126 136.806 608.126 136.189C608.126 135.353 608.485 134.603 609.204 133.939C609.923 133.267 611.489 132.376 613.903 131.267V130.165C613.903 129.337 613.856 128.818 613.763 128.607C613.677 128.388 613.509 128.2 613.259 128.044C613.009 127.88 612.728 127.798 612.415 127.798C611.907 127.798 611.489 127.911 611.161 128.138C610.958 128.279 610.856 128.443 610.856 128.63C610.856 128.794 610.966 128.997 611.185 129.24C611.481 129.575 611.63 129.9 611.63 130.212C611.63 130.595 611.485 130.923 611.196 131.197C610.915 131.462 610.544 131.595 610.083 131.595C609.591 131.595 609.177 131.447 608.841 131.15C608.513 130.853 608.349 130.505 608.349 130.107C608.349 129.544 608.571 129.009 609.017 128.501C609.462 127.986 610.083 127.591 610.88 127.318C611.677 127.044 612.505 126.907 613.364 126.907C614.403 126.907 615.224 127.13 615.825 127.575C616.435 128.013 616.829 128.49 617.009 129.005C617.118 129.333 617.173 130.087 617.173 131.267V135.521C617.173 136.021 617.192 136.337 617.231 136.47C617.27 136.595 617.329 136.689 617.407 136.751C617.485 136.814 617.575 136.845 617.677 136.845C617.88 136.845 618.087 136.7 618.298 136.411L618.649 136.693C618.259 137.271 617.853 137.693 617.431 137.958C617.017 138.216 616.544 138.345 616.013 138.345C615.388 138.345 614.899 138.2 614.548 137.911C614.196 137.615 613.981 137.169 613.903 136.575ZM613.903 135.72V132.052C612.958 132.607 612.255 133.2 611.794 133.833C611.489 134.255 611.337 134.681 611.337 135.111C611.337 135.47 611.466 135.786 611.724 136.06C611.919 136.271 612.192 136.376 612.544 136.376C612.935 136.376 613.388 136.157 613.903 135.72ZM623.905 122.302V135.919C623.905 136.693 623.995 137.189 624.175 137.407C624.355 137.618 624.706 137.74 625.23 137.771V138.193H619.312V137.771C619.796 137.755 620.155 137.615 620.39 137.349C620.546 137.169 620.624 136.693 620.624 135.919V124.575C620.624 123.81 620.534 123.322 620.355 123.111C620.175 122.892 619.827 122.767 619.312 122.736V122.302H623.905ZM630.345 122.302V135.919C630.345 136.693 630.435 137.189 630.615 137.407C630.794 137.618 631.146 137.74 631.669 137.771V138.193H625.751V137.771C626.236 137.755 626.595 137.615 626.83 137.349C626.986 137.169 627.064 136.693 627.064 135.919V124.575C627.064 123.81 626.974 123.322 626.794 123.111C626.615 122.892 626.267 122.767 625.751 122.736V122.302H630.345Z" fill="#131316"/>
<path d="M561.44 157.457C562.496 157.457 563.344 157.825 563.984 158.561C564.635 159.297 564.96 160.406 564.96 161.889C564.96 163.35 564.635 164.459 563.984 165.217C563.344 165.974 562.491 166.353 561.424 166.353C560.763 166.353 560.213 166.23 559.776 165.985C559.349 165.729 559.013 165.435 558.768 165.105H558.672C558.693 165.286 558.715 165.515 558.736 165.793C558.757 166.07 558.768 166.31 558.768 166.513V170.033H557.36V157.617H558.512L558.704 158.785H558.768C559.024 158.411 559.36 158.097 559.776 157.841C560.192 157.585 560.747 157.457 561.44 157.457ZM561.184 158.641C560.309 158.641 559.691 158.886 559.328 159.377C558.976 159.867 558.789 160.614 558.768 161.617V161.889C558.768 162.945 558.939 163.761 559.28 164.337C559.632 164.902 560.277 165.185 561.216 165.185C561.739 165.185 562.165 165.041 562.496 164.753C562.837 164.465 563.088 164.075 563.248 163.585C563.419 163.083 563.504 162.513 563.504 161.873C563.504 160.891 563.312 160.107 562.928 159.521C562.555 158.934 561.973 158.641 561.184 158.641ZM570.596 157.457C571.332 157.457 571.961 157.617 572.484 157.937C573.017 158.257 573.422 158.71 573.7 159.297C573.988 159.873 574.132 160.55 574.132 161.329V162.177H568.26C568.281 163.147 568.526 163.889 568.996 164.401C569.476 164.902 570.142 165.153 570.996 165.153C571.54 165.153 572.02 165.105 572.436 165.009C572.862 164.902 573.3 164.753 573.748 164.561V165.793C573.31 165.985 572.878 166.123 572.452 166.209C572.025 166.305 571.518 166.353 570.932 166.353C570.121 166.353 569.401 166.187 568.772 165.857C568.153 165.526 567.668 165.035 567.316 164.385C566.974 163.723 566.804 162.918 566.804 161.969C566.804 161.03 566.958 160.225 567.268 159.553C567.588 158.881 568.03 158.363 568.596 158.001C569.172 157.638 569.838 157.457 570.596 157.457ZM570.58 158.609C569.908 158.609 569.374 158.827 568.98 159.265C568.596 159.691 568.366 160.289 568.292 161.057H572.66C572.649 160.331 572.478 159.745 572.148 159.297C571.817 158.838 571.294 158.609 570.58 158.609ZM580.395 157.457C580.555 157.457 580.726 157.467 580.907 157.489C581.099 157.499 581.264 157.521 581.403 157.553L581.227 158.849C581.088 158.817 580.934 158.79 580.763 158.769C580.603 158.747 580.448 158.737 580.299 158.737C579.862 158.737 579.451 158.859 579.067 159.105C578.683 159.339 578.374 159.675 578.139 160.113C577.915 160.539 577.803 161.041 577.803 161.617V166.193H576.395V157.617H577.547L577.707 159.185H577.771C578.048 158.715 578.406 158.31 578.843 157.969C579.28 157.627 579.798 157.457 580.395 157.457ZM587.036 158.705H584.876V166.193H583.468V158.705H581.964V158.049L583.468 157.569V157.073C583.468 155.963 583.714 155.169 584.204 154.689C584.695 154.198 585.378 153.953 586.252 153.953C586.594 153.953 586.903 153.985 587.18 154.049C587.468 154.102 587.714 154.166 587.916 154.241L587.548 155.345C587.378 155.291 587.18 155.238 586.956 155.185C586.732 155.131 586.503 155.105 586.268 155.105C585.799 155.105 585.447 155.265 585.212 155.585C584.988 155.894 584.876 156.385 584.876 157.057V157.617H587.036V158.705ZM596.12 161.889C596.12 163.307 595.758 164.406 595.032 165.185C594.318 165.963 593.347 166.353 592.12 166.353C591.363 166.353 590.686 166.182 590.088 165.841C589.502 165.489 589.038 164.982 588.696 164.321C588.355 163.649 588.184 162.838 588.184 161.889C588.184 160.47 588.542 159.377 589.256 158.609C589.971 157.841 590.942 157.457 592.168 157.457C592.947 157.457 593.63 157.633 594.216 157.985C594.814 158.326 595.278 158.827 595.608 159.489C595.95 160.139 596.12 160.939 596.12 161.889ZM589.64 161.889C589.64 162.902 589.838 163.707 590.232 164.305C590.638 164.891 591.278 165.185 592.152 165.185C593.016 165.185 593.651 164.891 594.056 164.305C594.462 163.707 594.664 162.902 594.664 161.889C594.664 160.875 594.462 160.081 594.056 159.505C593.651 158.929 593.011 158.641 592.136 158.641C591.262 158.641 590.627 158.929 590.232 159.505C589.838 160.081 589.64 160.875 589.64 161.889ZM602.432 157.457C602.592 157.457 602.763 157.467 602.944 157.489C603.136 157.499 603.301 157.521 603.44 157.553L603.264 158.849C603.125 158.817 602.971 158.79 602.8 158.769C602.64 158.747 602.485 158.737 602.336 158.737C601.899 158.737 601.488 158.859 601.104 159.105C600.72 159.339 600.411 159.675 600.176 160.113C599.952 160.539 599.84 161.041 599.84 161.617V166.193H598.432V157.617H599.584L599.744 159.185H599.808C600.085 158.715 600.443 158.31 600.88 157.969C601.317 157.627 601.835 157.457 602.432 157.457ZM614.529 157.457C615.5 157.457 616.225 157.707 616.705 158.209C617.185 158.699 617.425 159.499 617.425 160.609V166.193H616.033V160.673C616.033 159.318 615.452 158.641 614.289 158.641C613.457 158.641 612.86 158.881 612.497 159.361C612.145 159.841 611.969 160.539 611.969 161.457V166.193H610.577V160.673C610.577 159.318 609.991 158.641 608.817 158.641C607.953 158.641 607.356 158.907 607.025 159.441C606.695 159.974 606.529 160.742 606.529 161.745V166.193H605.121V157.617H606.257L606.465 158.785H606.545C606.812 158.337 607.169 158.006 607.617 157.793C608.076 157.569 608.561 157.457 609.073 157.457C610.417 157.457 611.292 157.937 611.697 158.897H611.777C612.065 158.406 612.455 158.043 612.945 157.809C613.447 157.574 613.975 157.457 614.529 157.457ZM623.402 157.473C624.448 157.473 625.221 157.702 625.722 158.161C626.224 158.619 626.474 159.35 626.474 160.353V166.193H625.45L625.178 164.977H625.114C624.741 165.446 624.346 165.793 623.93 166.017C623.525 166.241 622.96 166.353 622.234 166.353C621.456 166.353 620.81 166.15 620.298 165.745C619.786 165.329 619.53 164.683 619.53 163.809C619.53 162.955 619.866 162.299 620.538 161.841C621.21 161.371 622.245 161.115 623.642 161.073L625.098 161.025V160.513C625.098 159.798 624.944 159.302 624.634 159.025C624.325 158.747 623.888 158.609 623.322 158.609C622.874 158.609 622.448 158.678 622.042 158.817C621.637 158.945 621.258 159.094 620.906 159.265L620.474 158.209C620.848 158.006 621.29 157.835 621.802 157.697C622.314 157.547 622.848 157.473 623.402 157.473ZM623.818 162.049C622.752 162.091 622.01 162.262 621.594 162.561C621.189 162.859 620.986 163.281 620.986 163.825C620.986 164.305 621.13 164.657 621.418 164.881C621.717 165.105 622.096 165.217 622.554 165.217C623.28 165.217 623.882 165.019 624.362 164.625C624.842 164.219 625.082 163.601 625.082 162.769V162.001L623.818 162.049ZM633.331 157.457C634.355 157.457 635.128 157.707 635.651 158.209C636.174 158.699 636.435 159.499 636.435 160.609V166.193H635.043V160.705C635.043 159.329 634.403 158.641 633.123 158.641C632.174 158.641 631.518 158.907 631.155 159.441C630.792 159.974 630.611 160.742 630.611 161.745V166.193H629.203V157.617H630.339L630.547 158.785H630.627C630.904 158.337 631.288 158.006 631.779 157.793C632.27 157.569 632.787 157.457 633.331 157.457ZM642.614 166.353C641.856 166.353 641.179 166.198 640.582 165.889C639.995 165.579 639.531 165.099 639.19 164.449C638.859 163.798 638.694 162.966 638.694 161.953C638.694 160.897 638.87 160.038 639.222 159.377C639.574 158.715 640.048 158.23 640.646 157.921C641.254 157.611 641.942 157.457 642.71 157.457C643.147 157.457 643.568 157.505 643.974 157.601C644.379 157.686 644.71 157.793 644.966 157.921L644.534 159.089C644.278 158.993 643.979 158.902 643.638 158.817C643.296 158.731 642.976 158.689 642.678 158.689C640.992 158.689 640.15 159.771 640.15 161.937C640.15 162.971 640.352 163.766 640.758 164.321C641.174 164.865 641.787 165.137 642.598 165.137C643.067 165.137 643.478 165.089 643.83 164.993C644.192 164.897 644.523 164.779 644.822 164.641V165.889C644.534 166.038 644.214 166.15 643.862 166.225C643.52 166.31 643.104 166.353 642.614 166.353ZM650.253 157.457C650.989 157.457 651.619 157.617 652.141 157.937C652.675 158.257 653.08 158.71 653.357 159.297C653.645 159.873 653.789 160.55 653.789 161.329V162.177H647.917C647.939 163.147 648.184 163.889 648.653 164.401C649.133 164.902 649.8 165.153 650.653 165.153C651.197 165.153 651.677 165.105 652.093 165.009C652.52 164.902 652.957 164.753 653.405 164.561V165.793C652.968 165.985 652.536 166.123 652.109 166.209C651.683 166.305 651.176 166.353 650.589 166.353C649.779 166.353 649.059 166.187 648.429 165.857C647.811 165.526 647.325 165.035 646.973 164.385C646.632 163.723 646.461 162.918 646.461 161.969C646.461 161.03 646.616 160.225 646.925 159.553C647.245 158.881 647.688 158.363 648.253 158.001C648.829 157.638 649.496 157.457 650.253 157.457ZM650.237 158.609C649.565 158.609 649.032 158.827 648.637 159.265C648.253 159.691 648.024 160.289 647.949 161.057H652.317C652.307 160.331 652.136 159.745 651.805 159.297C651.475 158.838 650.952 158.609 650.237 158.609Z" fill="#717184"/>
<path d="M694.528 157.617V166.193H693.376L693.168 165.057H693.104C692.827 165.505 692.443 165.835 691.952 166.049C691.461 166.251 690.939 166.353 690.384 166.353C689.349 166.353 688.571 166.107 688.048 165.617C687.525 165.115 687.264 164.321 687.264 163.233V157.617H688.688V163.137C688.688 164.502 689.323 165.185 690.592 165.185C691.541 165.185 692.197 164.918 692.56 164.385C692.933 163.851 693.12 163.083 693.12 162.081V157.617H694.528ZM701.411 157.457C702.467 157.457 703.315 157.825 703.955 158.561C704.605 159.297 704.931 160.406 704.931 161.889C704.931 163.35 704.605 164.459 703.955 165.217C703.315 165.974 702.461 166.353 701.395 166.353C700.733 166.353 700.184 166.23 699.747 165.985C699.32 165.729 698.984 165.435 698.739 165.105H698.643C698.664 165.286 698.685 165.515 698.707 165.793C698.728 166.07 698.739 166.31 698.739 166.513V170.033H697.331V157.617H698.483L698.675 158.785H698.739C698.995 158.411 699.331 158.097 699.747 157.841C700.163 157.585 700.717 157.457 701.411 157.457ZM701.155 158.641C700.28 158.641 699.661 158.886 699.299 159.377C698.947 159.867 698.76 160.614 698.739 161.617V161.889C698.739 162.945 698.909 163.761 699.251 164.337C699.603 164.902 700.248 165.185 701.187 165.185C701.709 165.185 702.136 165.041 702.467 164.753C702.808 164.465 703.059 164.075 703.219 163.585C703.389 163.083 703.475 162.513 703.475 161.873C703.475 160.891 703.283 160.107 702.899 159.521C702.525 158.934 701.944 158.641 701.155 158.641ZM710.294 166.353C709.228 166.353 708.374 165.985 707.734 165.249C707.094 164.502 706.774 163.393 706.774 161.921C706.774 160.449 707.094 159.339 707.734 158.593C708.385 157.835 709.244 157.457 710.31 157.457C710.972 157.457 711.51 157.579 711.926 157.825C712.353 158.07 712.7 158.369 712.966 158.721H713.062C713.052 158.582 713.03 158.379 712.998 158.113C712.977 157.835 712.966 157.617 712.966 157.457V154.033H714.374V166.193H713.238L713.03 165.041H712.966C712.71 165.403 712.369 165.713 711.942 165.969C711.516 166.225 710.966 166.353 710.294 166.353ZM710.518 165.185C711.425 165.185 712.06 164.939 712.422 164.449C712.796 163.947 712.982 163.195 712.982 162.193V161.937C712.982 160.87 712.806 160.054 712.454 159.489C712.102 158.913 711.452 158.625 710.502 158.625C709.745 158.625 709.174 158.929 708.79 159.537C708.417 160.134 708.23 160.939 708.23 161.953C708.23 162.977 708.417 163.771 708.79 164.337C709.174 164.902 709.75 165.185 710.518 165.185ZM720.426 157.473C721.471 157.473 722.245 157.702 722.746 158.161C723.247 158.619 723.498 159.35 723.498 160.353V166.193H722.474L722.202 164.977H722.138C721.765 165.446 721.37 165.793 720.954 166.017C720.549 166.241 719.983 166.353 719.258 166.353C718.479 166.353 717.834 166.15 717.322 165.745C716.81 165.329 716.554 164.683 716.554 163.809C716.554 162.955 716.89 162.299 717.562 161.841C718.234 161.371 719.269 161.115 720.666 161.073L722.122 161.025V160.513C722.122 159.798 721.967 159.302 721.658 159.025C721.349 158.747 720.911 158.609 720.346 158.609C719.898 158.609 719.471 158.678 719.066 158.817C718.661 158.945 718.282 159.094 717.93 159.265L717.498 158.209C717.871 158.006 718.314 157.835 718.826 157.697C719.338 157.547 719.871 157.473 720.426 157.473ZM720.842 162.049C719.775 162.091 719.034 162.262 718.618 162.561C718.213 162.859 718.01 163.281 718.01 163.825C718.01 164.305 718.154 164.657 718.442 164.881C718.741 165.105 719.119 165.217 719.578 165.217C720.303 165.217 720.906 165.019 721.386 164.625C721.866 164.219 722.106 163.601 722.106 162.769V162.001L720.842 162.049ZM729.091 165.201C729.304 165.201 729.523 165.185 729.747 165.153C729.971 165.11 730.152 165.067 730.291 165.025V166.097C730.142 166.171 729.928 166.23 729.651 166.273C729.374 166.326 729.107 166.353 728.851 166.353C728.403 166.353 727.987 166.278 727.603 166.129C727.23 165.969 726.926 165.697 726.691 165.313C726.456 164.929 726.339 164.39 726.339 163.697V158.705H725.123V158.033L726.355 157.473L726.915 155.649H727.747V157.617H730.227V158.705H727.747V163.665C727.747 164.187 727.87 164.577 728.115 164.833C728.371 165.078 728.696 165.201 729.091 165.201ZM735.4 157.457C736.136 157.457 736.765 157.617 737.288 157.937C737.821 158.257 738.227 158.71 738.504 159.297C738.792 159.873 738.936 160.55 738.936 161.329V162.177H733.064C733.085 163.147 733.331 163.889 733.8 164.401C734.28 164.902 734.947 165.153 735.8 165.153C736.344 165.153 736.824 165.105 737.24 165.009C737.667 164.902 738.104 164.753 738.552 164.561V165.793C738.115 165.985 737.683 166.123 737.256 166.209C736.829 166.305 736.323 166.353 735.736 166.353C734.925 166.353 734.205 166.187 733.576 165.857C732.957 165.526 732.472 165.035 732.12 164.385C731.779 163.723 731.608 162.918 731.608 161.969C731.608 161.03 731.763 160.225 732.072 159.553C732.392 158.881 732.835 158.363 733.4 158.001C733.976 157.638 734.643 157.457 735.4 157.457ZM735.384 158.609C734.712 158.609 734.179 158.827 733.784 159.265C733.4 159.691 733.171 160.289 733.096 161.057H737.464C737.453 160.331 737.283 159.745 736.952 159.297C736.621 158.838 736.099 158.609 735.384 158.609ZM744.239 166.353C743.173 166.353 742.319 165.985 741.679 165.249C741.039 164.502 740.719 163.393 740.719 161.921C740.719 160.449 741.039 159.339 741.679 158.593C742.33 157.835 743.189 157.457 744.255 157.457C744.917 157.457 745.455 157.579 745.871 157.825C746.298 158.07 746.645 158.369 746.911 158.721H747.007C746.997 158.582 746.975 158.379 746.943 158.113C746.922 157.835 746.911 157.617 746.911 157.457V154.033H748.319V166.193H747.183L746.975 165.041H746.911C746.655 165.403 746.314 165.713 745.887 165.969C745.461 166.225 744.911 166.353 744.239 166.353ZM744.463 165.185C745.37 165.185 746.005 164.939 746.367 164.449C746.741 163.947 746.927 163.195 746.927 162.193V161.937C746.927 160.87 746.751 160.054 746.399 159.489C746.047 158.913 745.397 158.625 744.447 158.625C743.69 158.625 743.119 158.929 742.735 159.537C742.362 160.134 742.175 160.939 742.175 161.953C742.175 162.977 742.362 163.771 742.735 164.337C743.119 164.902 743.695 165.185 744.463 165.185ZM750.403 161.809C750.403 160.507 750.59 159.254 750.963 158.049C751.347 156.833 751.944 155.739 752.755 154.769H754.083C753.336 155.771 752.771 156.875 752.387 158.081C752.014 159.286 751.827 160.523 751.827 161.793C751.827 163.03 752.014 164.246 752.387 165.441C752.771 166.625 753.331 167.718 754.067 168.721H752.755C751.944 167.782 751.347 166.721 750.963 165.537C750.59 164.342 750.403 163.099 750.403 161.809ZM760.32 166.193H758.944V158.209C758.944 157.75 758.949 157.382 758.96 157.105C758.971 156.827 758.987 156.539 759.008 156.241C758.837 156.411 758.683 156.555 758.544 156.673C758.405 156.79 758.229 156.939 758.016 157.121L756.8 158.113L756.064 157.169L759.152 154.769H760.32V166.193ZM772.244 160.465C772.244 161.691 772.116 162.747 771.86 163.633C771.604 164.507 771.199 165.179 770.644 165.649C770.09 166.118 769.354 166.353 768.436 166.353C767.146 166.353 766.191 165.835 765.572 164.801C764.964 163.755 764.66 162.31 764.66 160.465C764.66 159.227 764.783 158.171 765.028 157.297C765.284 156.422 765.69 155.755 766.244 155.297C766.799 154.827 767.53 154.593 768.436 154.593C769.716 154.593 770.671 155.11 771.3 156.145C771.93 157.169 772.244 158.609 772.244 160.465ZM766.068 160.465C766.068 162.033 766.244 163.206 766.596 163.985C766.959 164.763 767.572 165.153 768.436 165.153C769.29 165.153 769.898 164.769 770.26 164.001C770.634 163.222 770.82 162.043 770.82 160.465C770.82 158.907 770.634 157.739 770.26 156.961C769.898 156.182 769.29 155.793 768.436 155.793C767.572 155.793 766.959 156.182 766.596 156.961C766.244 157.739 766.068 158.907 766.068 160.465ZM775.881 157.601C775.881 158.027 775.854 158.427 775.801 158.801H775.897C776.174 158.363 776.547 158.033 777.017 157.809C777.497 157.585 778.014 157.473 778.569 157.473C779.614 157.473 780.398 157.723 780.921 158.225C781.443 158.715 781.705 159.51 781.705 160.609V166.193H780.313V160.705C780.313 159.329 779.673 158.641 778.393 158.641C777.433 158.641 776.771 158.913 776.409 159.457C776.057 159.99 775.881 160.758 775.881 161.761V166.193H774.473V154.033H775.881V157.601ZM787.243 161.809C787.243 163.099 787.051 164.342 786.667 165.537C786.294 166.721 785.702 167.782 784.891 168.721H783.579C784.315 167.718 784.87 166.625 785.243 165.441C785.627 164.246 785.819 163.03 785.819 161.793C785.819 160.523 785.627 159.286 785.243 158.081C784.87 156.875 784.31 155.771 783.563 154.769H784.891C785.702 155.739 786.294 156.833 786.667 158.049C787.051 159.254 787.243 160.507 787.243 161.809Z" fill="#717184"/>
<rect x="827" y="285.193" width="8" height="54" rx="4" fill="#11CF8B"/>
<rect x="830" y="277.193" width="2" height="80" rx="1" fill="#11CF8B"/>
</g>
<rect x="520" y="68.1926" width="312" height="684.907" rx="36" stroke="#0E0637" stroke-width="8"/>
<rect x="916" y="64.1926" width="140" height="140" rx="24" fill="url(#paint2_linear_5862_37)"/>
<rect x="924.518" y="72.7097" width="122.966" height="122.966" rx="16" fill="white"/>
<g clip-path="url(#clip3_5862_37)">
<path d="M943.681 91.8735L943.681 120.153H971.96L971.96 91.8735H943.681ZM965.306 113.499H950.335L950.335 98.5275H965.306L965.306 113.499Z" fill="#131316"/>
<path d="M961.147 102.686H954.493L954.493 109.34H961.147L961.147 102.686Z" fill="#131316"/>
<path d="M1000.57 91.8735L1000.57 120.153H1028.85L1028.85 91.8735H1000.57ZM1022.2 113.499H1007.23L1007.23 98.5275H1022.2L1022.2 113.499Z" fill="#131316"/>
<path d="M1018.04 102.686H1011.38L1011.38 109.34H1018.04L1018.04 102.686Z" fill="#131316"/>
<path d="M943.681 148.765L943.681 177.045H971.96L971.96 148.765H943.681ZM965.306 170.391H950.335L950.335 155.419H965.306L965.306 170.391Z" fill="#131316"/>
<path d="M961.147 159.578H954.493L954.493 166.232H961.147L961.147 159.578Z" fill="#131316"/>
<path d="M956.989 124.644H950.335L950.335 131.298H956.989L956.989 124.644Z" fill="#131316"/>
<path d="M963.642 137.952L963.642 131.298H956.988L956.988 137.952H963.476L963.476 144.606H970.13L970.13 137.952H963.642Z" fill="#131316"/>
<path d="M996.913 104.682H990.259L990.259 111.336H996.913L996.913 104.682Z" fill="#131316"/>
<path d="M983.604 98.5276H976.95L976.95 111.337H983.604L983.604 98.5276Z" fill="#131316"/>
<path d="M990.258 91.8735H983.604L983.604 98.5275H990.258L990.258 91.8735Z" fill="#131316"/>
<path d="M983.604 111.336L983.604 117.99H976.95L976.95 124.644H990.258L990.258 111.336H983.604Z" fill="#131316"/>
<path d="M990.258 150.928L990.258 144.44H983.604L983.604 131.298H976.95L976.95 144.606H983.604L983.604 151.094H990.258L990.258 157.582H1003.57L1003.57 150.928H990.258Z" fill="#131316"/>
<path d="M996.913 124.644H990.259L990.259 137.952H996.913L996.913 124.644Z" fill="#131316"/>
<path d="M1022.2 131.132L1022.2 124.644H1010.05L1010.05 131.298H1003.57L1003.57 137.952H1010.22L1010.22 144.44H1028.85L1028.85 131.132H1022.2ZM1022.2 137.786H1010.22L1010.22 131.298H1022.2L1022.2 137.786Z" fill="#131316"/>
<path d="M1028.85 150.928H1022.2L1022.2 164.236H1028.85L1028.85 150.928Z" fill="#131316"/>
<path d="M1003.57 137.952H996.912L996.912 144.606H1003.57L1003.57 137.952Z" fill="#131316"/>
<path d="M1010.22 157.582H1003.57L1003.57 164.236H1010.22L1010.22 157.582Z" fill="#131316"/>
<path d="M1016.87 150.928H1010.22L1010.22 157.582H1016.87L1016.87 150.928Z" fill="#131316"/>
<path d="M1010.22 164.236L1010.22 177.045H1016.87L1016.87 170.89H1022.2L1022.2 164.236H1010.22Z" fill="#131316"/>
<path d="M983.604 151.094H976.95L976.95 163.737H983.604L983.604 151.094Z" fill="#131316"/>
<path d="M996.912 170.391L996.912 163.737H983.604L983.604 177.045H990.258L990.258 170.391H996.746L996.746 177.045H1003.4L1003.4 170.391H996.912Z" fill="#131316"/>
<path d="M976.951 124.644H963.643L963.643 131.298H976.951L976.951 124.644Z" fill="#131316"/>
<path d="M950.335 131.298H943.681L943.681 144.606H950.335L950.335 131.298Z" fill="#131316"/>
</g>
<path d="M986.707 219.486C986.317 219.095 985.683 219.095 985.293 219.486L978.929 225.849C978.538 226.24 978.538 226.873 978.929 227.264C979.319 227.654 979.953 227.654 980.343 227.264L986 221.607L991.657 227.264C992.047 227.654 992.681 227.654 993.071 227.264C993.462 226.873 993.462 226.24 993.071 225.849L986.707 219.486ZM987 252.193L987 238.476H985L985 252.193H987ZM987 238.476L987 220.193H985L985 238.476H987Z" fill="url(#paint3_linear_5862_37)"/>
<path d="M937.896 273.711L937.971 276.801H937.69C937.558 276.026 937.232 275.404 936.713 274.935C936.198 274.461 935.64 274.224 935.038 274.224C934.573 274.224 934.204 274.349 933.931 274.6C933.662 274.846 933.527 275.131 933.527 275.454C933.527 275.659 933.575 275.842 933.671 276.001C933.803 276.215 934.015 276.427 934.307 276.637C934.521 276.787 935.015 277.054 935.79 277.437C936.875 277.97 937.606 278.474 937.984 278.948C938.358 279.421 938.545 279.964 938.545 280.574C938.545 281.349 938.242 282.017 937.636 282.577C937.034 283.133 936.269 283.411 935.339 283.411C935.047 283.411 934.771 283.382 934.512 283.323C934.252 283.263 933.926 283.152 933.534 282.988C933.315 282.896 933.135 282.851 932.994 282.851C932.876 282.851 932.75 282.896 932.618 282.988C932.486 283.079 932.379 283.218 932.297 283.405H932.044V279.905H932.297C932.497 280.889 932.882 281.641 933.452 282.16C934.026 282.675 934.644 282.933 935.305 282.933C935.815 282.933 936.221 282.794 936.521 282.516C936.827 282.238 936.979 281.914 936.979 281.545C936.979 281.326 936.92 281.115 936.802 280.909C936.688 280.704 936.512 280.511 936.275 280.328C936.038 280.142 935.619 279.9 935.018 279.604C934.174 279.189 933.568 278.836 933.199 278.544C932.83 278.253 932.545 277.927 932.345 277.567C932.149 277.207 932.051 276.81 932.051 276.377C932.051 275.639 932.322 275.01 932.864 274.49C933.407 273.971 934.09 273.711 934.915 273.711C935.216 273.711 935.507 273.748 935.79 273.821C936.004 273.875 936.264 273.978 936.569 274.128C936.879 274.274 937.096 274.347 937.219 274.347C937.337 274.347 937.431 274.31 937.499 274.238C937.567 274.165 937.631 273.989 937.69 273.711H937.896ZM944.8 281.545L945.012 281.709C944.711 282.274 944.335 282.696 943.884 282.974C943.437 283.247 942.961 283.384 942.455 283.384C941.603 283.384 940.922 283.063 940.411 282.42C939.901 281.778 939.646 281.005 939.646 280.103C939.646 279.232 939.878 278.467 940.343 277.806C940.903 277.008 941.676 276.61 942.66 276.61C943.321 276.61 943.845 276.776 944.232 277.109C944.624 277.441 944.82 277.813 944.82 278.223C944.82 278.483 944.741 278.69 944.581 278.845C944.426 279 944.221 279.077 943.966 279.077C943.697 279.077 943.474 278.989 943.296 278.811C943.123 278.633 943.016 278.316 942.975 277.861C942.947 277.573 942.881 277.373 942.776 277.259C942.672 277.145 942.549 277.088 942.407 277.088C942.188 277.088 942.002 277.204 941.847 277.437C941.61 277.788 941.491 278.325 941.491 279.05C941.491 279.652 941.587 280.228 941.778 280.78C941.97 281.326 942.232 281.734 942.564 282.003C942.815 282.199 943.111 282.297 943.453 282.297C943.676 282.297 943.888 282.245 944.089 282.14C944.289 282.035 944.526 281.837 944.8 281.545ZM949.332 282.249C948.553 282.937 947.853 283.281 947.233 283.281C946.869 283.281 946.566 283.163 946.324 282.926C946.083 282.684 945.962 282.384 945.962 282.024C945.962 281.536 946.172 281.099 946.591 280.711C947.01 280.319 947.924 279.8 949.332 279.153V278.51C949.332 278.027 949.305 277.724 949.25 277.601C949.2 277.473 949.102 277.364 948.956 277.273C948.81 277.177 948.646 277.129 948.464 277.129C948.168 277.129 947.924 277.195 947.732 277.327C947.614 277.409 947.555 277.505 947.555 277.615C947.555 277.71 947.618 277.829 947.746 277.97C947.919 278.166 948.006 278.355 948.006 278.537C948.006 278.761 947.922 278.952 947.753 279.112C947.589 279.267 947.372 279.344 947.104 279.344C946.816 279.344 946.575 279.257 946.379 279.084C946.188 278.911 946.092 278.708 946.092 278.476C946.092 278.148 946.222 277.836 946.481 277.539C946.741 277.239 947.104 277.008 947.568 276.849C948.033 276.689 948.516 276.61 949.018 276.61C949.624 276.61 950.102 276.74 950.453 276.999C950.809 277.254 951.039 277.532 951.144 277.833C951.207 278.025 951.239 278.464 951.239 279.153V281.634C951.239 281.926 951.251 282.11 951.273 282.188C951.296 282.261 951.33 282.315 951.376 282.352C951.422 282.388 951.474 282.406 951.533 282.406C951.652 282.406 951.772 282.322 951.896 282.154L952.101 282.318C951.873 282.655 951.636 282.901 951.39 283.056C951.148 283.206 950.872 283.281 950.562 283.281C950.198 283.281 949.913 283.197 949.708 283.029C949.503 282.855 949.378 282.596 949.332 282.249ZM949.332 281.75V279.611C948.781 279.934 948.37 280.281 948.102 280.65C947.924 280.896 947.835 281.144 947.835 281.395C947.835 281.604 947.91 281.789 948.061 281.948C948.174 282.072 948.334 282.133 948.539 282.133C948.767 282.133 949.031 282.005 949.332 281.75ZM955.416 276.801V277.628C955.744 277.273 956.059 277.015 956.359 276.856C956.66 276.692 956.984 276.61 957.33 276.61C957.745 276.61 958.089 276.726 958.362 276.958C958.636 277.186 958.818 277.471 958.909 277.813C958.982 278.073 959.019 278.572 959.019 279.31V281.798C959.019 282.29 959.062 282.598 959.148 282.721C959.24 282.839 959.426 282.915 959.709 282.947V283.193H956.476V282.947C956.717 282.915 956.89 282.814 956.995 282.646C957.068 282.532 957.104 282.249 957.104 281.798V278.954C957.104 278.43 957.084 278.1 957.043 277.963C957.002 277.826 956.931 277.722 956.831 277.649C956.735 277.571 956.628 277.532 956.51 277.532C956.118 277.532 955.753 277.813 955.416 278.373V281.798C955.416 282.277 955.459 282.58 955.546 282.707C955.637 282.835 955.803 282.915 956.045 282.947V283.193H952.812V282.947C953.08 282.919 953.272 282.833 953.386 282.687C953.463 282.587 953.502 282.29 953.502 281.798V278.189C953.502 277.706 953.456 277.405 953.365 277.286C953.279 277.168 953.094 277.09 952.812 277.054V276.801H955.416ZM966.634 274.463V276.801H968.151V277.478H966.634V281.422C966.634 281.791 966.65 282.031 966.682 282.14C966.718 282.245 966.78 282.331 966.866 282.4C966.953 282.463 967.033 282.495 967.105 282.495C967.402 282.495 967.682 282.27 967.946 281.819L968.151 281.969C967.782 282.844 967.183 283.281 966.354 283.281C965.948 283.281 965.604 283.17 965.321 282.947C965.043 282.719 964.866 282.466 964.788 282.188C964.743 282.033 964.72 281.614 964.72 280.93V277.478H963.886V277.239C964.46 276.833 964.948 276.407 965.349 275.96C965.754 275.514 966.107 275.015 966.408 274.463H966.634ZM971.774 276.61C972.33 276.61 972.848 276.753 973.326 277.04C973.805 277.327 974.167 277.735 974.413 278.264C974.664 278.793 974.789 279.371 974.789 280C974.789 280.907 974.559 281.666 974.099 282.277C973.543 283.015 972.775 283.384 971.795 283.384C970.833 283.384 970.093 283.047 969.573 282.372C969.054 281.698 968.794 280.916 968.794 280.028C968.794 279.112 969.058 278.314 969.587 277.635C970.12 276.951 970.849 276.61 971.774 276.61ZM971.802 277.095C971.569 277.095 971.369 277.184 971.2 277.362C971.036 277.535 970.927 277.881 970.872 278.401C970.822 278.916 970.797 279.633 970.797 280.554C970.797 281.042 970.829 281.497 970.893 281.921C970.943 282.245 971.05 282.491 971.214 282.659C971.378 282.828 971.565 282.912 971.774 282.912C971.979 282.912 972.15 282.855 972.287 282.741C972.465 282.587 972.583 282.37 972.643 282.092C972.734 281.659 972.779 280.784 972.779 279.467C972.779 278.692 972.736 278.161 972.649 277.874C972.563 277.583 972.435 277.371 972.267 277.239C972.148 277.143 971.993 277.095 971.802 277.095ZM985.474 273.923V281.279C985.474 281.775 985.487 282.069 985.515 282.16C985.551 282.311 985.619 282.422 985.72 282.495C985.825 282.568 986.005 282.614 986.26 282.632V282.858L983.56 283.384V282.372C983.236 282.764 982.947 283.031 982.691 283.172C982.441 283.313 982.156 283.384 981.837 283.384C981.021 283.384 980.376 283.019 979.902 282.29C979.52 281.698 979.328 280.971 979.328 280.11C979.328 279.421 979.447 278.806 979.684 278.264C979.921 277.717 980.244 277.305 980.654 277.027C981.069 276.749 981.513 276.61 981.987 276.61C982.293 276.61 982.564 276.669 982.801 276.787C983.038 276.906 983.291 277.113 983.56 277.409V275.482C983.56 274.994 983.539 274.7 983.498 274.6C983.443 274.468 983.361 274.37 983.252 274.306C983.143 274.242 982.938 274.21 982.637 274.21V273.923H985.474ZM983.56 278.257C983.222 277.61 982.81 277.286 982.322 277.286C982.154 277.286 982.015 277.332 981.905 277.423C981.737 277.564 981.598 277.813 981.488 278.168C981.383 278.524 981.331 279.068 981.331 279.802C981.331 280.609 981.39 281.206 981.509 281.593C981.627 281.98 981.789 282.261 981.994 282.434C982.099 282.52 982.243 282.564 982.425 282.564C982.826 282.564 983.204 282.249 983.56 281.62V278.257ZM990.067 276.61C990.623 276.61 991.141 276.753 991.619 277.04C992.098 277.327 992.46 277.735 992.706 278.264C992.957 278.793 993.082 279.371 993.082 280C993.082 280.907 992.852 281.666 992.392 282.277C991.836 283.015 991.068 283.384 990.088 283.384C989.126 283.384 988.386 283.047 987.866 282.372C987.347 281.698 987.087 280.916 987.087 280.028C987.087 279.112 987.351 278.314 987.88 277.635C988.413 276.951 989.142 276.61 990.067 276.61ZM990.095 277.095C989.862 277.095 989.662 277.184 989.493 277.362C989.329 277.535 989.22 277.881 989.165 278.401C989.115 278.916 989.09 279.633 989.09 280.554C989.09 281.042 989.122 281.497 989.186 281.921C989.236 282.245 989.343 282.491 989.507 282.659C989.671 282.828 989.858 282.912 990.067 282.912C990.272 282.912 990.443 282.855 990.58 282.741C990.758 282.587 990.876 282.37 990.936 282.092C991.027 281.659 991.072 280.784 991.072 279.467C991.072 278.692 991.029 278.161 990.942 277.874C990.856 277.583 990.728 277.371 990.56 277.239C990.441 277.143 990.286 277.095 990.095 277.095ZM1000.39 283.384L998.64 278.695L996.924 283.384H996.568L994.866 278.749C994.611 278.043 994.395 277.583 994.217 277.368C994.103 277.223 993.93 277.118 993.697 277.054V276.801H996.924V277.054C996.705 277.054 996.555 277.086 996.473 277.15C996.391 277.213 996.35 277.286 996.35 277.368C996.35 277.446 996.423 277.678 996.568 278.066L997.505 280.561L998.407 278.066L998.339 277.902C998.202 277.56 998.081 277.343 997.977 277.252C997.876 277.156 997.719 277.09 997.505 277.054V276.801H1000.78V277.054C1000.52 277.068 1000.36 277.104 1000.29 277.163C1000.23 277.218 1000.19 277.298 1000.19 277.403C1000.19 277.503 1000.26 277.724 1000.39 278.066L1001.29 280.561L1002.11 278.264C1002.23 277.936 1002.29 277.712 1002.29 277.594C1002.29 277.416 1002.25 277.286 1002.16 277.204C1002.07 277.122 1001.9 277.072 1001.65 277.054V276.801H1003.55V277.054C1003.34 277.081 1003.17 277.156 1003.05 277.28C1002.93 277.398 1002.77 277.74 1002.57 278.305L1000.78 283.384H1000.39ZM1006.78 276.801V277.628C1007.11 277.273 1007.42 277.015 1007.72 276.856C1008.03 276.692 1008.35 276.61 1008.7 276.61C1009.11 276.61 1009.45 276.726 1009.73 276.958C1010 277.186 1010.18 277.471 1010.27 277.813C1010.35 278.073 1010.38 278.572 1010.38 279.31V281.798C1010.38 282.29 1010.43 282.598 1010.51 282.721C1010.6 282.839 1010.79 282.915 1011.07 282.947V283.193H1007.84V282.947C1008.08 282.915 1008.26 282.814 1008.36 282.646C1008.43 282.532 1008.47 282.249 1008.47 281.798V278.954C1008.47 278.43 1008.45 278.1 1008.41 277.963C1008.37 277.826 1008.3 277.722 1008.2 277.649C1008.1 277.571 1007.99 277.532 1007.88 277.532C1007.48 277.532 1007.12 277.813 1006.78 278.373V281.798C1006.78 282.277 1006.82 282.58 1006.91 282.707C1007 282.835 1007.17 282.915 1007.41 282.947V283.193H1004.18V282.947C1004.45 282.919 1004.64 282.833 1004.75 282.687C1004.83 282.587 1004.87 282.29 1004.87 281.798V278.189C1004.87 277.706 1004.82 277.405 1004.73 277.286C1004.64 277.168 1004.46 277.09 1004.18 277.054V276.801H1006.78ZM1014.46 273.923V281.866C1014.46 282.318 1014.52 282.607 1014.62 282.735C1014.73 282.858 1014.93 282.928 1015.24 282.947V283.193H1011.79V282.947C1012.07 282.937 1012.28 282.855 1012.41 282.7C1012.51 282.596 1012.55 282.318 1012.55 281.866V275.249C1012.55 274.803 1012.5 274.518 1012.39 274.395C1012.29 274.267 1012.09 274.194 1011.79 274.176V273.923H1014.46ZM1018.87 276.61C1019.43 276.61 1019.95 276.753 1020.43 277.04C1020.9 277.327 1021.27 277.735 1021.51 278.264C1021.76 278.793 1021.89 279.371 1021.89 280C1021.89 280.907 1021.66 281.666 1021.2 282.277C1020.64 283.015 1019.87 283.384 1018.89 283.384C1017.93 283.384 1017.19 283.047 1016.67 282.372C1016.15 281.698 1015.89 280.916 1015.89 280.028C1015.89 279.112 1016.16 278.314 1016.69 277.635C1017.22 276.951 1017.95 276.61 1018.87 276.61ZM1018.9 277.095C1018.67 277.095 1018.47 277.184 1018.3 277.362C1018.14 277.535 1018.03 277.881 1017.97 278.401C1017.92 278.916 1017.9 279.633 1017.9 280.554C1017.9 281.042 1017.93 281.497 1017.99 281.921C1018.04 282.245 1018.15 282.491 1018.31 282.659C1018.48 282.828 1018.66 282.912 1018.87 282.912C1019.08 282.912 1019.25 282.855 1019.39 282.741C1019.56 282.587 1019.68 282.37 1019.74 282.092C1019.83 281.659 1019.88 280.784 1019.88 279.467C1019.88 278.692 1019.84 278.161 1019.75 277.874C1019.66 277.583 1019.53 277.371 1019.37 277.239C1019.25 277.143 1019.09 277.095 1018.9 277.095ZM1026.39 282.249C1025.61 282.937 1024.91 283.281 1024.29 283.281C1023.92 283.281 1023.62 283.163 1023.38 282.926C1023.14 282.684 1023.02 282.384 1023.02 282.024C1023.02 281.536 1023.23 281.099 1023.65 280.711C1024.06 280.319 1024.98 279.8 1026.39 279.153V278.51C1026.39 278.027 1026.36 277.724 1026.3 277.601C1026.25 277.473 1026.16 277.364 1026.01 277.273C1025.86 277.177 1025.7 277.129 1025.52 277.129C1025.22 277.129 1024.98 277.195 1024.79 277.327C1024.67 277.409 1024.61 277.505 1024.61 277.615C1024.61 277.71 1024.67 277.829 1024.8 277.97C1024.97 278.166 1025.06 278.355 1025.06 278.537C1025.06 278.761 1024.98 278.952 1024.81 279.112C1024.64 279.267 1024.43 279.344 1024.16 279.344C1023.87 279.344 1023.63 279.257 1023.43 279.084C1023.24 278.911 1023.15 278.708 1023.15 278.476C1023.15 278.148 1023.28 277.836 1023.54 277.539C1023.8 277.239 1024.16 277.008 1024.62 276.849C1025.09 276.689 1025.57 276.61 1026.07 276.61C1026.68 276.61 1027.16 276.74 1027.51 276.999C1027.86 277.254 1028.09 277.532 1028.2 277.833C1028.26 278.025 1028.29 278.464 1028.29 279.153V281.634C1028.29 281.926 1028.31 282.11 1028.33 282.188C1028.35 282.261 1028.39 282.315 1028.43 282.352C1028.48 282.388 1028.53 282.406 1028.59 282.406C1028.71 282.406 1028.83 282.322 1028.95 282.154L1029.16 282.318C1028.93 282.655 1028.69 282.901 1028.44 283.056C1028.2 283.206 1027.93 283.281 1027.62 283.281C1027.25 283.281 1026.97 283.197 1026.76 283.029C1026.56 282.855 1026.43 282.596 1026.39 282.249ZM1026.39 281.75V279.611C1025.84 279.934 1025.43 280.281 1025.16 280.65C1024.98 280.896 1024.89 281.144 1024.89 281.395C1024.89 281.604 1024.96 281.789 1025.12 281.948C1025.23 282.072 1025.39 282.133 1025.59 282.133C1025.82 282.133 1026.09 282.005 1026.39 281.75ZM1036.07 273.923V281.279C1036.07 281.775 1036.09 282.069 1036.11 282.16C1036.15 282.311 1036.22 282.422 1036.32 282.495C1036.42 282.568 1036.6 282.614 1036.86 282.632V282.858L1034.16 283.384V282.372C1033.84 282.764 1033.55 283.031 1033.29 283.172C1033.04 283.313 1032.76 283.384 1032.44 283.384C1031.62 283.384 1030.98 283.019 1030.5 282.29C1030.12 281.698 1029.93 280.971 1029.93 280.11C1029.93 279.421 1030.05 278.806 1030.28 278.264C1030.52 277.717 1030.84 277.305 1031.25 277.027C1031.67 276.749 1032.11 276.61 1032.59 276.61C1032.89 276.61 1033.16 276.669 1033.4 276.787C1033.64 276.906 1033.89 277.113 1034.16 277.409V275.482C1034.16 274.994 1034.14 274.7 1034.1 274.6C1034.04 274.468 1033.96 274.37 1033.85 274.306C1033.74 274.242 1033.54 274.21 1033.24 274.21V273.923H1036.07ZM1034.16 278.257C1033.82 277.61 1033.41 277.286 1032.92 277.286C1032.75 277.286 1032.61 277.332 1032.5 277.423C1032.34 277.564 1032.2 277.813 1032.09 278.168C1031.98 278.524 1031.93 279.068 1031.93 279.802C1031.93 280.609 1031.99 281.206 1032.11 281.593C1032.23 281.98 1032.39 282.261 1032.59 282.434C1032.7 282.52 1032.84 282.564 1033.02 282.564C1033.43 282.564 1033.8 282.249 1034.16 281.62V278.257ZM970.291 293.923V294.176C970.118 294.19 969.972 294.238 969.854 294.32C969.735 294.402 969.63 294.527 969.539 294.696C969.512 294.75 969.368 295.103 969.108 295.755L966.203 303.405H965.937L963.64 297.43L961.11 303.405H960.857L957.809 295.837C957.499 295.076 957.282 294.616 957.159 294.456C957.036 294.297 956.829 294.203 956.537 294.176V293.923H960.557V294.176C960.233 294.185 960.017 294.235 959.907 294.326C959.802 294.413 959.75 294.522 959.75 294.655C959.75 294.828 959.862 295.195 960.085 295.755L961.903 300.253L963.359 296.74L962.977 295.755C962.767 295.217 962.605 294.86 962.491 294.682C962.377 294.5 962.245 294.37 962.095 294.292C961.949 294.215 961.732 294.176 961.445 294.176V293.923H965.937V294.176C965.622 294.181 965.396 294.206 965.26 294.251C965.164 294.283 965.089 294.338 965.034 294.415C964.979 294.488 964.952 294.573 964.952 294.668C964.952 294.773 965.055 295.094 965.26 295.632L966.948 300.021L968.459 296.049C968.618 295.639 968.716 295.359 968.753 295.208C968.789 295.058 968.808 294.919 968.808 294.791C968.808 294.604 968.744 294.459 968.616 294.354C968.489 294.244 968.245 294.185 967.885 294.176V293.923H970.291ZM973.497 293.923V297.621C973.848 297.252 974.169 296.992 974.461 296.842C974.753 296.687 975.056 296.61 975.37 296.61C975.771 296.61 976.113 296.724 976.396 296.951C976.683 297.179 976.872 297.448 976.963 297.758C977.059 298.063 977.106 298.581 977.106 299.31V301.805C977.106 302.293 977.152 302.598 977.243 302.721C977.334 302.839 977.519 302.915 977.797 302.947V303.193H974.557V302.947C974.785 302.915 974.955 302.823 975.069 302.673C975.151 302.555 975.192 302.265 975.192 301.805V298.954C975.192 298.426 975.172 298.095 975.131 297.963C975.09 297.826 975.019 297.722 974.919 297.649C974.823 297.571 974.714 297.532 974.591 297.532C974.409 297.532 974.231 297.596 974.058 297.724C973.884 297.847 973.698 298.066 973.497 298.38V301.805C973.497 302.261 973.531 302.545 973.6 302.659C973.686 302.814 973.864 302.91 974.133 302.947V303.193H970.893V302.947C971.161 302.919 971.353 302.833 971.467 302.687C971.544 302.587 971.583 302.293 971.583 301.805V295.311C971.583 294.828 971.537 294.527 971.446 294.408C971.36 294.29 971.175 294.212 970.893 294.176V293.923H973.497ZM980.217 293.704C980.513 293.704 980.764 293.809 980.969 294.019C981.174 294.224 981.276 294.472 981.276 294.764C981.276 295.056 981.172 295.304 980.962 295.509C980.757 295.714 980.508 295.817 980.217 295.817C979.925 295.817 979.677 295.714 979.472 295.509C979.267 295.304 979.164 295.056 979.164 294.764C979.164 294.472 979.267 294.224 979.472 294.019C979.677 293.809 979.925 293.704 980.217 293.704ZM981.174 296.801V301.866C981.174 302.318 981.226 302.607 981.331 302.735C981.436 302.858 981.641 302.928 981.946 302.947V303.193H978.494V302.947C978.777 302.937 978.986 302.855 979.123 302.7C979.214 302.596 979.26 302.318 979.26 301.866V298.134C979.26 297.683 979.207 297.396 979.103 297.273C978.998 297.145 978.795 297.072 978.494 297.054V296.801H981.174ZM986.615 296.623L986.718 298.804H986.485C986.207 298.157 985.918 297.715 985.617 297.478C985.321 297.241 985.025 297.122 984.729 297.122C984.542 297.122 984.382 297.186 984.25 297.314C984.118 297.437 984.052 297.58 984.052 297.744C984.052 297.867 984.097 297.986 984.188 298.1C984.334 298.287 984.742 298.608 985.412 299.064C986.082 299.515 986.522 299.9 986.731 300.219C986.946 300.533 987.053 300.887 987.053 301.279C987.053 301.634 986.964 301.983 986.786 302.324C986.608 302.666 986.358 302.928 986.034 303.111C985.711 303.293 985.353 303.384 984.961 303.384C984.656 303.384 984.248 303.288 983.737 303.097C983.601 303.047 983.507 303.022 983.457 303.022C983.307 303.022 983.181 303.136 983.081 303.364H982.855L982.746 301.067H982.979C983.184 301.668 983.464 302.119 983.819 302.42C984.179 302.721 984.519 302.871 984.838 302.871C985.057 302.871 985.234 302.805 985.371 302.673C985.512 302.536 985.583 302.372 985.583 302.181C985.583 301.962 985.515 301.773 985.378 301.614C985.241 301.454 984.936 301.212 984.462 300.889C983.765 300.406 983.313 300.037 983.108 299.781C982.808 299.408 982.657 298.995 982.657 298.544C982.657 298.052 982.826 297.608 983.163 297.211C983.505 296.81 983.997 296.61 984.64 296.61C984.986 296.61 985.321 296.694 985.645 296.863C985.768 296.931 985.868 296.965 985.945 296.965C986.027 296.965 986.093 296.949 986.144 296.917C986.194 296.881 986.273 296.783 986.383 296.623H986.615ZM990.642 293.923V297.621C990.993 297.252 991.314 296.992 991.605 296.842C991.897 296.687 992.2 296.61 992.515 296.61C992.916 296.61 993.257 296.724 993.54 296.951C993.827 297.179 994.016 297.448 994.107 297.758C994.203 298.063 994.251 298.581 994.251 299.31V301.805C994.251 302.293 994.297 302.598 994.388 302.721C994.479 302.839 994.663 302.915 994.941 302.947V303.193H991.701V302.947C991.929 302.915 992.1 302.823 992.214 302.673C992.296 302.555 992.337 302.265 992.337 301.805V298.954C992.337 298.426 992.316 298.095 992.275 297.963C992.234 297.826 992.164 297.722 992.063 297.649C991.968 297.571 991.858 297.532 991.735 297.532C991.553 297.532 991.375 297.596 991.202 297.724C991.029 297.847 990.842 298.066 990.642 298.38V301.805C990.642 302.261 990.676 302.545 990.744 302.659C990.831 302.814 991.008 302.91 991.277 302.947V303.193H988.037V302.947C988.306 302.919 988.497 302.833 988.611 302.687C988.689 302.587 988.728 302.293 988.728 301.805V295.311C988.728 294.828 988.682 294.527 988.591 294.408C988.504 294.29 988.32 294.212 988.037 294.176V293.923H990.642ZM998.298 302.543V304.922C998.298 305.25 998.323 305.474 998.373 305.592C998.428 305.711 998.51 305.797 998.619 305.852C998.729 305.906 998.943 305.934 999.262 305.934V306.187H995.618V305.934C995.901 305.925 996.11 305.845 996.247 305.695C996.338 305.59 996.384 305.319 996.384 304.881V298.134C996.384 297.683 996.331 297.396 996.227 297.273C996.122 297.145 995.919 297.072 995.618 297.054V296.801H998.298V297.642C998.521 297.314 998.749 297.077 998.981 296.931C999.314 296.717 999.676 296.61 1000.07 296.61C1000.54 296.61 1000.96 296.758 1001.35 297.054C1001.73 297.35 1002.03 297.76 1002.23 298.284C1002.43 298.804 1002.53 299.365 1002.53 299.966C1002.53 300.613 1002.42 301.206 1002.21 301.743C1002.01 302.277 1001.71 302.684 1001.31 302.967C1000.92 303.245 1000.48 303.384 1000 303.384C999.649 303.384 999.321 303.307 999.016 303.152C998.788 303.033 998.549 302.83 998.298 302.543ZM998.298 301.853C998.69 302.409 999.109 302.687 999.556 302.687C999.802 302.687 1000 302.557 1000.16 302.297C1000.4 301.914 1000.52 301.185 1000.52 300.11C1000.52 299.007 1000.39 298.253 1000.13 297.847C999.957 297.578 999.724 297.444 999.433 297.444C998.972 297.444 998.594 297.776 998.298 298.442V301.853ZM1009.03 299.768H1005.52C1005.56 300.615 1005.79 301.285 1006.2 301.778C1006.51 302.156 1006.89 302.345 1007.33 302.345C1007.61 302.345 1007.86 302.27 1008.08 302.119C1008.3 301.964 1008.54 301.689 1008.8 301.292L1009.03 301.443C1008.68 302.149 1008.3 302.65 1007.88 302.947C1007.46 303.238 1006.98 303.384 1006.43 303.384C1005.48 303.384 1004.76 303.019 1004.27 302.29C1003.88 301.702 1003.68 300.973 1003.68 300.103C1003.68 299.036 1003.97 298.189 1004.55 297.56C1005.12 296.926 1005.8 296.61 1006.58 296.61C1007.22 296.61 1007.78 296.876 1008.26 297.409C1008.74 297.938 1008.99 298.724 1009.03 299.768ZM1007.35 299.31C1007.35 298.576 1007.31 298.073 1007.23 297.799C1007.15 297.526 1007.03 297.318 1006.86 297.177C1006.76 297.095 1006.63 297.054 1006.47 297.054C1006.24 297.054 1006.04 297.17 1005.89 297.403C1005.62 297.808 1005.49 298.364 1005.49 299.071V299.31H1007.35ZM1012.49 296.801V298.25C1012.91 297.589 1013.28 297.152 1013.6 296.938C1013.92 296.719 1014.23 296.61 1014.53 296.61C1014.78 296.61 1014.98 296.689 1015.13 296.849C1015.29 297.004 1015.37 297.225 1015.37 297.512C1015.37 297.817 1015.29 298.054 1015.14 298.223C1015 298.392 1014.82 298.476 1014.61 298.476C1014.37 298.476 1014.16 298.398 1013.98 298.243C1013.8 298.088 1013.7 298.002 1013.67 297.984C1013.62 297.956 1013.57 297.943 1013.51 297.943C1013.38 297.943 1013.25 297.993 1013.13 298.093C1012.94 298.248 1012.8 298.469 1012.71 298.756C1012.56 299.198 1012.49 299.686 1012.49 300.219V301.689L1012.5 302.072C1012.5 302.331 1012.51 302.498 1012.54 302.571C1012.6 302.694 1012.68 302.785 1012.78 302.844C1012.89 302.899 1013.07 302.933 1013.33 302.947V303.193H1009.88V302.947C1010.16 302.924 1010.34 302.849 1010.44 302.721C1010.54 302.589 1010.59 302.245 1010.59 301.689V298.155C1010.59 297.79 1010.57 297.558 1010.53 297.457C1010.49 297.33 1010.42 297.236 1010.34 297.177C1010.25 297.118 1010.1 297.077 1009.88 297.054V296.801H1012.49Z" fill="white"/>
</g>
</g>
<defs>
<filter id="filter0_f_5862_37" x="116.109" y="-387.754" width="1040.87" height="1622.16" filterUnits="userSpaceOnUse" color-interpolation-filters="sRGB">
<feFlood flood-opacity="0" result="BackgroundImageFix"/>
<feBlend mode="normal" in="SourceGraphic" in2="BackgroundImageFix" result="shape"/>
<feGaussianBlur stdDeviation="50" result="effect1_foregroundBlur_5862_37"/>
</filter>
<filter id="filter1_f_5862_37" x="37.4199" y="-36.8171" width="740.473" height="840.908" filterUnits="userSpaceOnUse" color-interpolation-filters="sRGB">
<feFlood flood-opacity="0" result="BackgroundImageFix"/>
<feBlend mode="normal" in="SourceGraphic" in2="BackgroundImageFix" result="shape"/>
<feGaussianBlur stdDeviation="50" result="effect1_foregroundBlur_5862_37"/>
</filter>
<linearGradient id="paint0_linear_5862_37" x1="1056.98" y1="1134.41" x2="527.174" y2="-113.688" gradientUnits="userSpaceOnUse">
<stop stop-color="white"/>
<stop offset="1" stop-color="white" stop-opacity="0"/>
</linearGradient>
<linearGradient id="paint1_linear_5862_37" x1="641.102" y1="679.413" x2="142.357" y2="175.28" gradientUnits="userSpaceOnUse">
<stop stop-color="white"/>
<stop offset="1" stop-color="white" stop-opacity="0"/>
</linearGradient>
<linearGradient id="paint2_linear_5862_37" x1="950.601" y1="98.7934" x2="1056" y2="204.193" gradientUnits="userSpaceOnUse">
<stop stop-color="#DAF727"/>
<stop offset="1" stop-color="#725AEC"/>
</linearGradient>
<linearGradient id="paint3_linear_5862_37" x1="-5.63715e+09" y1="252.43" x2="-5.63715e+09" y2="217.787" gradientUnits="userSpaceOnUse">
<stop stop-color="white" stop-opacity="0.04"/>
<stop offset="1" stop-color="white"/>
</linearGradient>
<clipPath id="clip0_5862_37">
<rect y="0.192627" width="1120" height="400" rx="24" fill="white"/>
</clipPath>
<clipPath id="clip1_5862_37">
<rect width="540" height="336" fill="white" transform="translate(516 64.1926)"/>
</clipPath>
<clipPath id="clip2_5862_37">
<rect x="516" y="64.1926" width="320" height="692.907" rx="40" fill="white"/>
</clipPath>
<clipPath id="clip3_5862_37">
<rect width="85.1711" height="85.1711" fill="white" transform="translate(943.681 91.8735)"/>
</clipPath>
</defs>
</svg>
