<svg width="16" height="16" viewBox="0 0 16 16" fill="none" xmlns="http://www.w3.org/2000/svg">
<g clip-path="url(#clip0_496_19780)">
<path d="M8 6V7.33333M8 10V10.0067" stroke="#FB3766" stroke-width="1.5" stroke-linecap="round" stroke-linejoin="round"/>
<path d="M3.33338 12.6664H12.6667C12.8843 12.6648 13.0981 12.6101 13.2896 12.5069C13.4812 12.4038 13.6445 12.2553 13.7655 12.0745C13.8865 11.8937 13.9614 11.686 13.9837 11.4696C14.006 11.2532 13.975 11.0347 13.8934 10.833L9.16005 2.66635C9.04474 2.45795 8.87572 2.28424 8.67055 2.16328C8.46538 2.04231 8.23155 1.97852 7.99338 1.97852C7.75521 1.97852 7.52138 2.04231 7.31621 2.16328C7.11104 2.28424 6.94202 2.45795 6.82671 2.66635L2.09338 10.833C2.01334 11.0301 1.9816 11.2434 2.00081 11.4552C2.02002 11.667 2.08963 11.8712 2.20381 12.0506C2.318 12.2301 2.47345 12.3796 2.6572 12.4867C2.84094 12.5938 3.04764 12.6554 3.26005 12.6664" stroke="#FB3766" stroke-width="1.5" stroke-linecap="round" stroke-linejoin="round"/>
</g>
<defs>
<clipPath id="clip0_496_19780">
<rect width="16" height="16" fill="white"/>
</clipPath>
</defs>
</svg>
