<svg width="16" height="15" viewBox="0 0 16 15" fill="none" xmlns="http://www.w3.org/2000/svg">
<g filter="url(#filter0_d_5922_13081)">
<path fill-rule="evenodd" clip-rule="evenodd" d="M8.0001 13.3996C9.69748 13.3996 11.3253 12.7253 12.5256 11.5251C13.7258 10.3249 14.4001 8.697 14.4001 6.99961C14.4001 5.30222 13.7258 3.67436 12.5256 2.47413C11.3253 1.27389 9.69748 0.599609 8.0001 0.599609C6.30271 0.599609 4.67485 1.27389 3.47461 2.47413C2.27438 3.67436 1.6001 5.30222 1.6001 6.99961C1.6001 8.697 2.27438 10.3249 3.47461 11.5251C4.67485 12.7253 6.30271 13.3996 8.0001 13.3996V13.3996ZM8.8001 4.59961C8.8001 4.38744 8.71581 4.18395 8.56578 4.03392C8.41575 3.8839 8.21227 3.79961 8.0001 3.79961C7.78792 3.79961 7.58444 3.8839 7.43441 4.03392C7.28438 4.18395 7.2001 4.38744 7.2001 4.59961V7.46841L6.1657 6.43401C6.01482 6.28828 5.81273 6.20765 5.60298 6.20947C5.39322 6.21129 5.19257 6.29543 5.04424 6.44375C4.89592 6.59208 4.81178 6.79273 4.80996 7.00249C4.80814 7.21225 4.88877 7.41433 5.0345 7.56521L7.4345 9.96521C7.58452 10.1152 7.78797 10.1994 8.0001 10.1994C8.21223 10.1994 8.41568 10.1152 8.5657 9.96521L10.9657 7.56521C11.1114 7.41433 11.1921 7.21225 11.1902 7.00249C11.1884 6.79273 11.1043 6.59208 10.956 6.44375C10.8076 6.29543 10.607 6.21129 10.3972 6.20947C10.1875 6.20765 9.98538 6.28828 9.8345 6.43401L8.8001 7.46841V4.59961Z" fill="#FB3766"/>
</g>
<defs>
<filter id="filter0_d_5922_13081" x="-2.3999" y="0.599609" width="20.7998" height="20.7998" filterUnits="userSpaceOnUse" color-interpolation-filters="sRGB">
<feFlood flood-opacity="0" result="BackgroundImageFix"/>
<feColorMatrix in="SourceAlpha" type="matrix" values="0 0 0 0 0 0 0 0 0 0 0 0 0 0 0 0 0 0 127 0" result="hardAlpha"/>
<feOffset dy="4"/>
<feGaussianBlur stdDeviation="2"/>
<feComposite in2="hardAlpha" operator="out"/>
<feColorMatrix type="matrix" values="0 0 0 0 0 0 0 0 0 0 0 0 0 0 0 0 0 0 0.25 0"/>
<feBlend mode="normal" in2="BackgroundImageFix" result="effect1_dropShadow_5922_13081"/>
<feBlend mode="normal" in="SourceGraphic" in2="effect1_dropShadow_5922_13081" result="shape"/>
</filter>
</defs>
</svg>
