<svg width="251" height="166" viewBox="0 0 251 166" fill="none" xmlns="http://www.w3.org/2000/svg">
<path d="M1 148.571L8.61628 160.143L17.9251 138.929L30.6189 164L43.3127 131.214L53.4677 160.143H62.7765L64.469 138.929L75.4703 131.214L82.2403 144.714L95.7804 113.857L106.782 52.1429H112.705L121.168 2L131.323 52.1429L139.786 19.3571L144.017 34.7857L154.172 2L161.788 27.0714L171.943 23.2143L180.406 34.7857L188.868 90.7143L198.177 52.1429L204.101 63.7143H217.641L221.872 52.1429L226.103 81.0714H232.873L239.643 123.5L247.26 113.857L250 90.3636" stroke="#11CABE" stroke-linecap="round"/>
</svg>
