<svg width="78" height="27" viewBox="0 0 78 27" fill="none" xmlns="http://www.w3.org/2000/svg">
<path d="M76.5479 23.5404H73.7758L71.6968 17.9652L68.6937 22.2733L67.5387 25.3143L62.6877 20.7528L60.6086 25.3143L57.8366 24.0472L53.9096 8.08199L52.2925 10.8696L50.6755 8.08199H46.9795L44.2074 2L42.3594 8.08199L40.0494 4.78758L37.2773 13.6571L35.4293 13.9106L33.3503 16.4447L31.7333 13.9106L30.5783 8.84224L26.6512 11.6298L24.8032 9.09565L22.0311 13.9106L19.7211 20.246L16.7181 13.1503L15.101 13.9106L10.019 8.58882L8.17095 11.8832L5.62992 10.1093L4.2439 17.7118L1.00024 7.82857" stroke="#22FAA8" stroke-linecap="round"/>
</svg>
