<svg width="78" height="27" viewBox="0 0 78 27" fill="none" xmlns="http://www.w3.org/2000/svg">
<path d="M77 23.5404H74.228L72.1489 17.9652L69.1459 22.2733L67.9909 25.3143L63.1398 20.7528L61.0608 25.3143L58.2888 24.0472L54.3617 8.08199L52.7447 10.8696L51.1277 8.08199H47.4316L44.6596 2L42.8116 8.08199L40.5015 4.78758L37.7295 13.6571L35.8815 13.9106L33.8024 16.4447L32.1854 13.9106L31.0304 8.84224L27.1033 11.6298L25.2553 9.09565L22.4833 13.9106L20.1733 20.246L17.1702 13.1503L15.5532 13.9106L10.4711 8.58882L8.6231 11.8832L6.08207 10.1093L4.69605 17.7118L1.45239 7.82857" stroke="#FA2256" stroke-linecap="round"/>
</svg>
