<svg width="66" height="26" viewBox="0 0 66 26" fill="none" xmlns="http://www.w3.org/2000/svg">
<path d="M1 22.4735L2.94595 24.0898L5.32432 21.1265L8.56757 24.6286L11.8108 20.049L14.4054 24.0898H16.7838L17.2162 21.1265L20.027 20.049L21.7568 21.9347L25.2162 17.6245L28.027 9.00408H29.5405L31.7027 2L34.2973 9.00408L36.4595 4.42449L37.5405 6.57959L40.1351 2L42.0811 5.50204L44.6757 4.96326L46.8378 6.57959L49 14.3918L51.3784 9.00408L52.8919 10.6204H56.3514L57.4324 9.00408L58.5135 13.0449H60.2432L61.973 18.9714L63.9189 17.6245L64.619 14.3429" stroke="#11CABE" stroke-linecap="round"/>
</svg>
