<svg width="15" height="16" viewBox="0 0 15 16" fill="none" xmlns="http://www.w3.org/2000/svg">
<path d="M11.5979 0H3.40206C1.51828 0 0 1.08 0 2.42V13.58C0 14.92 1.51828 16 3.40206 16H5.69353C6.08716 16 7 16 7 16H8C8 16 7.92877 16 8.50515 16C9.08154 16 9 16 9 16C9 16 8.81443 16 9.20806 16H11.612C13.4817 16 15 14.92 15 13.59V2.42C15 1.08 13.4817 0 11.5979 0ZM3 14.5V10.5C3 11 3 5.91 3 5.5C3 5.5 4.42362 5.5 5 5.5V8C5 8 5 14.09 5 14.5C5 14.5 3.57638 14.5 3 14.5ZM11.3168 14.5L9.5 7L7.5 8V14.5H6C6 14.5 6 5.91 6 5.5C6 5.5 6.92362 5.5 7.5 5.5V6.5C8.07638 6.5 11.3168 4.59 11.3168 5C11.3168 5.41 11.8932 14.5 11.3168 14.5Z" fill="#5235E8"/>
</svg>
