<svg width="15" height="18" viewBox="0 0 15 18" fill="none" xmlns="http://www.w3.org/2000/svg">
<path d="M11.5979 0H3.40206C1.51828 0 0 1.28712 0 2.77397V15.0682C0 16.5551 1.51828 17.7534 3.40206 17.7534H5.69353C6.08716 17.7534 6.13636 18.0641 6.13636 17.7534H6.81818C6.81818 17.7534 6.92362 17.7534 7.5 17.7534C8.07638 17.7534 8.50515 17.7534 8.50515 17.7534H8.86364C8.86364 18.3082 8.81443 17.7534 9.20806 17.7534H11.612C13.4817 17.7534 15 16.5551 15 15.0793V2.68521C15 1.19836 13.4817 0 11.5979 0ZM10.2273 7.21233L7.5 11.6507L5.45455 7.21233L3.40909 13.8699C2.83271 13.8699 3.58482 6.00288 3.58482 5.54794C3.58482 5.09301 4.06279 4.71575 4.63918 4.71575L7.5 7.21233L10.2624 4.71575C10.8388 4.71575 11.5909 5.09301 11.5909 5.54794C11.5909 6.00288 12.9545 22.7466 10.2273 7.21233Z" fill="#5235E8"/>
</svg>
