<svg width="286" height="277" viewBox="0 0 286 277" fill="none" xmlns="http://www.w3.org/2000/svg">
<path d="M0 8C0 3.58173 3.58172 0 8 0L278 0C282.418 0 286 3.58172 286 8V268.816C286 273.235 282.418 276.816 278 276.816H8.00001C3.58173 276.816 0 273.235 0 268.816L0 8Z" fill="white"/>
<path d="M26.8355 27.5469V29.9836C26.8355 30.4539 26.8633 30.751 26.9189 30.8749C26.9787 30.9946 27.0813 31.0908 27.2267 31.1635C27.372 31.2362 27.6435 31.2725 28.0411 31.2725V31.5098H23.5908V31.2725C23.9927 31.2725 24.2641 31.2362 24.4052 31.1635C24.5506 31.0865 24.651 30.9882 24.7066 30.8685C24.7665 30.7488 24.7964 30.4539 24.7964 29.9836V24.3407C24.7964 23.8704 24.7665 23.5755 24.7066 23.4558C24.651 23.3318 24.5506 23.2335 24.4052 23.1608C24.2599 23.0881 23.9884 23.0518 23.5908 23.0518V22.8145H27.6307C28.6823 22.8145 29.4518 22.8872 29.9391 23.0325C30.4265 23.1779 30.8241 23.4472 31.1319 23.8405C31.4397 24.2295 31.5936 24.6869 31.5936 25.2128C31.5936 25.854 31.3627 26.3841 30.901 26.803C30.606 27.0681 30.1935 27.2669 29.6634 27.3994L31.7539 30.3427C32.0275 30.7232 32.222 30.9604 32.3374 31.0545C32.5127 31.187 32.7157 31.2597 32.9466 31.2725V31.5098H30.2085L27.4062 27.5469H26.8355ZM26.8355 23.2826V27.0916H27.201C27.7953 27.0916 28.2399 27.0382 28.5348 26.9313C28.8298 26.8201 29.0606 26.6235 29.2274 26.3413C29.3984 26.0549 29.4839 25.683 29.4839 25.2256C29.4839 24.563 29.3278 24.0735 29.0158 23.7571C28.708 23.4408 28.2099 23.2826 27.5217 23.2826H26.8355ZM38.3587 28.2971H35.0691C35.1076 29.0923 35.3192 29.7207 35.7039 30.1824C35.9989 30.5372 36.3537 30.7146 36.7684 30.7146C37.0249 30.7146 37.2579 30.6441 37.4673 30.503C37.6768 30.3577 37.9012 30.099 38.1406 29.7271L38.3587 29.8682C38.0338 30.5308 37.6747 31.001 37.2814 31.2789C36.8881 31.5525 36.4328 31.6893 35.9155 31.6893C35.0263 31.6893 34.353 31.3473 33.8956 30.6633C33.528 30.1119 33.3441 29.4279 33.3441 28.6113C33.3441 27.611 33.6135 26.8159 34.1521 26.2259C34.695 25.6317 35.3299 25.3346 36.0566 25.3346C36.6637 25.3346 37.1895 25.5847 37.6341 26.0848C38.0829 26.5807 38.3245 27.3182 38.3587 28.2971ZM36.7812 27.8675C36.7812 27.1792 36.7427 26.7069 36.6658 26.4504C36.5931 26.1939 36.4777 25.9993 36.3195 25.8668C36.2297 25.7899 36.11 25.7514 35.9604 25.7514C35.7381 25.7514 35.5564 25.8604 35.4154 26.0784C35.1631 26.4589 35.037 26.9805 35.037 27.6431V27.8675H36.7812ZM44.008 29.9644L44.2068 30.1183C43.9247 30.6484 43.572 31.0438 43.1488 31.3046C42.7298 31.5611 42.2831 31.6893 41.8086 31.6893C41.0091 31.6893 40.37 31.3879 39.8912 30.7852C39.4124 30.1824 39.173 29.4578 39.173 28.6113C39.173 27.7948 39.3911 27.0766 39.8271 26.4568C40.3529 25.7087 41.0775 25.3346 42.0009 25.3346C42.6208 25.3346 43.1124 25.4906 43.4758 25.8027C43.8434 26.1148 44.0273 26.4632 44.0273 26.8479C44.0273 27.0916 43.9524 27.2861 43.8028 27.4315C43.6575 27.5768 43.4651 27.6495 43.2257 27.6495C42.9735 27.6495 42.764 27.5661 42.5973 27.3994C42.4348 27.2327 42.3344 26.9356 42.2959 26.5081C42.2703 26.2387 42.2083 26.0506 42.1099 25.9438C42.0116 25.8369 41.8962 25.7835 41.7637 25.7835C41.5585 25.7835 41.3832 25.8925 41.2379 26.1105C41.0156 26.4397 40.9044 26.9441 40.9044 27.6238C40.9044 28.1881 40.9942 28.7289 41.1737 29.2462C41.3533 29.7592 41.5991 30.1418 41.9112 30.394C42.1463 30.5778 42.4242 30.6697 42.7448 30.6697C42.9542 30.6697 43.153 30.6206 43.3411 30.5223C43.5292 30.4239 43.7515 30.238 44.008 29.9644ZM50.0293 28.2971H46.7397C46.7782 29.0923 46.9898 29.7207 47.3745 30.1824C47.6695 30.5372 48.0243 30.7146 48.439 30.7146C48.6955 30.7146 48.9285 30.6441 49.138 30.503C49.3474 30.3577 49.5719 30.099 49.8113 29.7271L50.0293 29.8682C49.7044 30.5308 49.3453 31.001 48.952 31.2789C48.5587 31.5525 48.1034 31.6893 47.5862 31.6893C46.697 31.6893 46.0237 31.3473 45.5662 30.6633C45.1986 30.1119 45.0148 29.4279 45.0148 28.6113C45.0148 27.611 45.2841 26.8159 45.8227 26.2259C46.3657 25.6317 47.0005 25.3346 47.7272 25.3346C48.3343 25.3346 48.8601 25.5847 49.3047 26.0848C49.7536 26.5807 49.9951 27.3182 50.0293 28.2971ZM48.4518 27.8675C48.4518 27.1792 48.4134 26.7069 48.3364 26.4504C48.2637 26.1939 48.1483 25.9993 47.9901 25.8668C47.9004 25.7899 47.7807 25.7514 47.631 25.7514C47.4087 25.7514 47.2271 25.8604 47.086 26.0784C46.8338 26.4589 46.7077 26.9805 46.7077 27.6431V27.8675H48.4518ZM53.2355 25.5141V26.29C53.5433 25.9566 53.8383 25.7151 54.1204 25.5654C54.4026 25.4115 54.7061 25.3346 55.031 25.3346C55.42 25.3346 55.7428 25.4436 55.9993 25.6616C56.2558 25.8754 56.4268 26.1426 56.5123 26.4632C56.5807 26.7069 56.6149 27.175 56.6149 27.8675V30.2016C56.6149 30.6633 56.6555 30.9519 56.7367 31.0673C56.8222 31.1785 56.9975 31.249 57.2625 31.2789V31.5098H54.2294V31.2789C54.456 31.249 54.6185 31.1549 54.7168 30.9968C54.7852 30.8899 54.8194 30.6249 54.8194 30.2016V27.5341C54.8194 27.0424 54.8001 26.7325 54.7617 26.6043C54.7232 26.476 54.6569 26.3777 54.5629 26.3093C54.4731 26.2366 54.3727 26.2003 54.2615 26.2003C53.8939 26.2003 53.5519 26.4632 53.2355 26.989V30.2016C53.2355 30.6505 53.2761 30.9348 53.3573 31.0545C53.4428 31.1742 53.5989 31.249 53.8255 31.2789V31.5098H50.7924V31.2789C51.0446 31.2533 51.2241 31.172 51.331 31.0352C51.4037 30.9412 51.44 30.6633 51.44 30.2016V26.8159C51.44 26.3627 51.3973 26.0806 51.3118 25.9694C51.2306 25.8583 51.0574 25.7856 50.7924 25.7514V25.5141H53.2355ZM60.4751 23.3211V25.5141H61.8987V26.149H60.4751V29.8489C60.4751 30.1952 60.4901 30.4197 60.52 30.5223C60.5542 30.6206 60.6119 30.7018 60.6932 30.7659C60.7744 30.8258 60.8492 30.8557 60.9176 30.8557C61.1955 30.8557 61.4584 30.6441 61.7063 30.2209L61.8987 30.3619C61.5524 31.1827 60.9903 31.5931 60.2122 31.5931C59.8318 31.5931 59.509 31.4884 59.244 31.2789C58.9832 31.0652 58.8165 30.8279 58.7438 30.5671C58.701 30.4218 58.6797 30.0285 58.6797 29.3873V26.149H57.8974V25.9245C58.436 25.5441 58.8934 25.1444 59.2696 24.7254C59.6501 24.3065 59.9814 23.8384 60.2635 23.3211H60.4751ZM70.0425 29.0346H66.9709L66.6054 29.881C66.4857 30.1632 66.4259 30.3961 66.4259 30.58C66.4259 30.8236 66.5242 31.0032 66.7209 31.1186C66.8363 31.187 67.1206 31.2383 67.5737 31.2725V31.5098H64.6817V31.2725C64.9938 31.2255 65.2503 31.0972 65.4512 30.8878C65.6521 30.674 65.9001 30.2358 66.195 29.5732L69.3051 22.635H69.4269L72.5626 29.7656C72.8618 30.441 73.1076 30.8664 73.3 31.0417C73.4454 31.1742 73.6506 31.2511 73.9156 31.2725V31.5098H69.709V31.2725H69.8822C70.2199 31.2725 70.4572 31.2255 70.594 31.1314C70.688 31.063 70.735 30.9647 70.735 30.8365C70.735 30.7595 70.7222 30.6804 70.6966 30.5992C70.688 30.5607 70.6239 30.4004 70.5042 30.1183L70.0425 29.0346ZM69.8245 28.56L68.5292 25.5654L67.1954 28.56H69.8245ZM79.4046 29.9644L79.6034 30.1183C79.3213 30.6484 78.9686 31.0438 78.5454 31.3046C78.1264 31.5611 77.6797 31.6893 77.2052 31.6893C76.4058 31.6893 75.7667 31.3879 75.2879 30.7852C74.8091 30.1824 74.5697 29.4578 74.5697 28.6113C74.5697 27.7948 74.7877 27.0766 75.2237 26.4568C75.7496 25.7087 76.4742 25.3346 77.3976 25.3346C78.0174 25.3346 78.509 25.4906 78.8724 25.8027C79.2401 26.1148 79.4239 26.4632 79.4239 26.8479C79.4239 27.0916 79.3491 27.2861 79.1994 27.4315C79.0541 27.5768 78.8617 27.6495 78.6223 27.6495C78.3701 27.6495 78.1606 27.5661 77.9939 27.3994C77.8315 27.2327 77.731 26.9356 77.6925 26.5081C77.6669 26.2387 77.6049 26.0506 77.5066 25.9438C77.4082 25.8369 77.2928 25.7835 77.1603 25.7835C76.9551 25.7835 76.7798 25.8925 76.6345 26.1105C76.4122 26.4397 76.301 26.9441 76.301 27.6238C76.301 28.1881 76.3908 28.7289 76.5703 29.2462C76.7499 29.7592 76.9957 30.1418 77.3078 30.394C77.5429 30.5778 77.8208 30.6697 78.1414 30.6697C78.3509 30.6697 78.5497 30.6206 78.7378 30.5223C78.9258 30.4239 79.1481 30.238 79.4046 29.9644ZM82.7263 23.3211V25.5141H84.1498V26.149H82.7263V29.8489C82.7263 30.1952 82.7412 30.4197 82.7712 30.5223C82.8054 30.6206 82.8631 30.7018 82.9443 30.7659C83.0255 30.8258 83.1003 30.8557 83.1687 30.8557C83.4466 30.8557 83.7095 30.6441 83.9575 30.2209L84.1498 30.3619C83.8036 31.1827 83.2414 31.5931 82.4634 31.5931C82.0829 31.5931 81.7601 31.4884 81.4951 31.2789C81.2343 31.0652 81.0676 30.8279 80.9949 30.5671C80.9522 30.4218 80.9308 30.0285 80.9308 29.3873V26.149H80.1485V25.9245C80.6871 25.5441 81.1446 25.1444 81.5207 24.7254C81.9012 24.3065 82.2325 23.8384 82.5147 23.3211H82.7263ZM86.1633 22.6093C86.4412 22.6093 86.6763 22.7076 86.8687 22.9043C87.0611 23.0967 87.1573 23.3296 87.1573 23.6032C87.1573 23.8768 87.0589 24.1098 86.8623 24.3022C86.6699 24.4946 86.4369 24.5908 86.1633 24.5908C85.8897 24.5908 85.6568 24.4946 85.4644 24.3022C85.272 24.1098 85.1758 23.8768 85.1758 23.6032C85.1758 23.3296 85.272 23.0967 85.4644 22.9043C85.6568 22.7076 85.8897 22.6093 86.1633 22.6093ZM87.0611 25.5141V30.2658C87.0611 30.689 87.1102 30.9604 87.2086 31.0801C87.3069 31.1956 87.4993 31.2618 87.7857 31.2789V31.5098H84.5474V31.2789C84.8125 31.2704 85.0091 31.1934 85.1374 31.0481C85.2229 30.9497 85.2656 30.689 85.2656 30.2658V26.7646C85.2656 26.3413 85.2164 26.072 85.1181 25.9566C85.0198 25.8369 84.8296 25.7685 84.5474 25.7514V25.5141H87.0611ZM91.0817 31.6893L89.0618 27.0403C88.8181 26.4803 88.6279 26.1255 88.4911 25.9758C88.3927 25.8647 88.2474 25.7899 88.055 25.7514V25.5141H91.242V25.7514C91.0411 25.7514 90.9043 25.7877 90.8316 25.8604C90.729 25.9545 90.6777 26.0656 90.6777 26.1939C90.6777 26.352 90.7718 26.6491 90.9598 27.0852L91.9474 29.336L92.7361 27.393C92.9627 26.8372 93.076 26.4439 93.076 26.2131C93.076 26.0806 93.0268 25.9737 92.9285 25.8925C92.8344 25.807 92.6656 25.76 92.4219 25.7514V25.5141H94.3841V25.7514C94.196 25.7771 94.0421 25.8476 93.9224 25.963C93.8027 26.0784 93.6231 26.4183 93.3837 26.9826L91.3831 31.6893H91.0817ZM96.3848 22.6093C96.6626 22.6093 96.8978 22.7076 97.0901 22.9043C97.2825 23.0967 97.3787 23.3296 97.3787 23.6032C97.3787 23.8768 97.2804 24.1098 97.0837 24.3022C96.8913 24.4946 96.6584 24.5908 96.3848 24.5908C96.1112 24.5908 95.8782 24.4946 95.6858 24.3022C95.4934 24.1098 95.3973 23.8768 95.3973 23.6032C95.3973 23.3296 95.4934 23.0967 95.6858 22.9043C95.8782 22.7076 96.1112 22.6093 96.3848 22.6093ZM97.2825 25.5141V30.2658C97.2825 30.689 97.3317 30.9604 97.43 31.0801C97.5283 31.1956 97.7207 31.2618 98.0071 31.2789V31.5098H94.7688V31.2789C95.0339 31.2704 95.2305 31.1934 95.3588 31.0481C95.4443 30.9497 95.487 30.689 95.487 30.2658V26.7646C95.487 26.3413 95.4379 26.072 95.3395 25.9566C95.2412 25.8369 95.051 25.7685 94.7688 25.7514V25.5141H97.2825ZM100.976 23.3211V25.5141H102.4V26.149H100.976V29.8489C100.976 30.1952 100.991 30.4197 101.021 30.5223C101.055 30.6206 101.113 30.7018 101.194 30.7659C101.275 30.8258 101.35 30.8557 101.419 30.8557C101.696 30.8557 101.959 30.6441 102.207 30.2209L102.4 30.3619C102.053 31.1827 101.491 31.5931 100.713 31.5931C100.333 31.5931 100.01 31.4884 99.7449 31.2789C99.4841 31.0652 99.3174 30.8279 99.2447 30.5671C99.202 30.4218 99.1806 30.0285 99.1806 29.3873V26.149H98.3983V25.9245C98.9369 25.5441 99.3943 25.1444 99.7705 24.7254C100.151 24.3065 100.482 23.8384 100.764 23.3211H100.976ZM105.721 31.7534L103.785 27.3096C103.494 26.6385 103.278 26.2259 103.137 26.072C103 25.9181 102.834 25.8113 102.637 25.7514V25.5141H105.824V25.7514C105.614 25.76 105.467 25.8006 105.381 25.8732C105.296 25.9459 105.253 26.0335 105.253 26.1361C105.253 26.2986 105.36 26.6192 105.574 27.098L106.6 29.445L107.299 27.6302C107.551 26.9847 107.677 26.5359 107.677 26.2836C107.677 26.1255 107.624 25.9993 107.517 25.9053C107.414 25.8113 107.23 25.76 106.965 25.7514V25.5141H108.972V25.7514C108.776 25.7728 108.615 25.8497 108.491 25.9822C108.367 26.1105 108.16 26.553 107.869 27.3096L106.157 31.7534C105.726 32.8649 105.405 33.5489 105.195 33.8054C104.9 34.1645 104.531 34.3441 104.086 34.3441C103.731 34.3441 103.443 34.2415 103.22 34.0363C103.002 33.8353 102.893 33.5917 102.893 33.3052C102.893 33.0573 102.968 32.8521 103.118 32.6897C103.272 32.5272 103.46 32.446 103.682 32.446C103.896 32.446 104.067 32.5144 104.195 32.6512C104.328 32.788 104.396 32.9996 104.4 33.286C104.405 33.4485 104.424 33.5532 104.458 33.6002C104.492 33.6472 104.541 33.6708 104.605 33.6708C104.708 33.6708 104.817 33.6088 104.933 33.4848C105.104 33.3052 105.304 32.8949 105.535 32.2536L105.721 31.7534Z" fill="#131316"/>
<path d="M241.521 28.8375C241.521 29.392 241.319 29.8239 240.917 30.1333C240.514 30.4426 239.971 30.5973 239.288 30.5973C238.938 30.5973 238.614 30.5711 238.316 30.5185C238.019 30.466 237.771 30.393 237.572 30.2996V29.5467C237.782 29.6401 238.042 29.7247 238.351 29.8006C238.667 29.8765 238.991 29.9144 239.323 29.9144C239.79 29.9144 240.14 29.8239 240.374 29.643C240.613 29.4621 240.733 29.2169 240.733 28.9076C240.733 28.7033 240.689 28.5311 240.601 28.391C240.514 28.2509 240.362 28.1225 240.146 28.0058C239.936 27.8832 239.641 27.7548 239.262 27.6206C238.731 27.428 238.328 27.1916 238.054 26.9114C237.785 26.6313 237.651 26.2489 237.651 25.7645C237.651 25.4318 237.736 25.1487 237.905 24.9153C238.074 24.6759 238.308 24.4921 238.605 24.3637C238.909 24.2353 239.256 24.1711 239.647 24.1711C239.992 24.1711 240.307 24.2032 240.593 24.2674C240.879 24.3316 241.138 24.4162 241.372 24.5213L241.127 25.1954C240.911 25.102 240.674 25.0232 240.418 24.959C240.167 24.8948 239.904 24.8627 239.63 24.8627C239.239 24.8627 238.944 24.9474 238.745 25.1166C238.547 25.28 238.448 25.4989 238.448 25.7733C238.448 25.9834 238.491 26.1585 238.579 26.2986C238.667 26.4386 238.81 26.5641 239.008 26.675C239.206 26.7859 239.475 26.9056 239.814 27.034C240.181 27.1682 240.491 27.3142 240.742 27.4717C240.998 27.6235 241.191 27.8074 241.319 28.0233C241.454 28.2393 241.521 28.5107 241.521 28.8375ZM244.531 25.7295C244.934 25.7295 245.278 25.817 245.564 25.9921C245.856 26.1672 246.078 26.4153 246.229 26.7363C246.387 27.0515 246.466 27.4221 246.466 27.8482V28.3122H243.253C243.264 28.8434 243.399 29.249 243.655 29.5292C243.918 29.8035 244.283 29.9407 244.75 29.9407C245.048 29.9407 245.31 29.9144 245.538 29.8619C245.771 29.8035 246.011 29.7218 246.256 29.6167V30.2909C246.016 30.3959 245.78 30.4718 245.547 30.5185C245.313 30.5711 245.036 30.5973 244.715 30.5973C244.271 30.5973 243.877 30.5068 243.533 30.3259C243.194 30.145 242.929 29.8765 242.736 29.5204C242.549 29.1586 242.456 28.7179 242.456 28.1984C242.456 27.6848 242.541 27.2441 242.71 26.8764C242.885 26.5087 243.127 26.2256 243.437 26.0272C243.752 25.8287 244.117 25.7295 244.531 25.7295ZM244.522 26.3598C244.155 26.3598 243.863 26.4795 243.647 26.7188C243.437 26.9523 243.311 27.2791 243.27 27.6994H245.66C245.655 27.3025 245.561 26.9815 245.38 26.7363C245.199 26.4853 244.913 26.3598 244.522 26.3598ZM249.517 25.7295C249.919 25.7295 250.264 25.817 250.55 25.9921C250.842 26.1672 251.063 26.4153 251.215 26.7363C251.373 27.0515 251.452 27.4221 251.452 27.8482V28.3122H248.238C248.25 28.8434 248.384 29.249 248.641 29.5292C248.904 29.8035 249.269 29.9407 249.736 29.9407C250.033 29.9407 250.296 29.9144 250.523 29.8619C250.757 29.8035 250.996 29.7218 251.241 29.6167V30.2909C251.002 30.3959 250.766 30.4718 250.532 30.5185C250.299 30.5711 250.022 30.5973 249.7 30.5973C249.257 30.5973 248.863 30.5068 248.519 30.3259C248.18 30.145 247.914 29.8765 247.722 29.5204C247.535 29.1586 247.442 28.7179 247.442 28.1984C247.442 27.6848 247.526 27.2441 247.696 26.8764C247.871 26.5087 248.113 26.2256 248.422 26.0272C248.737 25.8287 249.102 25.7295 249.517 25.7295ZM249.508 26.3598C249.14 26.3598 248.848 26.4795 248.632 26.7188C248.422 26.9523 248.297 27.2791 248.256 27.6994H250.646C250.64 27.3025 250.547 26.9815 250.366 26.7363C250.185 26.4853 249.899 26.3598 249.508 26.3598ZM255.665 25.7382C256.237 25.7382 256.66 25.8637 256.935 26.1147C257.209 26.3657 257.346 26.7655 257.346 27.3142V30.5098H256.786L256.637 29.8444H256.602C256.398 30.1012 256.182 30.2909 255.954 30.4135C255.732 30.536 255.423 30.5973 255.026 30.5973C254.6 30.5973 254.247 30.4864 253.967 30.2646C253.687 30.037 253.547 29.6839 253.547 29.2053C253.547 28.7383 253.73 28.3794 254.098 28.1284C254.466 27.8716 255.032 27.7315 255.797 27.7081L256.593 27.6819V27.4017C256.593 27.0106 256.509 26.7392 256.339 26.5875C256.17 26.4357 255.931 26.3598 255.621 26.3598C255.376 26.3598 255.143 26.3978 254.921 26.4737C254.699 26.5437 254.492 26.6254 254.299 26.7188L254.063 26.141C254.267 26.0301 254.51 25.9367 254.79 25.8608C255.07 25.7791 255.362 25.7382 255.665 25.7382ZM255.893 28.2422C255.309 28.2655 254.904 28.3589 254.676 28.5224C254.454 28.6858 254.343 28.9163 254.343 29.214C254.343 29.4767 254.422 29.6693 254.58 29.7918C254.743 29.9144 254.95 29.9757 255.201 29.9757C255.598 29.9757 255.928 29.8677 256.191 29.6518C256.453 29.43 256.585 29.0914 256.585 28.6362V28.2159L255.893 28.2422ZM259.61 30.5098H258.839V23.8559H259.61V30.5098ZM261.911 30.5098H261.14V23.8559H261.911V30.5098Z" fill="#5235E8"/>
<mask id="path-4-inside-1_927_438727" fill="white">
<path d="M23.3472 43.3467L262.653 43.3467V95.8773H23.3472V43.3467Z"/>
</mask>
<path d="M262.653 95.8773V95.1477H23.3472V95.8773V96.6069H262.653V95.8773Z" fill="#E3E3E8" mask="url(#path-4-inside-1_927_438727)"/>
<g clip-path="url(#clip0_927_438727)">
<circle cx="37.939" cy="69.6124" r="14.5918" fill="#DAF727"/>
<g clip-path="url(#clip1_927_438727)">
<path fill-rule="evenodd" clip-rule="evenodd" d="M37.9389 63.8976C34.7825 63.8976 32.2237 66.4563 32.2237 69.6127C32.2237 71.7276 33.3724 73.5748 35.0816 74.5635C35.256 74.6644 35.3156 74.8875 35.2147 75.0619C35.1138 75.2363 34.8906 75.2959 34.7162 75.195C32.7909 74.0812 31.4941 71.9986 31.4941 69.6127C31.4941 66.0534 34.3795 63.168 37.9389 63.168C41.4982 63.168 44.3836 66.0534 44.3836 69.6127C44.3836 71.9986 43.0869 74.0812 41.1615 75.195C40.9871 75.2959 40.764 75.2363 40.6631 75.0619C40.5622 74.8875 40.6218 74.6644 40.7962 74.5635C42.5054 73.5748 43.654 71.7276 43.654 69.6127C43.654 66.4563 41.0953 63.8976 37.9389 63.8976ZM37.6809 66.9228C37.8234 66.7804 38.0544 66.7804 38.1968 66.9228L40.6288 69.3548C40.7713 69.4973 40.7713 69.7282 40.6288 69.8707C40.4863 70.0132 40.2554 70.0132 40.1129 69.8707L38.3037 68.0615V75.6927C38.3037 75.8941 38.1403 76.0575 37.9389 76.0575C37.7374 76.0575 37.5741 75.8941 37.5741 75.6927V68.0615L35.7648 69.8707C35.6224 70.0132 35.3914 70.0132 35.2489 69.8707C35.1065 69.7282 35.1065 69.4973 35.2489 69.3548L37.6809 66.9228Z" fill="#0E0637"/>
</g>
</g>
<path d="M61.5255 66.3493H65.0167V66.5339H64.8422C64.5795 66.5339 64.3983 66.5621 64.2986 66.6186C64.2021 66.6718 64.1323 66.7467 64.0891 66.8431C64.0492 66.9395 64.0292 67.1806 64.0292 67.5663V70.8779C64.0292 71.4831 64.0741 71.8837 64.1639 72.0799C64.257 72.2761 64.4083 72.439 64.6177 72.5687C64.8272 72.6983 65.0916 72.7632 65.4108 72.7632C65.7765 72.7632 66.0874 72.6817 66.3434 72.5188C66.6028 72.3526 66.7956 72.1248 66.9219 71.8355C67.0516 71.5462 67.1165 71.0425 67.1165 70.3243V67.5663C67.1165 67.2637 67.0849 67.0476 67.0217 66.9179C66.9585 66.7882 66.8787 66.6984 66.7823 66.6486C66.6327 66.5721 66.4215 66.5339 66.1489 66.5339V66.3493H68.488V66.5339H68.3484C68.1588 66.5339 68.0009 66.5721 67.8745 66.6486C67.7482 66.725 67.6568 66.8398 67.6002 66.9927C67.557 67.0991 67.5354 67.2903 67.5354 67.5663V70.1348C67.5354 70.9295 67.4822 71.503 67.3758 71.8555C67.2727 72.2079 67.0184 72.5321 66.6127 72.828C66.2071 73.1239 65.6535 73.2719 64.9519 73.2719C64.3667 73.2719 63.9145 73.1938 63.5953 73.0375C63.1598 72.8247 62.8522 72.552 62.6726 72.2196C62.4931 71.8871 62.4033 71.4398 62.4033 70.8779V67.5663C62.4033 67.1772 62.3817 66.9362 62.3385 66.8431C62.2953 66.7467 62.2204 66.6702 62.114 66.6137C62.0077 66.5571 61.8115 66.5305 61.5255 66.5339V66.3493ZM70.8171 72.6385V74.3741C70.8171 74.6135 70.8354 74.7764 70.872 74.8629C70.9119 74.9493 70.9718 75.0125 71.0516 75.0524C71.1314 75.0923 71.2876 75.1123 71.5204 75.1123V75.2968H68.8621V75.1123C69.0682 75.1056 69.2212 75.0474 69.3209 74.9377C69.3874 74.8612 69.4207 74.6634 69.4207 74.3442V69.4216C69.4207 69.0924 69.3824 68.8829 69.3059 68.7932C69.2295 68.7001 69.0815 68.6469 68.8621 68.6336V68.449H70.8171V69.0625C70.9801 68.8231 71.1463 68.6502 71.3159 68.5438C71.5586 68.3875 71.8229 68.3094 72.1089 68.3094C72.4514 68.3094 72.7622 68.4175 73.0415 68.6336C73.3242 68.8497 73.5386 69.1489 73.6849 69.5313C73.8312 69.9104 73.9044 70.3193 73.9044 70.7582C73.9044 71.2304 73.8279 71.6626 73.675 72.055C73.5253 72.444 73.3059 72.7416 73.0166 72.9477C72.7307 73.1505 72.4115 73.252 72.059 73.252C71.803 73.252 71.5636 73.1954 71.3408 73.0824C71.1746 72.9959 71 72.848 70.8171 72.6385ZM70.8171 72.1348C71.1031 72.5404 71.409 72.7432 71.7348 72.7432C71.9144 72.7432 72.0623 72.6485 72.1787 72.4589C72.3516 72.1797 72.4381 71.6477 72.4381 70.863C72.4381 70.0583 72.3433 69.508 72.1538 69.2121C72.0274 69.0159 71.8579 68.9179 71.6451 68.9179C71.3092 68.9179 71.0333 69.1606 70.8171 69.646V72.1348ZM76.8021 73.252L75.231 69.6361C75.0415 69.2005 74.8935 68.9245 74.7872 68.8081C74.7107 68.7217 74.5976 68.6635 74.448 68.6336V68.449H76.9268V68.6336C76.7705 68.6336 76.6641 68.6618 76.6076 68.7184C76.5278 68.7915 76.4879 68.878 76.4879 68.9777C76.4879 69.1007 76.561 69.3318 76.7073 69.671L77.4754 71.4216L78.0888 69.9104C78.2651 69.4781 78.3532 69.1722 78.3532 68.9927C78.3532 68.8896 78.3149 68.8065 78.2385 68.7433C78.1653 68.6768 78.034 68.6402 77.8445 68.6336V68.449H79.3706V68.6336C79.2243 68.6535 79.1046 68.7084 79.0115 68.7982C78.9184 68.8879 78.7788 69.1523 78.5926 69.5912L77.0365 73.252H76.8021ZM82.004 68.3094C82.4096 68.3094 82.787 68.4141 83.1361 68.6236C83.4853 68.8331 83.7496 69.1307 83.9291 69.5164C84.112 69.9021 84.2034 70.3243 84.2034 70.7832C84.2034 71.4448 84.0355 71.9984 83.6997 72.444C83.2941 72.9826 82.7338 73.252 82.0189 73.252C81.3174 73.252 80.7771 73.0059 80.398 72.5138C80.019 72.0217 79.8295 71.4515 79.8295 70.8031C79.8295 70.1348 80.0223 69.5529 80.408 69.0575C80.797 68.5588 81.329 68.3094 82.004 68.3094ZM82.0239 68.6635C81.8544 68.6635 81.7081 68.7283 81.585 68.858C81.4653 68.9844 81.3855 69.2371 81.3456 69.6161C81.3091 69.9918 81.2908 70.5155 81.2908 71.1872C81.2908 71.5429 81.3141 71.8754 81.3606 72.1846C81.3972 72.4207 81.4753 72.6003 81.595 72.7233C81.7147 72.8463 81.851 72.9078 82.004 72.9078C82.1536 72.9078 82.2783 72.8663 82.378 72.7831C82.5077 72.6701 82.5942 72.5121 82.6374 72.3093C82.7039 71.9935 82.7371 71.3551 82.7371 70.3941C82.7371 69.8289 82.7056 69.4415 82.6424 69.2321C82.5792 69.0193 82.4861 68.8647 82.3631 68.7682C82.2766 68.6984 82.1636 68.6635 82.0239 68.6635ZM86.762 66.7433V68.449H87.8692V68.9428H86.762V71.8206C86.762 72.0899 86.7736 72.2644 86.7969 72.3442C86.8235 72.4207 86.8684 72.4839 86.9316 72.5338C86.9948 72.5803 87.0529 72.6036 87.1061 72.6036C87.3223 72.6036 87.5268 72.439 87.7196 72.1098L87.8692 72.2196C87.5999 72.8579 87.1627 73.1771 86.5575 73.1771C86.2616 73.1771 86.0106 73.0957 85.8044 72.9328C85.6016 72.7665 85.4719 72.582 85.4154 72.3792C85.3821 72.2661 85.3655 71.9602 85.3655 71.4615V68.9428H84.7571V68.7682C85.176 68.4723 85.5318 68.1614 85.8244 67.8356C86.1203 67.5097 86.378 67.1457 86.5974 66.7433H86.762ZM92.2632 70.6136H89.7046C89.7345 71.232 89.8991 71.7208 90.1984 72.0799C90.4278 72.3559 90.7038 72.4939 91.0263 72.4939C91.2258 72.4939 91.407 72.439 91.5699 72.3293C91.7328 72.2162 91.9074 72.0151 92.0936 71.7258L92.2632 71.8355C92.0105 72.3509 91.7312 72.7166 91.4253 72.9328C91.1194 73.1456 90.7653 73.252 90.3629 73.252C89.6714 73.252 89.1477 72.986 88.7919 72.454C88.506 72.025 88.363 71.493 88.363 70.858C88.363 70.0799 88.5725 69.4615 88.9914 69.0026C89.4137 68.5405 89.9074 68.3094 90.4727 68.3094C90.9448 68.3094 91.3538 68.5039 91.6996 68.8929C92.0487 69.2786 92.2366 69.8522 92.2632 70.6136ZM91.0363 70.2794C91.0363 69.7441 91.0063 69.3767 90.9465 69.1772C90.89 68.9777 90.8002 68.8264 90.6772 68.7234C90.6073 68.6635 90.5142 68.6336 90.3979 68.6336C90.225 68.6336 90.0836 68.7184 89.9739 68.8879C89.7778 69.1839 89.6797 69.5895 89.6797 70.1049V70.2794H91.0363Z" fill="#2F2F37"/>
<path d="M183.375 70.9401C183.375 71.4946 183.174 71.9265 182.771 72.2358C182.368 72.5452 181.825 72.6999 181.142 72.6999C180.792 72.6999 180.468 72.6736 180.171 72.6211C179.873 72.5685 179.625 72.4956 179.426 72.4022V71.6492C179.637 71.7426 179.896 71.8273 180.206 71.9031C180.521 71.979 180.845 72.017 181.178 72.017C181.644 72.017 181.995 71.9265 182.228 71.7455C182.467 71.5646 182.587 71.3195 182.587 71.0101C182.587 70.8058 182.543 70.6337 182.456 70.4936C182.368 70.3535 182.216 70.2251 182 70.1083C181.79 69.9858 181.496 69.8574 181.116 69.7231C180.585 69.5305 180.182 69.2941 179.908 69.014C179.64 68.7338 179.505 68.3515 179.505 67.867C179.505 67.5343 179.59 67.2513 179.759 67.0178C179.928 66.7785 180.162 66.5946 180.46 66.4662C180.763 66.3378 181.11 66.2736 181.501 66.2736C181.846 66.2736 182.161 66.3057 182.447 66.3699C182.733 66.4341 182.993 66.5188 183.226 66.6238L182.981 67.298C182.765 67.2046 182.529 67.1258 182.272 67.0616C182.021 66.9974 181.758 66.9653 181.484 66.9653C181.093 66.9653 180.798 67.0499 180.6 67.2192C180.401 67.3826 180.302 67.6015 180.302 67.8758C180.302 68.0859 180.346 68.261 180.433 68.4011C180.521 68.5412 180.664 68.6667 180.862 68.7776C181.061 68.8885 181.329 69.0081 181.668 69.1365C182.036 69.2708 182.345 69.4167 182.596 69.5743C182.853 69.726 183.045 69.9099 183.174 70.1259C183.308 70.3418 183.375 70.6132 183.375 70.9401ZM186.385 67.832C186.788 67.832 187.132 67.9196 187.418 68.0947C187.71 68.2698 187.932 68.5178 188.084 68.8389C188.241 69.154 188.32 69.5247 188.32 69.9508V70.4148H185.107C185.119 70.9459 185.253 71.3516 185.51 71.6317C185.772 71.9061 186.137 72.0432 186.604 72.0432C186.902 72.0432 187.165 72.017 187.392 71.9644C187.626 71.9061 187.865 71.8243 188.11 71.7193V72.3934C187.871 72.4985 187.634 72.5744 187.401 72.6211C187.167 72.6736 186.89 72.6999 186.569 72.6999C186.126 72.6999 185.732 72.6094 185.387 72.4284C185.049 72.2475 184.783 71.979 184.59 71.623C184.404 71.2611 184.31 70.8204 184.31 70.301C184.31 69.7873 184.395 69.3466 184.564 68.9789C184.739 68.6112 184.982 68.3281 185.291 68.1297C185.606 67.9312 185.971 67.832 186.385 67.832ZM186.377 68.4624C186.009 68.4624 185.717 68.582 185.501 68.8213C185.291 69.0548 185.165 69.3817 185.125 69.8019H187.515C187.509 69.405 187.415 69.084 187.235 68.8389C187.054 68.5879 186.768 68.4624 186.377 68.4624ZM191.791 67.832C192.369 67.832 192.833 68.0334 193.183 68.4361C193.539 68.8389 193.717 69.4459 193.717 70.2572C193.717 71.0568 193.539 71.6638 193.183 72.0782C192.833 72.4927 192.366 72.6999 191.782 72.6999C191.421 72.6999 191.12 72.6327 190.881 72.4985C190.647 72.3584 190.463 72.1979 190.329 72.017H190.277C190.288 72.1162 190.3 72.2417 190.312 72.3934C190.323 72.5452 190.329 72.6765 190.329 72.7874V74.7135H189.559V67.9196H190.189L190.294 68.5587H190.329C190.469 68.3544 190.653 68.1822 190.881 68.0421C191.108 67.9021 191.412 67.832 191.791 67.832ZM191.651 68.4799C191.172 68.4799 190.834 68.6141 190.635 68.8826C190.443 69.1511 190.341 69.5597 190.329 70.1083V70.2572C190.329 70.835 190.422 71.2815 190.609 71.5967C190.802 71.9061 191.155 72.0607 191.669 72.0607C191.955 72.0607 192.188 71.9819 192.369 71.8243C192.556 71.6668 192.693 71.4537 192.78 71.1852C192.874 70.9109 192.921 70.5986 192.921 70.2484C192.921 69.7114 192.816 69.2824 192.605 68.9614C192.401 68.6404 192.083 68.4799 191.651 68.4799ZM199.995 72.6123H195.863V71.9732L197.5 70.3185C197.815 70.0033 198.081 69.7231 198.297 69.478C198.513 69.2328 198.676 68.9935 198.787 68.7601C198.898 68.5208 198.953 68.261 198.953 67.9809C198.953 67.6365 198.851 67.3768 198.647 67.2016C198.443 67.0207 198.177 66.9302 197.85 66.9302C197.547 66.9302 197.278 66.9828 197.045 67.0878C196.817 67.1929 196.584 67.3388 196.344 67.5256L195.933 67.009C196.178 66.8048 196.458 66.6326 196.773 66.4925C197.094 66.3466 197.453 66.2736 197.85 66.2736C198.434 66.2736 198.895 66.4224 199.234 66.7201C199.572 67.012 199.741 67.4176 199.741 67.9371C199.741 68.2639 199.674 68.5704 199.54 68.8564C199.406 69.1424 199.219 69.4254 198.98 69.7056C198.74 69.9799 198.46 70.2747 198.139 70.5899L196.835 71.8769V71.9119H199.995V72.6123ZM205.076 69.478C205.076 70.1492 205.006 70.727 204.865 71.2115C204.725 71.6901 204.504 72.0578 204.2 72.3146C203.897 72.5714 203.494 72.6999 202.992 72.6999C202.286 72.6999 201.763 72.4168 201.425 71.8506C201.092 71.2786 200.926 70.4877 200.926 69.478C200.926 68.8009 200.993 68.2231 201.127 67.7445C201.267 67.2659 201.489 66.9011 201.792 66.6501C202.096 66.3933 202.496 66.2649 202.992 66.2649C203.692 66.2649 204.215 66.5479 204.559 67.1141C204.903 67.6744 205.076 68.4624 205.076 69.478ZM201.696 69.478C201.696 70.336 201.792 70.978 201.985 71.4041C202.183 71.8302 202.519 72.0432 202.992 72.0432C203.459 72.0432 203.792 71.8331 203.99 71.4129C204.194 70.9868 204.296 70.3418 204.296 69.478C204.296 68.6258 204.194 67.9867 203.99 67.5606C203.792 67.1345 203.459 66.9215 202.992 66.9215C202.519 66.9215 202.183 67.1345 201.985 67.5606C201.792 67.9867 201.696 68.6258 201.696 69.478ZM207.232 71.693C207.156 72.0024 207.045 72.3409 206.899 72.7086C206.759 73.0822 206.619 73.4265 206.479 73.7417H205.91C205.991 73.409 206.073 73.0442 206.155 72.6473C206.242 72.2504 206.307 71.9002 206.347 71.5967H207.17L207.232 71.693ZM213.688 72.6123H209.555V71.9732L211.193 70.3185C211.508 70.0033 211.773 69.7231 211.989 69.478C212.205 69.2328 212.369 68.9935 212.48 68.7601C212.591 68.5208 212.646 68.261 212.646 67.9809C212.646 67.6365 212.544 67.3768 212.34 67.2016C212.135 67.0207 211.87 66.9302 211.543 66.9302C211.239 66.9302 210.971 66.9828 210.737 67.0878C210.51 67.1929 210.276 67.3388 210.037 67.5256L209.625 67.009C209.871 66.8048 210.151 66.6326 210.466 66.4925C210.787 66.3466 211.146 66.2736 211.543 66.2736C212.126 66.2736 212.588 66.4224 212.926 66.7201C213.265 67.012 213.434 67.4176 213.434 67.9371C213.434 68.2639 213.367 68.5704 213.233 68.8564C213.098 69.1424 212.912 69.4254 212.672 69.7056C212.433 69.9799 212.153 70.2747 211.832 70.5899L210.527 71.8769V71.9119H213.688V72.6123ZM218.768 69.478C218.768 70.1492 218.698 70.727 218.558 71.2115C218.418 71.6901 218.196 72.0578 217.893 72.3146C217.589 72.5714 217.186 72.6999 216.684 72.6999C215.978 72.6999 215.456 72.4168 215.117 71.8506C214.785 71.2786 214.618 70.4877 214.618 69.478C214.618 68.8009 214.685 68.2231 214.82 67.7445C214.96 67.2659 215.181 66.9011 215.485 66.6501C215.788 66.3933 216.188 66.2649 216.684 66.2649C217.385 66.2649 217.907 66.5479 218.252 67.1141C218.596 67.6744 218.768 68.4624 218.768 69.478ZM215.389 69.478C215.389 70.336 215.485 70.978 215.678 71.4041C215.876 71.8302 216.212 72.0432 216.684 72.0432C217.151 72.0432 217.484 71.8331 217.682 71.4129C217.887 70.9868 217.989 70.3418 217.989 69.478C217.989 68.6258 217.887 67.9867 217.682 67.5606C217.484 67.1345 217.151 66.9215 216.684 66.9215C216.212 66.9215 215.876 67.1345 215.678 67.5606C215.485 67.9867 215.389 68.6258 215.389 69.478ZM223.796 72.6123H219.663V71.9732L221.301 70.3185C221.616 70.0033 221.881 69.7231 222.097 69.478C222.313 69.2328 222.477 68.9935 222.588 68.7601C222.699 68.5208 222.754 68.261 222.754 67.9809C222.754 67.6365 222.652 67.3768 222.448 67.2016C222.243 67.0207 221.978 66.9302 221.651 66.9302C221.347 66.9302 221.079 66.9828 220.845 67.0878C220.618 67.1929 220.384 67.3388 220.145 67.5256L219.733 67.009C219.979 66.8048 220.259 66.6326 220.574 66.4925C220.895 66.3466 221.254 66.2736 221.651 66.2736C222.235 66.2736 222.696 66.4224 223.034 66.7201C223.373 67.012 223.542 67.4176 223.542 67.9371C223.542 68.2639 223.475 68.5704 223.341 68.8564C223.206 69.1424 223.02 69.4254 222.78 69.7056C222.541 69.9799 222.261 70.2747 221.94 70.5899L220.635 71.8769V71.9119H223.796V72.6123ZM229.13 71.194H228.22V72.6123H227.475V71.194H224.481V70.5373L227.423 66.3261H228.22V70.5023H229.13V71.194ZM227.475 68.5324C227.475 68.2289 227.481 67.9721 227.493 67.762C227.505 67.546 227.513 67.3417 227.519 67.1491H227.484C227.437 67.26 227.379 67.3797 227.309 67.5081C227.239 67.6365 227.172 67.7445 227.108 67.832L225.234 70.5023H227.475V68.5324Z" fill="#717184"/>
<path d="M244.464 69.2153H246.206V69.8369H244.464V71.6405H243.833V69.8369H242.091V69.2153H243.833V67.403H244.464V69.2153ZM251.26 72.6123H247.128V71.9732L248.765 70.3185C249.08 70.0033 249.346 69.7231 249.562 69.478C249.777 69.2328 249.941 68.9935 250.052 68.7601C250.163 68.5208 250.218 68.261 250.218 67.9809C250.218 67.6365 250.116 67.3768 249.912 67.2016C249.707 67.0207 249.442 66.9302 249.115 66.9302C248.811 66.9302 248.543 66.9828 248.31 67.0878C248.082 67.1929 247.848 67.3388 247.609 67.5256L247.198 67.009C247.443 66.8048 247.723 66.6326 248.038 66.4925C248.359 66.3466 248.718 66.2736 249.115 66.2736C249.699 66.2736 250.16 66.4224 250.498 66.7201C250.837 67.012 251.006 67.4176 251.006 67.9371C251.006 68.2639 250.939 68.5704 250.805 68.8564C250.67 69.1424 250.484 69.4254 250.244 69.7056C250.005 69.9799 249.725 70.2747 249.404 70.5899L248.099 71.8769V71.9119H251.26V72.6123ZM256.34 69.478C256.34 70.1492 256.27 70.727 256.13 71.2115C255.99 71.6901 255.768 72.0578 255.465 72.3146C255.161 72.5714 254.759 72.6999 254.257 72.6999C253.55 72.6999 253.028 72.4168 252.689 71.8506C252.357 71.2786 252.19 70.4877 252.19 69.478C252.19 68.8009 252.257 68.2231 252.392 67.7445C252.532 67.2659 252.754 66.9011 253.057 66.6501C253.361 66.3933 253.76 66.2649 254.257 66.2649C254.957 66.2649 255.479 66.5479 255.824 67.1141C256.168 67.6744 256.34 68.4624 256.34 69.478ZM252.961 69.478C252.961 70.336 253.057 70.978 253.25 71.4041C253.448 71.8302 253.784 72.0432 254.257 72.0432C254.724 72.0432 255.056 71.8331 255.255 71.4129C255.459 70.9868 255.561 70.3418 255.561 69.478C255.561 68.6258 255.459 67.9867 255.255 67.5606C255.056 67.1345 254.724 66.9215 254.257 66.9215C253.784 66.9215 253.448 67.1345 253.25 67.5606C253.057 67.9867 252.961 68.6258 252.961 69.478ZM261.394 69.478C261.394 70.1492 261.324 70.727 261.184 71.2115C261.044 71.6901 260.822 72.0578 260.519 72.3146C260.215 72.5714 259.813 72.6999 259.311 72.6999C258.604 72.6999 258.082 72.4168 257.743 71.8506C257.411 71.2786 257.244 70.4877 257.244 69.478C257.244 68.8009 257.312 68.2231 257.446 67.7445C257.586 67.2659 257.808 66.9011 258.111 66.6501C258.415 66.3933 258.814 66.2649 259.311 66.2649C260.011 66.2649 260.533 66.5479 260.878 67.1141C261.222 67.6744 261.394 68.4624 261.394 69.478ZM258.015 69.478C258.015 70.336 258.111 70.978 258.304 71.4041C258.502 71.8302 258.838 72.0432 259.311 72.0432C259.778 72.0432 260.11 71.8331 260.309 71.4129C260.513 70.9868 260.615 70.3418 260.615 69.478C260.615 68.6258 260.513 67.9867 260.309 67.5606C260.11 67.1345 259.778 66.9215 259.311 66.9215C258.838 66.9215 258.502 67.1345 258.304 67.5606C258.111 67.9867 258.015 68.6258 258.015 69.478Z" fill="#5235E8"/>
<mask id="path-11-inside-2_927_438727" fill="white">
<path d="M23.3472 95.8779H262.653V148.409H23.3472V95.8779Z"/>
</mask>
<path d="M262.653 148.409V147.679H23.3472V148.409V149.138H262.653V148.409Z" fill="#E3E3E8" mask="url(#path-11-inside-2_927_438727)"/>
<g clip-path="url(#clip2_927_438727)">
<circle cx="37.939" cy="122.144" r="14.5918" fill="#0E0637"/>
<path fill-rule="evenodd" clip-rule="evenodd" d="M37.9389 115.699C38.1403 115.699 38.3037 115.863 38.3037 116.064V123.695L40.1129 121.886C40.2554 121.744 40.4863 121.744 40.6288 121.886C40.7713 122.028 40.7713 122.259 40.6288 122.402L38.1968 124.834C38.0544 124.976 37.8234 124.976 37.6809 124.834L35.2489 122.402C35.1065 122.259 35.1065 122.028 35.2489 121.886C35.3914 121.744 35.6224 121.744 35.7648 121.886L37.5741 123.695V116.064C37.5741 115.863 37.7374 115.699 37.9389 115.699ZM35.2147 116.695C35.3156 116.869 35.256 117.092 35.0816 117.193C33.3724 118.182 32.2237 120.029 32.2237 122.144C32.2237 125.3 34.7825 127.859 37.9389 127.859C41.0953 127.859 43.654 125.3 43.654 122.144C43.654 120.029 42.5054 118.182 40.7962 117.193C40.6218 117.092 40.5622 116.869 40.6631 116.695C40.764 116.52 40.9871 116.461 41.1615 116.562C43.0869 117.675 44.3836 119.758 44.3836 122.144C44.3836 125.703 41.4982 128.589 37.9389 128.589C34.3795 128.589 31.4941 125.703 31.4941 122.144C31.4941 119.758 32.7909 117.675 34.7162 116.562C34.8906 116.461 35.1138 116.52 35.2147 116.695Z" fill="white"/>
</g>
<path d="M61.4208 125.644V125.459H61.6452C61.8414 125.459 61.991 125.429 62.0941 125.369C62.2005 125.306 62.2786 125.221 62.3285 125.115C62.3584 125.045 62.3734 124.836 62.3734 124.486V120.038C62.3734 119.692 62.3551 119.476 62.3185 119.389C62.282 119.303 62.2071 119.228 62.0941 119.165C61.9844 119.098 61.8348 119.065 61.6452 119.065H61.4208V118.881H64.4482C65.2561 118.881 65.9062 118.99 66.3983 119.21C67.0001 119.479 67.4556 119.886 67.7648 120.432C68.0774 120.977 68.2336 121.594 68.2336 122.282C68.2336 122.757 68.1572 123.196 68.0042 123.599C67.8513 123.998 67.6534 124.329 67.4107 124.591C67.168 124.851 66.887 125.06 66.5678 125.22C66.252 125.376 65.8646 125.497 65.4058 125.584C65.2029 125.624 64.8837 125.644 64.4482 125.644H61.4208ZM63.9993 119.265V124.541C63.9993 124.821 64.0126 124.992 64.0392 125.055C64.0658 125.118 64.1107 125.166 64.1739 125.2C64.2636 125.25 64.3933 125.274 64.5629 125.274C65.1182 125.274 65.5421 125.085 65.8347 124.706C66.2337 124.194 66.4332 123.399 66.4332 122.322C66.4332 121.454 66.2969 120.761 66.0242 120.242C65.8081 119.837 65.5304 119.561 65.1913 119.414C64.9519 119.311 64.5546 119.261 63.9993 119.265ZM71.2112 120.841C71.6168 120.841 71.9942 120.945 72.3433 121.155C72.6924 121.364 72.9568 121.662 73.1363 122.048C73.3192 122.433 73.4106 122.856 73.4106 123.314C73.4106 123.976 73.2427 124.53 72.9069 124.975C72.5012 125.514 71.941 125.783 71.2261 125.783C70.5245 125.783 69.9842 125.537 69.6052 125.045C69.2261 124.553 69.0366 123.983 69.0366 123.334C69.0366 122.666 69.2295 122.084 69.6152 121.589C70.0042 121.09 70.5362 120.841 71.2112 120.841ZM71.2311 121.195C71.0615 121.195 70.9152 121.26 70.7922 121.389C70.6725 121.516 70.5927 121.768 70.5528 122.147C70.5162 122.523 70.4979 123.047 70.4979 123.718C70.4979 124.074 70.5212 124.407 70.5678 124.716C70.6043 124.952 70.6825 125.132 70.8022 125.255C70.9219 125.378 71.0582 125.439 71.2112 125.439C71.3608 125.439 71.4855 125.398 71.5852 125.314C71.7149 125.201 71.8013 125.043 71.8446 124.841C71.9111 124.525 71.9443 123.886 71.9443 122.925C71.9443 122.36 71.9127 121.973 71.8495 121.763C71.7864 121.551 71.6933 121.396 71.5702 121.299C71.4838 121.23 71.3707 121.195 71.2311 121.195ZM78.7422 125.783L77.4654 122.362L76.2136 125.783H75.9542L74.7123 122.402C74.5261 121.886 74.3682 121.551 74.2385 121.394C74.1554 121.288 74.0291 121.211 73.8595 121.165V120.98H76.2136V121.165C76.054 121.165 75.9442 121.188 75.8844 121.235C75.8245 121.281 75.7946 121.334 75.7946 121.394C75.7946 121.451 75.8478 121.62 75.9542 121.903L76.6375 123.723L77.2958 121.903L77.246 121.783C77.1462 121.534 77.0581 121.376 76.9816 121.309C76.9085 121.24 76.7938 121.191 76.6375 121.165V120.98H79.0265V121.165C78.8403 121.175 78.7222 121.201 78.6724 121.245C78.6225 121.285 78.5976 121.343 78.5976 121.419C78.5976 121.492 78.6458 121.654 78.7422 121.903L79.4005 123.723L79.999 122.048C80.0855 121.808 80.1287 121.645 80.1287 121.559C80.1287 121.429 80.0971 121.334 80.0339 121.275C79.9708 121.215 79.8477 121.178 79.6649 121.165V120.98H81.0464V121.165C80.8934 121.185 80.7721 121.24 80.6823 121.329C80.5925 121.416 80.4762 121.665 80.3332 122.078L79.0265 125.783H78.7422ZM83.4055 120.98V121.584C83.6449 121.324 83.8743 121.137 84.0937 121.02C84.3132 120.9 84.5492 120.841 84.8019 120.841C85.1045 120.841 85.3556 120.925 85.555 121.095C85.7545 121.261 85.8875 121.469 85.954 121.718C86.0072 121.908 86.0338 122.272 86.0338 122.811V124.626C86.0338 124.985 86.0654 125.21 86.1286 125.299C86.1951 125.386 86.3314 125.441 86.5376 125.464V125.644H84.1785V125.464C84.3547 125.441 84.4811 125.368 84.5576 125.245C84.6108 125.161 84.6374 124.955 84.6374 124.626V122.551C84.6374 122.169 84.6224 121.928 84.5925 121.828C84.5625 121.728 84.511 121.652 84.4379 121.599C84.368 121.542 84.2899 121.514 84.2035 121.514C83.9175 121.514 83.6515 121.718 83.4055 122.127V124.626C83.4055 124.975 83.437 125.196 83.5002 125.289C83.5667 125.383 83.6881 125.441 83.8643 125.464V125.644H81.5052V125.464C81.7014 125.444 81.8411 125.381 81.9242 125.274C81.9807 125.201 82.009 124.985 82.009 124.626V121.993C82.009 121.64 81.9757 121.421 81.9092 121.334C81.8461 121.248 81.7114 121.191 81.5052 121.165V120.98H83.4055ZM89.2906 125.783L87.7196 122.167C87.5301 121.732 87.3821 121.456 87.2757 121.339C87.1992 121.253 87.0862 121.195 86.9366 121.165V120.98H89.4153V121.165C89.2591 121.165 89.1527 121.193 89.0961 121.25C89.0163 121.323 88.9764 121.409 88.9764 121.509C88.9764 121.632 89.0496 121.863 89.1959 122.202L89.9639 123.953L90.5774 122.442C90.7536 122.009 90.8417 121.703 90.8417 121.524C90.8417 121.421 90.8035 121.338 90.727 121.275C90.6539 121.208 90.5225 121.171 90.333 121.165V120.98H91.8592V121.165C91.7129 121.185 91.5932 121.24 91.5001 121.329C91.407 121.419 91.2673 121.684 91.0811 122.122L89.5251 125.783H89.2906ZM94.4926 120.841C94.8982 120.841 95.2756 120.945 95.6247 121.155C95.9738 121.364 96.2382 121.662 96.4177 122.048C96.6006 122.433 96.692 122.856 96.692 123.314C96.692 123.976 96.5241 124.53 96.1883 124.975C95.7826 125.514 95.2224 125.783 94.5075 125.783C93.8059 125.783 93.2656 125.537 92.8866 125.045C92.5075 124.553 92.318 123.983 92.318 123.334C92.318 122.666 92.5109 122.084 92.8966 121.589C93.2856 121.09 93.8176 120.841 94.4926 120.841ZM94.5125 121.195C94.3429 121.195 94.1966 121.26 94.0736 121.389C93.9539 121.516 93.8741 121.768 93.8342 122.147C93.7976 122.523 93.7793 123.047 93.7793 123.718C93.7793 124.074 93.8026 124.407 93.8492 124.716C93.8857 124.952 93.9639 125.132 94.0836 125.255C94.2033 125.378 94.3396 125.439 94.4926 125.439C94.6422 125.439 94.7669 125.398 94.8666 125.314C94.9963 125.201 95.0827 125.043 95.126 124.841C95.1925 124.525 95.2257 123.886 95.2257 122.925C95.2257 122.36 95.1941 121.973 95.1309 121.763C95.0678 121.551 94.9747 121.396 94.8516 121.299C94.7652 121.23 94.6522 121.195 94.5125 121.195ZM99.2506 119.275V120.98H100.358V121.474H99.2506V124.352C99.2506 124.621 99.2622 124.796 99.2855 124.875C99.3121 124.952 99.357 125.015 99.4201 125.065C99.4833 125.112 99.5415 125.135 99.5947 125.135C99.8108 125.135 100.015 124.97 100.208 124.641L100.358 124.751C100.088 125.389 99.6512 125.708 99.0461 125.708C98.7502 125.708 98.4991 125.627 98.293 125.464C98.0902 125.298 97.9605 125.113 97.904 124.91C97.8707 124.797 97.8541 124.491 97.8541 123.993V121.474H97.2456V121.299C97.6646 121.004 98.0203 120.693 98.3129 120.367C98.6089 120.041 98.8665 119.677 99.086 119.275H99.2506ZM104.752 123.145H102.193C102.223 123.763 102.388 124.252 102.687 124.611C102.916 124.887 103.192 125.025 103.515 125.025C103.714 125.025 103.896 124.97 104.058 124.861C104.221 124.747 104.396 124.546 104.582 124.257L104.752 124.367C104.499 124.882 104.22 125.248 103.914 125.464C103.608 125.677 103.254 125.783 102.852 125.783C102.16 125.783 101.636 125.517 101.28 124.985C100.995 124.556 100.852 124.024 100.852 123.389C100.852 122.611 101.061 121.993 101.48 121.534C101.902 121.072 102.396 120.841 102.961 120.841C103.433 120.841 103.842 121.035 104.188 121.424C104.537 121.81 104.725 122.383 104.752 123.145ZM103.525 122.811C103.525 122.275 103.495 121.908 103.435 121.708C103.379 121.509 103.289 121.358 103.166 121.255C103.096 121.195 103.003 121.165 102.886 121.165C102.714 121.165 102.572 121.25 102.462 121.419C102.266 121.715 102.168 122.121 102.168 122.636V122.811H103.525Z" fill="#2F2F37"/>
<path d="M194.284 122.009C194.284 122.657 194.173 123.223 193.951 123.708C193.735 124.186 193.414 124.56 192.988 124.828C192.562 125.097 192.034 125.231 191.403 125.231C190.755 125.231 190.215 125.097 189.784 124.828C189.357 124.56 189.039 124.183 188.829 123.699C188.619 123.215 188.514 122.648 188.514 122C188.514 121.358 188.619 120.798 188.829 120.319C189.039 119.841 189.357 119.467 189.784 119.199C190.215 118.93 190.758 118.796 191.412 118.796C192.037 118.796 192.562 118.93 192.988 119.199C193.414 119.461 193.735 119.835 193.951 120.319C194.173 120.798 194.284 121.361 194.284 122.009ZM189.346 122.009C189.346 122.797 189.512 123.419 189.845 123.874C190.178 124.323 190.697 124.548 191.403 124.548C192.115 124.548 192.635 124.323 192.962 123.874C193.288 123.419 193.452 122.797 193.452 122.009C193.452 121.221 193.288 120.605 192.962 120.162C192.635 119.712 192.118 119.488 191.412 119.488C190.706 119.488 190.183 119.712 189.845 120.162C189.512 120.605 189.346 121.221 189.346 122.009ZM197.49 125.231C197.076 125.231 196.705 125.146 196.378 124.977C196.057 124.808 195.803 124.545 195.617 124.189C195.436 123.833 195.345 123.378 195.345 122.823C195.345 122.246 195.442 121.776 195.634 121.414C195.827 121.052 196.086 120.786 196.413 120.617C196.746 120.448 197.123 120.363 197.543 120.363C197.782 120.363 198.013 120.39 198.234 120.442C198.456 120.489 198.637 120.547 198.777 120.617L198.541 121.256C198.401 121.204 198.237 121.154 198.051 121.107C197.864 121.061 197.689 121.037 197.525 121.037C196.603 121.037 196.142 121.63 196.142 122.815C196.142 123.381 196.253 123.816 196.475 124.119C196.702 124.417 197.038 124.566 197.481 124.566C197.738 124.566 197.963 124.539 198.156 124.487C198.354 124.434 198.535 124.37 198.698 124.294V124.977C198.541 125.059 198.366 125.12 198.173 125.161C197.986 125.208 197.759 125.231 197.49 125.231ZM201.425 124.601C201.542 124.601 201.662 124.592 201.784 124.574C201.907 124.551 202.006 124.528 202.082 124.504V125.091C202 125.132 201.884 125.164 201.732 125.187C201.58 125.217 201.434 125.231 201.294 125.231C201.049 125.231 200.821 125.19 200.611 125.109C200.407 125.021 200.241 124.872 200.112 124.662C199.984 124.452 199.919 124.157 199.919 123.778V121.046H199.254V120.678L199.928 120.372L200.235 119.374H200.69V120.451H202.047V121.046H200.69V123.76C200.69 124.046 200.757 124.259 200.891 124.399C201.031 124.534 201.209 124.601 201.425 124.601ZM208.098 122.009C208.098 122.68 208.028 123.258 207.888 123.743C207.748 124.221 207.526 124.589 207.223 124.846C206.919 125.103 206.516 125.231 206.014 125.231C205.308 125.231 204.786 124.948 204.447 124.382C204.115 123.81 203.948 123.019 203.948 122.009C203.948 121.332 204.015 120.754 204.15 120.276C204.29 119.797 204.512 119.432 204.815 119.181C205.119 118.925 205.518 118.796 206.014 118.796C206.715 118.796 207.237 119.079 207.582 119.645C207.926 120.206 208.098 120.994 208.098 122.009ZM204.719 122.009C204.719 122.867 204.815 123.509 205.008 123.935C205.206 124.361 205.542 124.574 206.014 124.574C206.481 124.574 206.814 124.364 207.013 123.944C207.217 123.518 207.319 122.873 207.319 122.009C207.319 121.157 207.217 120.518 207.013 120.092C206.814 119.666 206.481 119.453 206.014 119.453C205.542 119.453 205.206 119.666 205.008 120.092C204.815 120.518 204.719 121.157 204.719 122.009ZM211.681 125.144H210.928V120.775C210.928 120.524 210.931 120.322 210.937 120.171C210.943 120.019 210.952 119.861 210.963 119.698C210.87 119.791 210.785 119.87 210.71 119.934C210.634 119.998 210.537 120.08 210.421 120.179L209.755 120.722L209.352 120.206L211.042 118.892H211.681V125.144ZM215.308 124.224C215.232 124.534 215.122 124.872 214.976 125.24C214.836 125.613 214.695 125.958 214.555 126.273H213.986C214.068 125.94 214.15 125.575 214.231 125.179C214.319 124.782 214.383 124.431 214.424 124.128H215.247L215.308 124.224ZM221.764 125.144H217.632V124.504L219.269 122.85C219.584 122.535 219.85 122.254 220.066 122.009C220.282 121.764 220.445 121.525 220.556 121.291C220.667 121.052 220.723 120.792 220.723 120.512C220.723 120.168 220.62 119.908 220.416 119.733C220.212 119.552 219.946 119.461 219.619 119.461C219.316 119.461 219.047 119.514 218.814 119.619C218.586 119.724 218.353 119.87 218.114 120.057L217.702 119.54C217.947 119.336 218.227 119.164 218.543 119.024C218.864 118.878 219.223 118.805 219.619 118.805C220.203 118.805 220.664 118.954 221.003 119.251C221.341 119.543 221.511 119.949 221.511 120.468C221.511 120.795 221.443 121.102 221.309 121.388C221.175 121.674 220.988 121.957 220.749 122.237C220.51 122.511 220.229 122.806 219.908 123.121L218.604 124.408V124.443H221.764V125.144ZM226.845 122.009C226.845 122.68 226.775 123.258 226.635 123.743C226.495 124.221 226.273 124.589 225.969 124.846C225.666 125.103 225.263 125.231 224.761 125.231C224.055 125.231 223.532 124.948 223.194 124.382C222.861 123.81 222.695 123.019 222.695 122.009C222.695 121.332 222.762 120.754 222.896 120.276C223.036 119.797 223.258 119.432 223.562 119.181C223.865 118.925 224.265 118.796 224.761 118.796C225.461 118.796 225.984 119.079 226.328 119.645C226.673 120.206 226.845 120.994 226.845 122.009ZM223.465 122.009C223.465 122.867 223.562 123.509 223.754 123.935C223.953 124.361 224.288 124.574 224.761 124.574C225.228 124.574 225.561 124.364 225.759 123.944C225.963 123.518 226.066 122.873 226.066 122.009C226.066 121.157 225.963 120.518 225.759 120.092C225.561 119.666 225.228 119.453 224.761 119.453C224.288 119.453 223.953 119.666 223.754 120.092C223.562 120.518 223.465 121.157 223.465 122.009ZM231.872 125.144H227.74V124.504L229.377 122.85C229.692 122.535 229.958 122.254 230.174 122.009C230.39 121.764 230.553 121.525 230.664 121.291C230.775 121.052 230.831 120.792 230.831 120.512C230.831 120.168 230.728 119.908 230.524 119.733C230.32 119.552 230.054 119.461 229.727 119.461C229.424 119.461 229.155 119.514 228.922 119.619C228.694 119.724 228.461 119.87 228.222 120.057L227.81 119.54C228.055 119.336 228.335 119.164 228.651 119.024C228.972 118.878 229.331 118.805 229.727 118.805C230.311 118.805 230.772 118.954 231.111 119.251C231.449 119.543 231.619 119.949 231.619 120.468C231.619 120.795 231.551 121.102 231.417 121.388C231.283 121.674 231.096 121.957 230.857 122.237C230.618 122.511 230.337 122.806 230.016 123.121L228.712 124.408V124.443H231.872V125.144ZM237.207 123.725H236.296V125.144H235.552V123.725H232.558V123.069L235.499 118.857H236.296V123.034H237.207V123.725ZM235.552 121.064C235.552 120.76 235.558 120.503 235.569 120.293C235.581 120.077 235.59 119.873 235.596 119.68H235.561C235.514 119.791 235.456 119.911 235.386 120.039C235.316 120.168 235.248 120.276 235.184 120.363L233.311 123.034H235.552V121.064Z" fill="#717184"/>
<path d="M250.004 123.139V122.456H252.122V123.139H250.004ZM254.926 121.309C255.568 121.309 256.079 121.469 256.458 121.79C256.838 122.111 257.027 122.564 257.027 123.147C257.027 123.795 256.82 124.306 256.406 124.68C255.997 125.047 255.425 125.231 254.69 125.231C254.369 125.231 254.065 125.202 253.779 125.144C253.499 125.085 253.263 125.001 253.07 124.89V124.163C253.28 124.291 253.534 124.394 253.832 124.469C254.135 124.539 254.424 124.574 254.699 124.574C255.16 124.574 255.53 124.466 255.81 124.251C256.096 124.029 256.239 123.687 256.239 123.226C256.239 122.818 256.114 122.505 255.863 122.289C255.612 122.068 255.215 121.957 254.672 121.957C254.509 121.957 254.322 121.971 254.112 122C253.902 122.03 253.733 122.059 253.604 122.088L253.219 121.843L253.455 118.892H256.59V119.593H254.112L253.963 121.405C254.062 121.388 254.197 121.367 254.366 121.344C254.535 121.32 254.722 121.309 254.926 121.309ZM262.152 122.009C262.152 122.68 262.081 123.258 261.941 123.743C261.801 124.221 261.58 124.589 261.276 124.846C260.972 125.103 260.57 125.231 260.068 125.231C259.362 125.231 258.839 124.948 258.501 124.382C258.168 123.81 258.002 123.019 258.002 122.009C258.002 121.332 258.069 120.754 258.203 120.276C258.343 119.797 258.565 119.432 258.868 119.181C259.172 118.925 259.572 118.796 260.068 118.796C260.768 118.796 261.291 119.079 261.635 119.645C261.979 120.206 262.152 120.994 262.152 122.009ZM258.772 122.009C258.772 122.867 258.868 123.509 259.061 123.935C259.259 124.361 259.595 124.574 260.068 124.574C260.535 124.574 260.867 124.364 261.066 123.944C261.27 123.518 261.372 122.873 261.372 122.009C261.372 121.157 261.27 120.518 261.066 120.092C260.867 119.666 260.535 119.453 260.068 119.453C259.595 119.453 259.259 119.666 259.061 120.092C258.868 120.518 258.772 121.157 258.772 122.009Z" fill="#5235E8"/>
<mask id="path-18-inside-3_927_438727" fill="white">
<path d="M23.3472 148.408H262.653V200.939H23.3472V148.408Z"/>
</mask>
<path d="M262.653 200.939V200.209H23.3472V200.939V201.668H262.653V200.939Z" fill="#E3E3E8" mask="url(#path-18-inside-3_927_438727)"/>
<g clip-path="url(#clip3_927_438727)">
<circle cx="37.939" cy="174.674" r="14.5918" fill="#DAF727"/>
<g clip-path="url(#clip4_927_438727)">
<path fill-rule="evenodd" clip-rule="evenodd" d="M37.9389 168.958C34.7825 168.958 32.2237 171.517 32.2237 174.673C32.2237 176.788 33.3724 178.635 35.0816 179.624C35.256 179.725 35.3156 179.948 35.2147 180.122C35.1138 180.297 34.8906 180.356 34.7162 180.256C32.7909 179.142 31.4941 177.059 31.4941 174.673C31.4941 171.114 34.3795 168.229 37.9389 168.229C41.4982 168.229 44.3836 171.114 44.3836 174.673C44.3836 177.059 43.0869 179.142 41.1615 180.256C40.9871 180.356 40.764 180.297 40.6631 180.122C40.5622 179.948 40.6218 179.725 40.7962 179.624C42.5054 178.635 43.654 176.788 43.654 174.673C43.654 171.517 41.0953 168.958 37.9389 168.958ZM37.6809 171.983C37.8234 171.841 38.0544 171.841 38.1968 171.983L40.6288 174.415C40.7713 174.558 40.7713 174.789 40.6288 174.931C40.4863 175.074 40.2554 175.074 40.1129 174.931L38.3037 173.122V180.753C38.3037 180.955 38.1403 181.118 37.9389 181.118C37.7374 181.118 37.5741 180.955 37.5741 180.753V173.122L35.7648 174.931C35.6224 175.074 35.3914 175.074 35.2489 174.931C35.1065 174.789 35.1065 174.558 35.2489 174.415L37.6809 171.983Z" fill="#0E0637"/>
</g>
</g>
<path d="M61.5255 171.411H65.0167V171.595H64.8422C64.5795 171.595 64.3983 171.624 64.2986 171.68C64.2021 171.733 64.1323 171.808 64.0891 171.905C64.0492 172.001 64.0292 172.242 64.0292 172.628V175.939C64.0292 176.545 64.0741 176.945 64.1639 177.141C64.257 177.338 64.4083 177.501 64.6177 177.63C64.8272 177.76 65.0916 177.825 65.4108 177.825C65.7765 177.825 66.0874 177.743 66.3434 177.58C66.6028 177.414 66.7956 177.186 66.9219 176.897C67.0516 176.608 67.1165 176.104 67.1165 175.386V172.628C67.1165 172.325 67.0849 172.109 67.0217 171.979C66.9585 171.85 66.8787 171.76 66.7823 171.71C66.6327 171.634 66.4215 171.595 66.1489 171.595V171.411H68.488V171.595H68.3484C68.1588 171.595 68.0009 171.634 67.8745 171.71C67.7482 171.787 67.6568 171.901 67.6002 172.054C67.557 172.161 67.5354 172.352 67.5354 172.628V175.196C67.5354 175.991 67.4822 176.565 67.3758 176.917C67.2727 177.269 67.0184 177.594 66.6127 177.89C66.2071 178.185 65.6535 178.333 64.9519 178.333C64.3667 178.333 63.9145 178.255 63.5953 178.099C63.1598 177.886 62.8522 177.614 62.6726 177.281C62.4931 176.949 62.4033 176.501 62.4033 175.939V172.628C62.4033 172.239 62.3817 171.998 62.3385 171.905C62.2953 171.808 62.2204 171.732 62.114 171.675C62.0077 171.619 61.8115 171.592 61.5255 171.595V171.411ZM70.8171 177.7V179.436C70.8171 179.675 70.8354 179.838 70.872 179.924C70.9119 180.011 70.9718 180.074 71.0516 180.114C71.1314 180.154 71.2876 180.174 71.5204 180.174V180.358H68.8621V180.174C69.0682 180.167 69.2212 180.109 69.3209 179.999C69.3874 179.923 69.4207 179.725 69.4207 179.406V174.483C69.4207 174.154 69.3824 173.944 69.3059 173.855C69.2295 173.762 69.0815 173.708 68.8621 173.695V173.511H70.8171V174.124C70.9801 173.885 71.1463 173.712 71.3159 173.605C71.5586 173.449 71.8229 173.371 72.1089 173.371C72.4514 173.371 72.7622 173.479 73.0415 173.695C73.3242 173.911 73.5386 174.21 73.6849 174.593C73.8312 174.972 73.9044 175.381 73.9044 175.82C73.9044 176.292 73.8279 176.724 73.675 177.116C73.5253 177.506 73.3059 177.803 73.0166 178.009C72.7307 178.212 72.4115 178.313 72.059 178.313C71.803 178.313 71.5636 178.257 71.3408 178.144C71.1746 178.057 71 177.909 70.8171 177.7ZM70.8171 177.196C71.1031 177.602 71.409 177.805 71.7348 177.805C71.9144 177.805 72.0623 177.71 72.1787 177.52C72.3516 177.241 72.4381 176.709 72.4381 175.924C72.4381 175.12 72.3433 174.57 72.1538 174.274C72.0274 174.077 71.8579 173.979 71.6451 173.979C71.3092 173.979 71.0333 174.222 70.8171 174.708V177.196ZM76.8021 178.313L75.231 174.698C75.0415 174.262 74.8935 173.986 74.7872 173.87C74.7107 173.783 74.5976 173.725 74.448 173.695V173.511H76.9268V173.695C76.7705 173.695 76.6641 173.723 76.6076 173.78C76.5278 173.853 76.4879 173.939 76.4879 174.039C76.4879 174.162 76.561 174.393 76.7073 174.732L77.4754 176.483L78.0888 174.972C78.2651 174.54 78.3532 174.234 78.3532 174.054C78.3532 173.951 78.3149 173.868 78.2385 173.805C78.1653 173.738 78.034 173.702 77.8445 173.695V173.511H79.3706V173.695C79.2243 173.715 79.1046 173.77 79.0115 173.86C78.9184 173.949 78.7788 174.214 78.5926 174.653L77.0365 178.313H76.8021ZM82.004 173.371C82.4096 173.371 82.787 173.476 83.1361 173.685C83.4853 173.895 83.7496 174.192 83.9291 174.578C84.112 174.964 84.2034 175.386 84.2034 175.845C84.2034 176.506 84.0355 177.06 83.6997 177.506C83.2941 178.044 82.7338 178.313 82.0189 178.313C81.3174 178.313 80.7771 178.067 80.398 177.575C80.019 177.083 79.8295 176.513 79.8295 175.865C79.8295 175.196 80.0223 174.614 80.408 174.119C80.797 173.62 81.329 173.371 82.004 173.371ZM82.0239 173.725C81.8544 173.725 81.7081 173.79 81.585 173.92C81.4653 174.046 81.3855 174.299 81.3456 174.678C81.3091 175.053 81.2908 175.577 81.2908 176.249C81.2908 176.604 81.3141 176.937 81.3606 177.246C81.3972 177.482 81.4753 177.662 81.595 177.785C81.7147 177.908 81.851 177.969 82.004 177.969C82.1536 177.969 82.2783 177.928 82.378 177.845C82.5077 177.732 82.5942 177.574 82.6374 177.371C82.7039 177.055 82.7371 176.417 82.7371 175.456C82.7371 174.89 82.7056 174.503 82.6424 174.294C82.5792 174.081 82.4861 173.926 82.3631 173.83C82.2766 173.76 82.1636 173.725 82.0239 173.725ZM86.762 171.805V173.511H87.8692V174.004H86.762V176.882C86.762 177.151 86.7736 177.326 86.7969 177.406C86.8235 177.482 86.8684 177.545 86.9316 177.595C86.9948 177.642 87.0529 177.665 87.1061 177.665C87.3223 177.665 87.5268 177.501 87.7196 177.171L87.8692 177.281C87.5999 177.919 87.1627 178.239 86.5575 178.239C86.2616 178.239 86.0106 178.157 85.8044 177.994C85.6016 177.828 85.4719 177.643 85.4154 177.441C85.3821 177.328 85.3655 177.022 85.3655 176.523V174.004H84.7571V173.83C85.176 173.534 85.5318 173.223 85.8244 172.897C86.1203 172.571 86.378 172.207 86.5974 171.805H86.762ZM92.2632 175.675H89.7046C89.7345 176.294 89.8991 176.782 90.1984 177.141C90.4278 177.417 90.7038 177.555 91.0263 177.555C91.2258 177.555 91.407 177.501 91.5699 177.391C91.7328 177.278 91.9074 177.077 92.0936 176.787L92.2632 176.897C92.0105 177.412 91.7312 177.778 91.4253 177.994C91.1194 178.207 90.7653 178.313 90.3629 178.313C89.6714 178.313 89.1477 178.047 88.7919 177.515C88.506 177.087 88.363 176.555 88.363 175.92C88.363 175.141 88.5725 174.523 88.9914 174.064C89.4137 173.602 89.9074 173.371 90.4727 173.371C90.9448 173.371 91.3538 173.565 91.6996 173.954C92.0487 174.34 92.2366 174.914 92.2632 175.675ZM91.0363 175.341C91.0363 174.806 91.0063 174.438 90.9465 174.239C90.89 174.039 90.8002 173.888 90.6772 173.785C90.6073 173.725 90.5142 173.695 90.3979 173.695C90.225 173.695 90.0836 173.78 89.9739 173.949C89.7778 174.245 89.6797 174.651 89.6797 175.166V175.341H91.0363Z" fill="#2F2F37"/>
<path d="M191.284 174.54C191.284 175.187 191.173 175.754 190.951 176.238C190.735 176.717 190.414 177.09 189.988 177.359C189.562 177.627 189.034 177.761 188.403 177.761C187.755 177.761 187.215 177.627 186.784 177.359C186.357 177.09 186.039 176.714 185.829 176.229C185.619 175.745 185.514 175.179 185.514 174.531C185.514 173.889 185.619 173.328 185.829 172.85C186.039 172.371 186.357 171.998 186.784 171.729C187.215 171.461 187.758 171.326 188.412 171.326C189.037 171.326 189.562 171.461 189.988 171.729C190.414 171.992 190.735 172.365 190.951 172.85C191.173 173.328 191.284 173.892 191.284 174.54ZM186.346 174.54C186.346 175.327 186.512 175.949 186.845 176.404C187.178 176.854 187.697 177.078 188.403 177.078C189.115 177.078 189.635 176.854 189.962 176.404C190.288 175.949 190.452 175.327 190.452 174.54C190.452 173.752 190.288 173.136 189.962 172.692C189.635 172.243 189.118 172.018 188.412 172.018C187.706 172.018 187.183 172.243 186.845 172.692C186.512 173.136 186.346 173.752 186.346 174.54ZM194.49 177.761C194.076 177.761 193.705 177.677 193.378 177.507C193.057 177.338 192.803 177.076 192.617 176.72C192.436 176.363 192.345 175.908 192.345 175.354C192.345 174.776 192.442 174.306 192.634 173.944C192.827 173.582 193.086 173.317 193.413 173.147C193.746 172.978 194.123 172.894 194.543 172.894C194.782 172.894 195.013 172.92 195.234 172.972C195.456 173.019 195.637 173.077 195.777 173.147L195.541 173.787C195.401 173.734 195.237 173.684 195.051 173.638C194.864 173.591 194.689 173.568 194.525 173.568C193.603 173.568 193.142 174.16 193.142 175.345C193.142 175.911 193.253 176.346 193.475 176.649C193.702 176.947 194.038 177.096 194.481 177.096C194.738 177.096 194.963 177.07 195.156 177.017C195.354 176.965 195.535 176.9 195.698 176.825V177.507C195.541 177.589 195.366 177.65 195.173 177.691C194.986 177.738 194.759 177.761 194.49 177.761ZM198.425 177.131C198.542 177.131 198.662 177.122 198.784 177.105C198.907 177.081 199.006 177.058 199.082 177.035V177.621C199 177.662 198.884 177.694 198.732 177.718C198.58 177.747 198.434 177.761 198.294 177.761C198.049 177.761 197.821 177.721 197.611 177.639C197.407 177.551 197.241 177.402 197.112 177.192C196.984 176.982 196.919 176.687 196.919 176.308V173.576H196.254V173.209L196.928 172.902L197.235 171.904H197.69V172.981H199.047V173.576H197.69V176.291C197.69 176.577 197.757 176.79 197.891 176.93C198.031 177.064 198.209 177.131 198.425 177.131ZM205.098 174.54C205.098 175.211 205.028 175.789 204.888 176.273C204.748 176.752 204.526 177.119 204.223 177.376C203.919 177.633 203.516 177.761 203.014 177.761C202.308 177.761 201.786 177.478 201.447 176.912C201.115 176.34 200.948 175.549 200.948 174.54C200.948 173.862 201.015 173.285 201.15 172.806C201.29 172.327 201.512 171.963 201.815 171.712C202.119 171.455 202.518 171.326 203.014 171.326C203.715 171.326 204.237 171.609 204.582 172.176C204.926 172.736 205.098 173.524 205.098 174.54ZM201.719 174.54C201.719 175.398 201.815 176.04 202.008 176.466C202.206 176.892 202.542 177.105 203.014 177.105C203.481 177.105 203.814 176.895 204.013 176.474C204.217 176.048 204.319 175.403 204.319 174.54C204.319 173.687 204.217 173.048 204.013 172.622C203.814 172.196 203.481 171.983 203.014 171.983C202.542 171.983 202.206 172.196 202.008 172.622C201.815 173.048 201.719 173.687 201.719 174.54ZM207.981 173.839C208.623 173.839 209.134 174 209.513 174.321C209.892 174.642 210.082 175.094 210.082 175.678C210.082 176.326 209.875 176.836 209.461 177.21C209.052 177.578 208.48 177.761 207.745 177.761C207.424 177.761 207.12 177.732 206.834 177.674C206.554 177.615 206.317 177.531 206.125 177.42V176.693C206.335 176.822 206.589 176.924 206.887 177C207.19 177.07 207.479 177.105 207.753 177.105C208.214 177.105 208.585 176.997 208.865 176.781C209.151 176.559 209.294 176.218 209.294 175.756C209.294 175.348 209.169 175.036 208.918 174.82C208.667 174.598 208.27 174.487 207.727 174.487C207.564 174.487 207.377 174.502 207.167 174.531C206.957 174.56 206.787 174.589 206.659 174.618L206.274 174.373L206.51 171.423H209.644V172.123H207.167L207.018 173.935C207.117 173.918 207.251 173.897 207.421 173.874C207.59 173.851 207.777 173.839 207.981 173.839ZM212.308 176.755C212.232 177.064 212.122 177.402 211.976 177.77C211.836 178.144 211.695 178.488 211.555 178.803H210.986C211.068 178.471 211.15 178.106 211.231 177.709C211.319 177.312 211.383 176.962 211.424 176.658H212.247L212.308 176.755ZM218.764 177.674H214.632V177.035L216.269 175.38C216.584 175.065 216.85 174.785 217.066 174.54C217.282 174.294 217.445 174.055 217.556 173.822C217.667 173.582 217.723 173.323 217.723 173.042C217.723 172.698 217.62 172.438 217.416 172.263C217.212 172.082 216.946 171.992 216.619 171.992C216.316 171.992 216.047 172.044 215.814 172.149C215.586 172.254 215.353 172.4 215.114 172.587L214.702 172.071C214.947 171.866 215.227 171.694 215.543 171.554C215.864 171.408 216.223 171.335 216.619 171.335C217.203 171.335 217.664 171.484 218.003 171.782C218.341 172.073 218.511 172.479 218.511 172.999C218.511 173.325 218.443 173.632 218.309 173.918C218.175 174.204 217.988 174.487 217.749 174.767C217.51 175.041 217.229 175.336 216.908 175.651L215.604 176.938V176.973H218.764V177.674ZM223.845 174.54C223.845 175.211 223.775 175.789 223.635 176.273C223.495 176.752 223.273 177.119 222.969 177.376C222.666 177.633 222.263 177.761 221.761 177.761C221.055 177.761 220.532 177.478 220.194 176.912C219.861 176.34 219.695 175.549 219.695 174.54C219.695 173.862 219.762 173.285 219.896 172.806C220.036 172.327 220.258 171.963 220.562 171.712C220.865 171.455 221.265 171.326 221.761 171.326C222.461 171.326 222.984 171.609 223.328 172.176C223.673 172.736 223.845 173.524 223.845 174.54ZM220.465 174.54C220.465 175.398 220.562 176.04 220.754 176.466C220.953 176.892 221.288 177.105 221.761 177.105C222.228 177.105 222.561 176.895 222.759 176.474C222.963 176.048 223.066 175.403 223.066 174.54C223.066 173.687 222.963 173.048 222.759 172.622C222.561 172.196 222.228 171.983 221.761 171.983C221.288 171.983 220.953 172.196 220.754 172.622C220.562 173.048 220.465 173.687 220.465 174.54ZM228.872 177.674H224.74V177.035L226.377 175.38C226.692 175.065 226.958 174.785 227.174 174.54C227.39 174.294 227.553 174.055 227.664 173.822C227.775 173.582 227.831 173.323 227.831 173.042C227.831 172.698 227.728 172.438 227.524 172.263C227.32 172.082 227.054 171.992 226.727 171.992C226.424 171.992 226.155 172.044 225.922 172.149C225.694 172.254 225.461 172.4 225.222 172.587L224.81 172.071C225.055 171.866 225.335 171.694 225.651 171.554C225.972 171.408 226.331 171.335 226.727 171.335C227.311 171.335 227.772 171.484 228.111 171.782C228.449 172.073 228.619 172.479 228.619 172.999C228.619 173.325 228.551 173.632 228.417 173.918C228.283 174.204 228.096 174.487 227.857 174.767C227.618 175.041 227.337 175.336 227.016 175.651L225.712 176.938V176.973H228.872V177.674ZM234.207 176.256H233.296V177.674H232.552V176.256H229.558V175.599L232.499 171.388H233.296V175.564H234.207V176.256ZM232.552 173.594C232.552 173.29 232.558 173.034 232.569 172.823C232.581 172.608 232.59 172.403 232.596 172.211H232.561C232.514 172.322 232.456 172.441 232.386 172.57C232.316 172.698 232.248 172.806 232.184 172.894L230.311 175.564H232.552V173.594Z" fill="#717184"/>
<path d="M249.464 174.277H251.206V174.898H249.464V176.702H248.833V174.898H247.091V174.277H248.833V172.465H249.464V174.277ZM254.815 177.674H254.062V173.305C254.062 173.054 254.065 172.853 254.071 172.701C254.077 172.549 254.086 172.392 254.097 172.228C254.004 172.322 253.919 172.4 253.844 172.465C253.768 172.529 253.671 172.61 253.555 172.71L252.889 173.252L252.487 172.736L254.176 171.423H254.815V177.674ZM261.34 174.54C261.34 175.211 261.27 175.789 261.13 176.273C260.99 176.752 260.768 177.119 260.465 177.376C260.161 177.633 259.759 177.761 259.257 177.761C258.55 177.761 258.028 177.478 257.689 176.912C257.357 176.34 257.19 175.549 257.19 174.54C257.19 173.862 257.257 173.285 257.392 172.806C257.532 172.327 257.754 171.963 258.057 171.712C258.361 171.455 258.76 171.326 259.257 171.326C259.957 171.326 260.479 171.609 260.824 172.176C261.168 172.736 261.34 173.524 261.34 174.54ZM257.961 174.54C257.961 175.398 258.057 176.04 258.25 176.466C258.448 176.892 258.784 177.105 259.257 177.105C259.724 177.105 260.056 176.895 260.255 176.474C260.459 176.048 260.561 175.403 260.561 174.54C260.561 173.687 260.459 173.048 260.255 172.622C260.056 172.196 259.724 171.983 259.257 171.983C258.784 171.983 258.448 172.196 258.25 172.622C258.057 173.048 257.961 173.687 257.961 174.54Z" fill="#5235E8"/>
<mask id="path-25-inside-4_927_438727" fill="white">
<path d="M23.3472 200.938H262.653V253.469H23.3472V200.938Z"/>
</mask>
<path d="M262.653 253.469V252.74H23.3472V253.469V254.199H262.653V253.469Z" fill="#E3E3E8" mask="url(#path-25-inside-4_927_438727)"/>
<g clip-path="url(#clip5_927_438727)">
<circle cx="37.939" cy="227.204" r="14.5918" fill="#0E0637"/>
<path fill-rule="evenodd" clip-rule="evenodd" d="M37.9389 220.76C38.1403 220.76 38.3037 220.923 38.3037 221.125V228.756L40.1129 226.947C40.2554 226.804 40.4863 226.804 40.6288 226.947C40.7713 227.089 40.7713 227.32 40.6288 227.462L38.1968 229.894C38.0544 230.037 37.8234 230.037 37.6809 229.894L35.2489 227.462C35.1065 227.32 35.1065 227.089 35.2489 226.947C35.3914 226.804 35.6224 226.804 35.7648 226.947L37.5741 228.756V221.125C37.5741 220.923 37.7374 220.76 37.9389 220.76ZM35.2147 221.755C35.3156 221.93 35.256 222.153 35.0816 222.254C33.3724 223.242 32.2237 225.09 32.2237 227.204C32.2237 230.361 34.7825 232.92 37.9389 232.92C41.0953 232.92 43.654 230.361 43.654 227.204C43.654 225.09 42.5054 223.242 40.7962 222.254C40.6218 222.153 40.5622 221.93 40.6631 221.755C40.764 221.581 40.9871 221.521 41.1615 221.622C43.0869 222.736 44.3836 224.819 44.3836 227.204C44.3836 230.764 41.4982 233.649 37.9389 233.649C34.3795 233.649 31.4941 230.764 31.4941 227.204C31.4941 224.819 32.7909 222.736 34.7162 221.622C34.8906 221.521 35.1138 221.581 35.2147 221.755Z" fill="white"/>
</g>
<path d="M61.4208 230.704V230.52H61.6452C61.8414 230.52 61.991 230.49 62.0941 230.43C62.2005 230.367 62.2786 230.282 62.3285 230.175C62.3584 230.106 62.3734 229.896 62.3734 229.547V225.098C62.3734 224.752 62.3551 224.536 62.3185 224.45C62.282 224.363 62.2071 224.289 62.0941 224.225C61.9844 224.159 61.8348 224.126 61.6452 224.126H61.4208V223.941H64.4482C65.2561 223.941 65.9062 224.051 66.3983 224.27C67.0001 224.54 67.4556 224.947 67.7648 225.492C68.0774 226.038 68.2336 226.654 68.2336 227.343C68.2336 227.818 68.1572 228.257 68.0042 228.659C67.8513 229.058 67.6534 229.389 67.4107 229.652C67.168 229.911 66.887 230.121 66.5678 230.28C66.252 230.436 65.8646 230.558 65.4058 230.644C65.2029 230.684 64.8837 230.704 64.4482 230.704H61.4208ZM63.9993 224.325V229.602C63.9993 229.881 64.0126 230.052 64.0392 230.116C64.0658 230.179 64.1107 230.227 64.1739 230.26C64.2636 230.31 64.3933 230.335 64.5629 230.335C65.1182 230.335 65.5421 230.146 65.8347 229.766C66.2337 229.254 66.4332 228.46 66.4332 227.382C66.4332 226.515 66.2969 225.821 66.0242 225.303C65.8081 224.897 65.5304 224.621 65.1913 224.475C64.9519 224.372 64.5546 224.322 63.9993 224.325ZM71.2112 225.901C71.6168 225.901 71.9942 226.006 72.3433 226.215C72.6924 226.425 72.9568 226.722 73.1363 227.108C73.3192 227.494 73.4106 227.916 73.4106 228.375C73.4106 229.037 73.2427 229.59 72.9069 230.036C72.5012 230.574 71.941 230.844 71.2261 230.844C70.5245 230.844 69.9842 230.598 69.6052 230.106C69.2261 229.614 69.0366 229.043 69.0366 228.395C69.0366 227.727 69.2295 227.145 69.6152 226.649C70.0042 226.151 70.5362 225.901 71.2112 225.901ZM71.2311 226.255C71.0615 226.255 70.9152 226.32 70.7922 226.45C70.6725 226.576 70.5927 226.829 70.5528 227.208C70.5162 227.584 70.4979 228.107 70.4979 228.779C70.4979 229.135 70.5212 229.467 70.5678 229.776C70.6043 230.013 70.6825 230.192 70.8022 230.315C70.9219 230.438 71.0582 230.5 71.2112 230.5C71.3608 230.5 71.4855 230.458 71.5852 230.375C71.7149 230.262 71.8013 230.104 71.8446 229.901C71.9111 229.585 71.9443 228.947 71.9443 227.986C71.9443 227.421 71.9127 227.033 71.8495 226.824C71.7864 226.611 71.6933 226.456 71.5702 226.36C71.4838 226.29 71.3707 226.255 71.2311 226.255ZM78.7422 230.844L77.4654 227.422L76.2136 230.844H75.9542L74.7123 227.462C74.5261 226.947 74.3682 226.611 74.2385 226.455C74.1554 226.348 74.0291 226.272 73.8595 226.225V226.041H76.2136V226.225C76.054 226.225 75.9442 226.249 75.8844 226.295C75.8245 226.342 75.7946 226.395 75.7946 226.455C75.7946 226.511 75.8478 226.681 75.9542 226.964L76.6375 228.784L77.2958 226.964L77.246 226.844C77.1462 226.594 77.0581 226.437 76.9816 226.37C76.9085 226.3 76.7938 226.252 76.6375 226.225V226.041H79.0265V226.225C78.8403 226.235 78.7222 226.262 78.6724 226.305C78.6225 226.345 78.5976 226.403 78.5976 226.48C78.5976 226.553 78.6458 226.714 78.7422 226.964L79.4005 228.784L79.999 227.108C80.0855 226.869 80.1287 226.706 80.1287 226.619C80.1287 226.49 80.0971 226.395 80.0339 226.335C79.9708 226.275 79.8477 226.239 79.6649 226.225V226.041H81.0464V226.225C80.8934 226.245 80.7721 226.3 80.6823 226.39C80.5925 226.476 80.4762 226.726 80.3332 227.138L79.0265 230.844H78.7422ZM83.4055 226.041V226.644C83.6449 226.385 83.8743 226.197 84.0937 226.081C84.3132 225.961 84.5492 225.901 84.8019 225.901C85.1045 225.901 85.3556 225.986 85.555 226.156C85.7545 226.322 85.8875 226.53 85.954 226.779C86.0072 226.969 86.0338 227.333 86.0338 227.871V229.687C86.0338 230.046 86.0654 230.27 86.1286 230.36C86.1951 230.446 86.3314 230.501 86.5376 230.525V230.704H84.1785V230.525C84.3547 230.501 84.4811 230.428 84.5576 230.305C84.6108 230.222 84.6374 230.016 84.6374 229.687V227.612C84.6374 227.23 84.6224 226.988 84.5925 226.889C84.5625 226.789 84.511 226.712 84.4379 226.659C84.368 226.603 84.2899 226.574 84.2035 226.574C83.9175 226.574 83.6515 226.779 83.4055 227.188V229.687C83.4055 230.036 83.437 230.257 83.5002 230.35C83.5667 230.443 83.6881 230.501 83.8643 230.525V230.704H81.5052V230.525C81.7014 230.505 81.8411 230.441 81.9242 230.335C81.9807 230.262 82.009 230.046 82.009 229.687V227.053C82.009 226.701 81.9757 226.481 81.9092 226.395C81.8461 226.308 81.7114 226.252 81.5052 226.225V226.041H83.4055ZM89.2906 230.844L87.7196 227.228C87.5301 226.792 87.3821 226.516 87.2757 226.4C87.1992 226.313 87.0862 226.255 86.9366 226.225V226.041H89.4153V226.225C89.2591 226.225 89.1527 226.254 89.0961 226.31C89.0163 226.383 88.9764 226.47 88.9764 226.57C88.9764 226.693 89.0496 226.924 89.1959 227.263L89.9639 229.013L90.5774 227.502C90.7536 227.07 90.8417 226.764 90.8417 226.584C90.8417 226.481 90.8035 226.398 90.727 226.335C90.6539 226.269 90.5225 226.232 90.333 226.225V226.041H91.8592V226.225C91.7129 226.245 91.5932 226.3 91.5001 226.39C91.407 226.48 91.2673 226.744 91.0811 227.183L89.5251 230.844H89.2906ZM94.4926 225.901C94.8982 225.901 95.2756 226.006 95.6247 226.215C95.9738 226.425 96.2382 226.722 96.4177 227.108C96.6006 227.494 96.692 227.916 96.692 228.375C96.692 229.037 96.5241 229.59 96.1883 230.036C95.7826 230.574 95.2224 230.844 94.5075 230.844C93.8059 230.844 93.2656 230.598 92.8866 230.106C92.5075 229.614 92.318 229.043 92.318 228.395C92.318 227.727 92.5109 227.145 92.8966 226.649C93.2856 226.151 93.8176 225.901 94.4926 225.901ZM94.5125 226.255C94.3429 226.255 94.1966 226.32 94.0736 226.45C93.9539 226.576 93.8741 226.829 93.8342 227.208C93.7976 227.584 93.7793 228.107 93.7793 228.779C93.7793 229.135 93.8026 229.467 93.8492 229.776C93.8857 230.013 93.9639 230.192 94.0836 230.315C94.2033 230.438 94.3396 230.5 94.4926 230.5C94.6422 230.5 94.7669 230.458 94.8666 230.375C94.9963 230.262 95.0827 230.104 95.126 229.901C95.1925 229.585 95.2257 228.947 95.2257 227.986C95.2257 227.421 95.1941 227.033 95.1309 226.824C95.0678 226.611 94.9747 226.456 94.8516 226.36C94.7652 226.29 94.6522 226.255 94.5125 226.255ZM99.2506 224.335V226.041H100.358V226.535H99.2506V229.412C99.2506 229.682 99.2622 229.856 99.2855 229.936C99.3121 230.013 99.357 230.076 99.4201 230.126C99.4833 230.172 99.5415 230.195 99.5947 230.195C99.8108 230.195 100.015 230.031 100.208 229.702L100.358 229.811C100.088 230.45 99.6512 230.769 99.0461 230.769C98.7502 230.769 98.4991 230.687 98.293 230.525C98.0902 230.358 97.9605 230.174 97.904 229.971C97.8707 229.858 97.8541 229.552 97.8541 229.053V226.535H97.2456V226.36C97.6646 226.064 98.0203 225.753 98.3129 225.427C98.6089 225.102 98.8665 224.737 99.086 224.335H99.2506ZM104.752 228.205H102.193C102.223 228.824 102.388 229.313 102.687 229.672C102.916 229.948 103.192 230.086 103.515 230.086C103.714 230.086 103.896 230.031 104.058 229.921C104.221 229.808 104.396 229.607 104.582 229.318L104.752 229.427C104.499 229.943 104.22 230.308 103.914 230.525C103.608 230.737 103.254 230.844 102.852 230.844C102.16 230.844 101.636 230.578 101.28 230.046C100.995 229.617 100.852 229.085 100.852 228.45C100.852 227.672 101.061 227.053 101.48 226.594C101.902 226.132 102.396 225.901 102.961 225.901C103.433 225.901 103.842 226.096 104.188 226.485C104.537 226.87 104.725 227.444 104.752 228.205ZM103.525 227.871C103.525 227.336 103.495 226.969 103.435 226.769C103.379 226.57 103.289 226.418 103.166 226.315C103.096 226.255 103.003 226.225 102.886 226.225C102.714 226.225 102.572 226.31 102.462 226.48C102.266 226.776 102.168 227.181 102.168 227.697V227.871H103.525Z" fill="#2F2F37"/>
<path d="M199.284 227.07C199.284 227.718 199.173 228.284 198.951 228.768C198.735 229.247 198.414 229.62 197.988 229.889C197.562 230.157 197.034 230.292 196.403 230.292C195.755 230.292 195.215 230.157 194.784 229.889C194.357 229.62 194.039 229.244 193.829 228.76C193.619 228.275 193.514 227.709 193.514 227.061C193.514 226.419 193.619 225.859 193.829 225.38C194.039 224.901 194.357 224.528 194.784 224.259C195.215 223.991 195.758 223.857 196.412 223.857C197.037 223.857 197.562 223.991 197.988 224.259C198.414 224.522 198.735 224.896 198.951 225.38C199.173 225.859 199.284 226.422 199.284 227.07ZM194.346 227.07C194.346 227.858 194.512 228.479 194.845 228.935C195.178 229.384 195.697 229.609 196.403 229.609C197.115 229.609 197.635 229.384 197.962 228.935C198.288 228.479 198.452 227.858 198.452 227.07C198.452 226.282 198.288 225.666 197.962 225.222C197.635 224.773 197.118 224.548 196.412 224.548C195.706 224.548 195.183 224.773 194.845 225.222C194.512 225.666 194.346 226.282 194.346 227.07ZM202.49 230.292C202.076 230.292 201.705 230.207 201.378 230.038C201.057 229.868 200.803 229.606 200.617 229.25C200.436 228.894 200.345 228.438 200.345 227.884C200.345 227.306 200.442 226.836 200.634 226.474C200.827 226.113 201.086 225.847 201.413 225.678C201.746 225.508 202.123 225.424 202.543 225.424C202.782 225.424 203.013 225.45 203.234 225.503C203.456 225.549 203.637 225.608 203.777 225.678L203.541 226.317C203.401 226.264 203.237 226.215 203.051 226.168C202.864 226.121 202.689 226.098 202.525 226.098C201.603 226.098 201.142 226.69 201.142 227.875C201.142 228.441 201.253 228.876 201.475 229.18C201.702 229.477 202.038 229.626 202.481 229.626C202.738 229.626 202.963 229.6 203.156 229.547C203.354 229.495 203.535 229.431 203.698 229.355V230.038C203.541 230.119 203.366 230.181 203.173 230.222C202.986 230.268 202.759 230.292 202.49 230.292ZM206.425 229.661C206.542 229.661 206.662 229.653 206.784 229.635C206.907 229.612 207.006 229.588 207.082 229.565V230.152C207 230.192 206.884 230.225 206.732 230.248C206.58 230.277 206.434 230.292 206.294 230.292C206.049 230.292 205.821 230.251 205.611 230.169C205.407 230.082 205.241 229.933 205.112 229.723C204.984 229.512 204.919 229.218 204.919 228.838V226.107H204.254V225.739L204.928 225.433L205.235 224.434H205.69V225.511H207.047V226.107H205.69V228.821C205.69 229.107 205.757 229.32 205.891 229.46C206.031 229.594 206.209 229.661 206.425 229.661ZM213.098 227.07C213.098 227.741 213.028 228.319 212.888 228.803C212.748 229.282 212.526 229.65 212.223 229.906C211.919 230.163 211.516 230.292 211.014 230.292C210.308 230.292 209.786 230.009 209.447 229.442C209.115 228.87 208.948 228.08 208.948 227.07C208.948 226.393 209.015 225.815 209.15 225.336C209.29 224.858 209.512 224.493 209.815 224.242C210.119 223.985 210.518 223.857 211.014 223.857C211.715 223.857 212.237 224.14 212.582 224.706C212.926 225.266 213.098 226.054 213.098 227.07ZM209.719 227.07C209.719 227.928 209.815 228.57 210.008 228.996C210.206 229.422 210.542 229.635 211.014 229.635C211.481 229.635 211.814 229.425 212.013 229.005C212.217 228.579 212.319 227.934 212.319 227.07C212.319 226.218 212.217 225.578 212.013 225.152C211.814 224.726 211.481 224.513 211.014 224.513C210.542 224.513 210.206 224.726 210.008 225.152C209.815 225.578 209.719 226.218 209.719 227.07ZM214.055 227.534C214.055 227.084 214.093 226.644 214.169 226.212C214.25 225.774 214.393 225.38 214.598 225.03C214.808 224.674 215.1 224.391 215.473 224.181C215.847 223.97 216.328 223.865 216.918 223.865C217.04 223.865 217.175 223.871 217.32 223.883C217.472 223.895 217.595 223.915 217.688 223.944V224.601C217.583 224.566 217.463 224.54 217.329 224.522C217.201 224.505 217.069 224.496 216.935 224.496C216.533 224.496 216.197 224.563 215.928 224.697C215.66 224.831 215.447 225.015 215.289 225.249C215.138 225.482 215.027 225.751 214.957 226.054C214.887 226.358 214.843 226.682 214.825 227.026H214.878C215.012 226.822 215.199 226.65 215.438 226.509C215.677 226.364 215.984 226.291 216.357 226.291C216.9 226.291 217.338 226.457 217.671 226.79C218.003 227.116 218.17 227.583 218.17 228.19C218.17 228.844 217.989 229.358 217.627 229.731C217.271 230.105 216.789 230.292 216.182 230.292C215.785 230.292 215.426 230.192 215.105 229.994C214.784 229.796 214.528 229.492 214.335 229.083C214.148 228.675 214.055 228.158 214.055 227.534ZM216.174 229.644C216.541 229.644 216.839 229.527 217.067 229.294C217.294 229.054 217.408 228.687 217.408 228.19C217.408 227.794 217.306 227.478 217.102 227.245C216.903 227.011 216.603 226.895 216.2 226.895C215.925 226.895 215.686 226.953 215.482 227.07C215.278 227.181 215.117 227.324 215 227.499C214.889 227.674 214.834 227.855 214.834 228.042C214.834 228.293 214.884 228.544 214.983 228.795C215.082 229.04 215.231 229.244 215.429 229.407C215.628 229.565 215.876 229.644 216.174 229.644ZM220.308 229.285C220.232 229.594 220.122 229.933 219.976 230.3C219.836 230.674 219.695 231.018 219.555 231.334H218.986C219.068 231.001 219.15 230.636 219.231 230.239C219.319 229.842 219.383 229.492 219.424 229.189H220.247L220.308 229.285ZM226.764 230.204H222.632V229.565L224.269 227.91C224.584 227.595 224.85 227.315 225.066 227.07C225.282 226.825 225.445 226.585 225.556 226.352C225.667 226.113 225.723 225.853 225.723 225.573C225.723 225.228 225.62 224.969 225.416 224.793C225.212 224.613 224.946 224.522 224.619 224.522C224.316 224.522 224.047 224.575 223.814 224.68C223.586 224.785 223.353 224.931 223.114 225.117L222.702 224.601C222.947 224.397 223.227 224.224 223.543 224.084C223.864 223.938 224.223 223.865 224.619 223.865C225.203 223.865 225.664 224.014 226.003 224.312C226.341 224.604 226.511 225.009 226.511 225.529C226.511 225.856 226.443 226.162 226.309 226.448C226.175 226.734 225.988 227.017 225.749 227.297C225.51 227.572 225.229 227.866 224.908 228.182L223.604 229.469V229.504H226.764V230.204ZM231.845 227.07C231.845 227.741 231.775 228.319 231.635 228.803C231.495 229.282 231.273 229.65 230.969 229.906C230.666 230.163 230.263 230.292 229.761 230.292C229.055 230.292 228.532 230.009 228.194 229.442C227.861 228.87 227.695 228.08 227.695 227.07C227.695 226.393 227.762 225.815 227.896 225.336C228.036 224.858 228.258 224.493 228.562 224.242C228.865 223.985 229.265 223.857 229.761 223.857C230.461 223.857 230.984 224.14 231.328 224.706C231.673 225.266 231.845 226.054 231.845 227.07ZM228.465 227.07C228.465 227.928 228.562 228.57 228.754 228.996C228.953 229.422 229.288 229.635 229.761 229.635C230.228 229.635 230.561 229.425 230.759 229.005C230.963 228.579 231.066 227.934 231.066 227.07C231.066 226.218 230.963 225.578 230.759 225.152C230.561 224.726 230.228 224.513 229.761 224.513C229.288 224.513 228.953 224.726 228.754 225.152C228.562 225.578 228.465 226.218 228.465 227.07ZM236.872 230.204H232.74V229.565L234.377 227.91C234.692 227.595 234.958 227.315 235.174 227.07C235.39 226.825 235.553 226.585 235.664 226.352C235.775 226.113 235.831 225.853 235.831 225.573C235.831 225.228 235.728 224.969 235.524 224.793C235.32 224.613 235.054 224.522 234.727 224.522C234.424 224.522 234.155 224.575 233.922 224.68C233.694 224.785 233.461 224.931 233.222 225.117L232.81 224.601C233.055 224.397 233.335 224.224 233.651 224.084C233.972 223.938 234.331 223.865 234.727 223.865C235.311 223.865 235.772 224.014 236.111 224.312C236.449 224.604 236.619 225.009 236.619 225.529C236.619 225.856 236.551 226.162 236.417 226.448C236.283 226.734 236.096 227.017 235.857 227.297C235.618 227.572 235.337 227.866 235.016 228.182L233.712 229.469V229.504H236.872V230.204ZM242.207 228.786H241.296V230.204H240.552V228.786H237.558V228.129L240.499 223.918H241.296V228.094H242.207V228.786ZM240.552 226.124C240.552 225.821 240.558 225.564 240.569 225.354C240.581 225.138 240.59 224.934 240.596 224.741H240.561C240.514 224.852 240.456 224.971 240.386 225.1C240.316 225.228 240.248 225.336 240.184 225.424L238.311 228.094H240.552V226.124Z" fill="#717184"/>
<path d="M255.004 228.199V227.516H257.122V228.199H255.004ZM262.071 230.204H257.939V229.565L259.576 227.91C259.891 227.595 260.157 227.315 260.373 227.07C260.589 226.825 260.752 226.585 260.863 226.352C260.974 226.113 261.029 225.853 261.029 225.573C261.029 225.228 260.927 224.969 260.723 224.793C260.519 224.613 260.253 224.522 259.926 224.522C259.623 224.522 259.354 224.575 259.121 224.68C258.893 224.785 258.66 224.931 258.42 225.117L258.009 224.601C258.254 224.397 258.534 224.224 258.849 224.084C259.17 223.938 259.529 223.865 259.926 223.865C260.51 223.865 260.971 224.014 261.31 224.312C261.648 224.604 261.817 225.009 261.817 225.529C261.817 225.856 261.75 226.162 261.616 226.448C261.482 226.734 261.295 227.017 261.056 227.297C260.816 227.572 260.536 227.866 260.215 228.182L258.911 229.469V229.504H262.071V230.204Z" fill="#5235E8"/>
<defs>
<clipPath id="clip0_927_438727">
<rect width="29.1837" height="29.1837" fill="white" transform="translate(23.3472 55.0205)"/>
</clipPath>
<clipPath id="clip1_927_438727">
<rect width="14.5918" height="14.5918" fill="white" transform="translate(30.6431 62.3164)"/>
</clipPath>
<clipPath id="clip2_927_438727">
<rect width="29.1837" height="29.1837" fill="white" transform="translate(23.3472 107.552)"/>
</clipPath>
<clipPath id="clip3_927_438727">
<rect width="29.1837" height="29.1837" fill="white" transform="translate(23.3472 160.082)"/>
</clipPath>
<clipPath id="clip4_927_438727">
<rect width="14.5918" height="14.5918" fill="white" transform="translate(30.6431 167.378)"/>
</clipPath>
<clipPath id="clip5_927_438727">
<rect width="29.1837" height="29.1837" fill="white" transform="translate(23.3472 212.612)"/>
</clipPath>
</defs>
</svg>
